<svg width="832" height="151" xmlns="http://www.w3.org/2000/svg" xmlns:xlink="http://www.w3.org/1999/xlink" overflow="hidden"><defs><clipPath id="clip0"><rect x="0" y="0" width="832" height="151"/></clipPath></defs><g clip-path="url(#clip0)"><rect x="0" y="0" width="832" height="150.743" fill="#FFFFFF"/><path d="M15.7565 17.5556 158.248 17.5556 158.248 75.9764 15.7565 75.9764Z" fill="#2E75B6" fill-rule="evenodd"/><path d="M158.248 17.5556 789.561 17.5556 789.561 75.9764 158.248 75.9764Z" fill="#FFFFFF" fill-rule="evenodd"/><path d="M15.7565 75.9764 158.248 75.9764 158.248 134.397 15.7565 134.397Z" fill="#2E75B6" fill-rule="evenodd"/><path d="M158.248 75.9764 789.561 75.9764 789.561 134.397 158.248 134.397Z" fill="#FFFFFF" fill-rule="evenodd"/><path d="M158.248 16.8897 158.248 135.063" stroke="#000000" stroke-width="1.33414" stroke-linejoin="round" stroke-miterlimit="10" fill="none" fill-rule="evenodd"/><path d="M15.0894 75.9764 158.248 75.9764" stroke="#FFFFFF" stroke-width="1.33414" stroke-linejoin="round" stroke-miterlimit="10" fill="none" fill-rule="evenodd"/><path d="M158.248 75.9764 790.228 75.9764" stroke="#000000" stroke-width="1.33414" stroke-linejoin="round" stroke-miterlimit="10" fill="none" fill-rule="evenodd"/><path d="M15.7565 16.8897 15.7565 135.063" stroke="#000000" stroke-width="1.33414" stroke-linejoin="round" stroke-miterlimit="10" fill="none" fill-rule="evenodd"/><path d="M789.561 16.8897 789.561 135.063" stroke="#000000" stroke-width="1.33414" stroke-linejoin="round" stroke-miterlimit="10" fill="none" fill-rule="evenodd"/><path d="M15.0894 17.5556 790.228 17.5556" stroke="#000000" stroke-width="1.33414" stroke-linejoin="round" stroke-miterlimit="10" fill="none" fill-rule="evenodd"/><path d="M15.0894 134.397 790.228 134.397" stroke="#000000" stroke-width="1.33414" stroke-linejoin="round" stroke-miterlimit="10" fill="none" fill-rule="evenodd"/><text font-family="Yu Gothic,Yu Gothic_MSFontService,sans-serif" font-weight="700" font-size="19" transform="matrix(1 0 0 0.998297 162.03 39)">測定値や計算値が真の値に近いこと</text><text font-family="Yu Gothic,Yu Gothic_MSFontService,sans-serif" font-weight="700" font-size="19" transform="matrix(1 0 0 0.998297 162.03 65)">(</text><text font-family="Yu Gothic,Yu Gothic_MSFontService,sans-serif" font-weight="700" font-size="19" transform="matrix(1 0 0 0.998297 169.534 65)">正規分布で例えるなら</text><text font-family="Yu Gothic,Yu Gothic_MSFontService,sans-serif" font-weight="700" font-size="19" transform="matrix(1 0 0 0.998297 356.313 65)">μ</text><text font-family="Yu Gothic,Yu Gothic_MSFontService,sans-serif" font-weight="700" font-size="19" transform="matrix(1 0 0 0.998297 374.991 65)">が真の値い近いこと</text><text font-family="Yu Gothic,Yu Gothic_MSFontService,sans-serif" font-weight="700" font-size="19" transform="matrix(1 0 0 0.998297 543.092 65)">)</text><text fill="#FFFFFF" font-family="Yu Gothic,Yu Gothic_MSFontService,sans-serif" font-weight="700" font-size="19" transform="matrix(1 0 0 0.998297 19.5382 39)">a</text><text fill="#FFFFFF" font-family="Yu Gothic,Yu Gothic_MSFontService,sans-serif" font-weight="700" font-size="19" transform="matrix(1 0 0 0.998297 30.3781 39)">ccuracy</text><text font-family="Yu Gothic,Yu Gothic_MSFontService,sans-serif" font-weight="700" font-size="19" transform="matrix(1 0 0 0.998297 162.03 97)">測定値や計算値のばらつきが小さいこと、または有効数字が多いこと</text><text font-family="Yu Gothic,Yu Gothic_MSFontService,sans-serif" font-weight="700" font-size="19" transform="matrix(1 0 0 0.998297 162.03 123)">(</text><text font-family="Yu Gothic,Yu Gothic_MSFontService,sans-serif" font-weight="700" font-size="19" transform="matrix(1 0 0 0.998297 169.534 123)">正規分布で例えるなら</text><text font-family="Yu Gothic,Yu Gothic_MSFontService,sans-serif" font-weight="700" font-size="19" transform="matrix(1 0 0 0.998297 356.313 123)">σ</text><text font-family="Yu Gothic,Yu Gothic_MSFontService,sans-serif" font-weight="700" font-size="19" transform="matrix(1 0 0 0.998297 374.991 123)">が小さいこと</text><text font-family="Yu Gothic,Yu Gothic_MSFontService,sans-serif" font-weight="700" font-size="19" transform="matrix(1 0 0 0.998297 487.059 123)">)</text><text fill="#FFFFFF" font-family="Yu Gothic,Yu Gothic_MSFontService,sans-serif" font-weight="700" font-size="19" transform="matrix(1 0 0 0.998297 19.5382 97)">p</text><text fill="#FFFFFF" font-family="Yu Gothic,Yu Gothic_MSFontService,sans-serif" font-weight="700" font-size="19" transform="matrix(1 0 0 0.998297 31.0452 97)">recision</text></g></svg>