<svg width="832" height="170" xmlns="http://www.w3.org/2000/svg" xmlns:xlink="http://www.w3.org/1999/xlink" overflow="hidden"><defs><clipPath id="clip0"><rect x="0" y="0" width="832" height="170"/></clipPath></defs><g clip-path="url(#clip0)"><rect x="0" y="0" width="832" height="169.898" fill="#FFFFFF"/><path d="M21.6457 26.5148 233.512 26.5148 233.512 59.1867 21.6457 59.1867Z" fill="#2E75B6" fill-rule="evenodd"/><path d="M233.512 26.5148 506.21 26.5148 506.21 59.1867 233.512 59.1867Z" fill="#2E75B6" fill-rule="evenodd"/><path d="M506.21 26.5148 810.354 26.5148 810.354 59.1867 506.21 59.1867Z" fill="#2E75B6" fill-rule="evenodd"/><path d="M233.512 25.8481 233.512 59.1867" stroke="#FFFFFF" stroke-width="1.33414" stroke-linejoin="round" stroke-miterlimit="10" fill="none" fill-rule="evenodd"/><path d="M233.512 59.1867 233.512 144.152" stroke="#000000" stroke-width="1.33414" stroke-linejoin="round" stroke-miterlimit="10" fill="none" fill-rule="evenodd"/><path d="M506.21 25.8481 506.21 59.1867" stroke="#FFFFFF" stroke-width="1.33414" stroke-linejoin="round" stroke-miterlimit="10" fill="none" fill-rule="evenodd"/><path d="M506.21 59.1867 506.21 144.152" stroke="#000000" stroke-width="1.33414" stroke-linejoin="round" stroke-miterlimit="10" fill="none" fill-rule="evenodd"/><path d="M20.9786 59.1867 811.021 59.1867" stroke="#000000" stroke-width="1.33414" stroke-linejoin="round" stroke-miterlimit="10" fill="none" fill-rule="evenodd"/><path d="M21.6457 25.8481 21.6457 144.152" stroke="#000000" stroke-width="1.33414" stroke-linejoin="round" stroke-miterlimit="10" fill="none" fill-rule="evenodd"/><path d="M810.354 25.8481 810.354 144.152" stroke="#000000" stroke-width="1.33414" stroke-linejoin="round" stroke-miterlimit="10" fill="none" fill-rule="evenodd"/><path d="M20.9786 26.5148 811.021 26.5148" stroke="#000000" stroke-width="1.33414" stroke-linejoin="round" stroke-miterlimit="10" fill="none" fill-rule="evenodd"/><path d="M20.9786 143.485 811.021 143.485" stroke="#000000" stroke-width="1.33414" stroke-linejoin="round" stroke-miterlimit="10" fill="none" fill-rule="evenodd"/><text fill="#FFFFFF" font-family="Yu Gothic,Yu Gothic_MSFontService,sans-serif" font-weight="700" font-size="19" transform="matrix(1 0 0 0.999399 509.991 48)">ce</text><text fill="#FFFFFF" font-family="Yu Gothic,Yu Gothic_MSFontService,sans-serif" font-weight="700" font-size="19" transform="matrix(1 0 0 0.999399 531.338 48)">r</text><text fill="#FFFFFF" font-family="Yu Gothic,Yu Gothic_MSFontService,sans-serif" font-weight="700" font-size="19" transform="matrix(1 0 0 0.999399 538.675 48)">tification</text><text fill="#FFFFFF" font-family="Yu Gothic,Yu Gothic_MSFontService,sans-serif" font-weight="700" font-size="19" transform="matrix(1 0 0 0.999399 237.294 48)">authentication</text><text fill="#FFFFFF" font-family="Yu Gothic,Yu Gothic_MSFontService,sans-serif" font-weight="700" font-size="19" transform="matrix(1 0 0 0.999399 25.4275 48)">着目点</text><text font-family="Yu Gothic,Yu Gothic_MSFontService,sans-serif" font-weight="700" font-size="19" transform="matrix(1 0 0 0.999399 509.991 81)">3</text><text font-family="Yu Gothic,Yu Gothic_MSFontService,sans-serif" font-weight="700" font-size="19" transform="matrix(1 0 0 0.999399 520.664 81)">者間認証</text><text font-family="Yu Gothic,Yu Gothic_MSFontService,sans-serif" font-weight="700" font-size="19" transform="matrix(1 0 0 0.999399 509.991 107)">・システム</text><text font-family="Yu Gothic,Yu Gothic_MSFontService,sans-serif" font-weight="700" font-size="19" transform="matrix(1 0 0 0.999399 603.381 107)">⇔</text><text font-family="Yu Gothic,Yu Gothic_MSFontService,sans-serif" font-weight="700" font-size="19" transform="matrix(1 0 0 0.999399 622.059 107)">利用者</text><text font-family="Yu Gothic,Yu Gothic_MSFontService,sans-serif" font-weight="700" font-size="19" transform="matrix(1 0 0 0.999399 509.991 133)">・認証機関</text><text font-family="Yu Gothic,Yu Gothic_MSFontService,sans-serif" font-weight="700" font-size="19" transform="matrix(1 0 0 0.999399 603.381 133)">(</text><text font-family="Yu Gothic,Yu Gothic_MSFontService,sans-serif" font-weight="700" font-size="19" transform="matrix(1 0 0 0.999399 610.885 133)">利用者に証明書を発行</text><text font-family="Yu Gothic,Yu Gothic_MSFontService,sans-serif" font-weight="700" font-size="19" transform="matrix(1 0 0 0.999399 797.664 133)">)</text><text font-family="Yu Gothic,Yu Gothic_MSFontService,sans-serif" font-weight="700" font-size="19" transform="matrix(1 0 0 0.999399 237.294 81)">2</text><text font-family="Yu Gothic,Yu Gothic_MSFontService,sans-serif" font-weight="700" font-size="19" transform="matrix(1 0 0 0.999399 247.967 81)">者間認証</text><text font-family="Yu Gothic,Yu Gothic_MSFontService,sans-serif" font-weight="700" font-size="19" transform="matrix(1 0 0 0.999399 237.294 107)">・システム</text><text font-family="Yu Gothic,Yu Gothic_MSFontService,sans-serif" font-weight="700" font-size="19" transform="matrix(1 0 0 0.999399 330.684 107)">⇔</text><text font-family="Yu Gothic,Yu Gothic_MSFontService,sans-serif" font-weight="700" font-size="19" transform="matrix(1 0 0 0.999399 349.362 107)">利用者</text><text font-family="Yu Gothic,Yu Gothic_MSFontService,sans-serif" font-weight="700" font-size="19" transform="matrix(1 0 0 0.999399 25.4275 81)">登場人物の数</text></g></svg>