<svg width="813" height="132" xmlns="http://www.w3.org/2000/svg" xmlns:xlink="http://www.w3.org/1999/xlink" overflow="hidden"><g><rect x="0" y="0" width="813" height="131.614" fill="#FFFFFF"/><path d="M11.0054 11.7222 407.268 11.7222 407.268 43.6416 11.0054 43.6416Z" fill="#2E75B6" fill-rule="evenodd"/><path d="M407.268 11.7222 801.169 11.7222 801.169 43.6416 407.268 43.6416Z" fill="#2E75B6" fill-rule="evenodd"/><path d="M407.268 11.0572 407.268 43.6416" stroke="#FFFFFF" stroke-width="1.33388" stroke-linejoin="round" stroke-miterlimit="10" fill="none" fill-rule="evenodd"/><path d="M407.268 43.6416 407.268 120.913" stroke="#000000" stroke-width="1.33388" stroke-linejoin="round" stroke-miterlimit="10" fill="none" fill-rule="evenodd"/><path d="M10.3384 43.6416 801.836 43.6416" stroke="#000000" stroke-width="1.33388" stroke-linejoin="round" stroke-miterlimit="10" fill="none" fill-rule="evenodd"/><path d="M11.0054 11.0572 11.0054 120.913" stroke="#000000" stroke-width="1.33388" stroke-linejoin="round" stroke-miterlimit="10" fill="none" fill-rule="evenodd"/><path d="M801.169 11.0572 801.169 120.913" stroke="#000000" stroke-width="1.33388" stroke-linejoin="round" stroke-miterlimit="10" fill="none" fill-rule="evenodd"/><path d="M10.3384 11.7222 801.836 11.7222" stroke="#000000" stroke-width="1.33388" stroke-linejoin="round" stroke-miterlimit="10" fill="none" fill-rule="evenodd"/><path d="M10.3384 120.248 801.836 120.248" stroke="#000000" stroke-width="1.33388" stroke-linejoin="round" stroke-miterlimit="10" fill="none" fill-rule="evenodd"/><text fill="#FFFFFF" font-family="Calibri,Calibri_MSFontService,sans-serif" font-weight="700" font-size="18.6196" transform="matrix(1 0 0 0.997072 570.845 33)">preempt</text><text fill="#FFFFFF" font-family="Calibri,Calibri_MSFontService,sans-serif" font-weight="700" font-size="18.6196" transform="matrix(1 0 0 0.997072 188.378 33)">block</text><g><text font-family="Yu Gothic,Yu Gothic_MSFontService,sans-serif" font-weight="400" font-size="18.6196" transform="matrix(1 0 0 0.997072 416.872 65)">優先度の高いタスクが優先度の低いタスクの</text></g><g><text font-family="Yu Gothic,Yu Gothic_MSFontService,sans-serif" font-weight="400" font-size="18.6196" transform="matrix(1 0 0 0.997072 416.872 88)">実行制御を取り上げ、待たせること</text></g><g><text font-family="Yu Gothic,Yu Gothic_MSFontService,sans-serif" font-weight="400" font-size="18.6196" transform="matrix(1 0 0 0.997072 20.6093 65)">同期やリソースの排他アクセスのために、他</text></g><g><text font-family="Yu Gothic,Yu Gothic_MSFontService,sans-serif" font-weight="400" font-size="18.6196" transform="matrix(1 0 0 0.997072 20.6093 88)">の処理を待たせること。</text></g><g><text font-family="Yu Gothic,Yu Gothic_MSFontService,sans-serif" font-weight="400" font-size="18.6196" transform="matrix(1 0 0 0.997072 20.6093 110)">優先度は関係なく早いもの順。</text></g></g></svg>