<svg width="832" height="208" xmlns="http://www.w3.org/2000/svg" xmlns:xlink="http://www.w3.org/1999/xlink" overflow="hidden"><defs><clipPath id="clip0"><rect x="0" y="0" width="832" height="208"/></clipPath></defs><g clip-path="url(#clip0)"><rect x="0" y="0" width="832" height="208.042" fill="#FFFFFF"/><path d="M25.1845 22.1042 246.904 22.1042 246.904 54.8023 25.1845 54.8023Z" fill="#2E75B6" fill-rule="evenodd"/><path d="M246.904 22.1042 798.989 22.1042 798.989 54.8023 246.904 54.8023Z" fill="#FFFFFF" fill-rule="evenodd"/><path d="M25.1845 54.8023 246.904 54.8023 246.904 87.5005 25.1845 87.5005Z" fill="#2E75B6" fill-rule="evenodd"/><path d="M246.904 54.8023 798.989 54.8023 798.989 87.5005 246.904 87.5005Z" fill="#FFFFFF" fill-rule="evenodd"/><path d="M246.904 21.437 246.904 88.1677" stroke="#000000" stroke-width="1.33414" stroke-linejoin="round" stroke-miterlimit="10" fill="none" fill-rule="evenodd"/><path d="M24.5174 54.8023 246.904 54.8023" stroke="#FFFFFF" stroke-width="1.33414" stroke-linejoin="round" stroke-miterlimit="10" fill="none" fill-rule="evenodd"/><path d="M246.904 54.8023 799.656 54.8023" stroke="#000000" stroke-width="1.33414" stroke-linejoin="round" stroke-miterlimit="10" fill="none" fill-rule="evenodd"/><path d="M25.1845 21.437 25.1845 88.1677" stroke="#000000" stroke-width="1.33414" stroke-linejoin="round" stroke-miterlimit="10" fill="none" fill-rule="evenodd"/><path d="M798.989 21.437 798.989 88.1677" stroke="#000000" stroke-width="1.33414" stroke-linejoin="round" stroke-miterlimit="10" fill="none" fill-rule="evenodd"/><path d="M24.5174 22.1042 799.656 22.1042" stroke="#000000" stroke-width="1.33414" stroke-linejoin="round" stroke-miterlimit="10" fill="none" fill-rule="evenodd"/><path d="M24.5174 87.5005 799.656 87.5005" stroke="#000000" stroke-width="1.33414" stroke-linejoin="round" stroke-miterlimit="10" fill="none" fill-rule="evenodd"/><text font-family="Yu Gothic,Yu Gothic_MSFontService,sans-serif" font-weight="700" font-size="19" transform="matrix(1 0 0 1.0002 250.686 44)">複数のタスクを同時に実行すること</text><text fill="#FFFFFF" font-family="Yu Gothic,Yu Gothic_MSFontService,sans-serif" font-weight="700" font-size="19" transform="matrix(1 0 0 1.0002 28.9663 44)">parallel</text><text fill="#FFFFFF" font-family="Yu Gothic,Yu Gothic_MSFontService,sans-serif" font-weight="700" font-size="19" transform="matrix(1 0 0 1.0002 101.843 44)">(</text><text fill="#FFFFFF" font-family="Yu Gothic,Yu Gothic_MSFontService,sans-serif" font-weight="700" font-size="19" transform="matrix(1 0 0 1.0002 109.348 44)">並列実行</text><text fill="#FFFFFF" font-family="Yu Gothic,Yu Gothic_MSFontService,sans-serif" font-weight="700" font-size="19" transform="matrix(1 0 0 1.0002 184.059 44)">)</text><text font-family="Yu Gothic,Yu Gothic_MSFontService,sans-serif" font-weight="700" font-size="19" transform="matrix(1 0 0 1.0002 250.686 77)">複数のタスクを「同時に進行しているように見せる」こと</text><text fill="#FFFFFF" font-family="Yu Gothic,Yu Gothic_MSFontService,sans-serif" font-weight="700" font-size="19" transform="matrix(1 0 0 1.0002 28.9663 77)">concurrent</text><text fill="#FFFFFF" font-family="Yu Gothic,Yu Gothic_MSFontService,sans-serif" font-weight="700" font-size="19" transform="matrix(1 0 0 1.0002 133.362 77)">(</text><text fill="#FFFFFF" font-family="Yu Gothic,Yu Gothic_MSFontService,sans-serif" font-weight="700" font-size="19" transform="matrix(1 0 0 1.0002 140.867 77)">並行実行</text><text fill="#FFFFFF" font-family="Yu Gothic,Yu Gothic_MSFontService,sans-serif" font-weight="700" font-size="19" transform="matrix(1 0 0 1.0002 215.578 77)">)</text><path d="M132 144.028 369.994 144.028 369.994 148.031 132 148.031ZM367.993 140.025 380 146.029 367.993 152.034Z" fill="#4472C4"/><path d="M131 173.033 368.994 173.034 368.994 177.037 131 177.037ZM366.993 169.03 379 175.035 366.993 181.04Z" fill="#4472C4"/><path d="M455 144.028 508.994 144.028 508.994 148.031 455 148.031ZM506.993 140.025 519 146.029 506.993 152.034Z" fill="#4472C4"/><path d="M519.5 146.529 519.5 178.536" stroke="#4472C4" stroke-width="1.0006" stroke-linejoin="round" stroke-miterlimit="10" stroke-dasharray="4.00241 3.0018" fill="none" fill-rule="evenodd"/><path d="M519 173.033 572.994 173.034 572.994 177.037 519 177.037ZM570.993 169.03 583 175.035 570.993 181.04Z" fill="#4472C4"/><path d="M583.5 145.529 583.5 177.536" stroke="#4472C4" stroke-width="1.0006" stroke-linejoin="round" stroke-miterlimit="10" stroke-dasharray="4.00241 3.0018" fill="none" fill-rule="evenodd"/><path d="M583 144.028 636.994 144.028 636.994 148.031 583 148.031ZM634.993 140.025 647 146.029 634.993 152.034Z" fill="#4472C4"/><path d="M645.5 146.529 645.5 178.536" stroke="#4472C4" stroke-width="1.0006" stroke-linejoin="round" stroke-miterlimit="10" stroke-dasharray="4.00241 3.0018" fill="none" fill-rule="evenodd"/><path d="M644 173.033 697.994 173.034 697.994 177.037 644 177.037ZM695.993 169.03 708 175.035 695.993 181.04Z" fill="#4472C4"/><path d="M708.5 146.529 708.5 178.536" stroke="#4472C4" stroke-width="1.0006" stroke-linejoin="round" stroke-miterlimit="10" stroke-dasharray="4.00241 3.0018" fill="none" fill-rule="evenodd"/><path d="M772.5 145.529 772.5 177.536" stroke="#4472C4" stroke-width="1.0006" stroke-linejoin="round" stroke-miterlimit="10" stroke-dasharray="4.00241 3.0018" fill="none" fill-rule="evenodd"/><path d="M710 144.028 763.994 144.028 763.994 148.031 710 148.031ZM761.993 140.025 774 146.029 761.993 152.034Z" fill="#4472C4"/><text font-family="Yu Gothic,Yu Gothic_MSFontService,sans-serif" font-weight="700" font-size="19" transform="matrix(1 0 0 1.0002 40.2709 155)">タスク</text><text font-family="Calibri,Calibri_MSFontService,sans-serif" font-weight="700" font-size="19" transform="matrix(1 0 0 1.0002 96.3046 155)">A</text><text font-family="Yu Gothic,Yu Gothic_MSFontService,sans-serif" font-weight="700" font-size="19" transform="matrix(1 0 0 1.0002 39.3814 180)">タスク</text><text font-family="Calibri,Calibri_MSFontService,sans-serif" font-weight="700" font-size="19" transform="matrix(1 0 0 1.0002 95.415 180)">B</text><text font-family="Calibri,Calibri_MSFontService,sans-serif" font-weight="700" font-size="19" transform="matrix(1 0 0 1.0002 180.274 122)">parallel</text><text font-family="Calibri,Calibri_MSFontService,sans-serif" font-weight="700" font-size="19" transform="matrix(1 0 0 1.0002 242.398 122)">(</text><text font-family="Yu Gothic,Yu Gothic_MSFontService,sans-serif" font-weight="700" font-size="19" transform="matrix(1 0 0 1.0002 248.235 122)">並列実行</text><text font-family="Calibri,Calibri_MSFontService,sans-serif" font-weight="700" font-size="19" transform="matrix(1 0 0 1.0002 322.947 122)">)</text><text font-family="Calibri,Calibri_MSFontService,sans-serif" font-weight="700" font-size="19" transform="matrix(1 0 0 1.0002 539.824 120)">concurrent</text><text font-family="Calibri,Calibri_MSFontService,sans-serif" font-weight="700" font-size="19" transform="matrix(1 0 0 1.0002 628.404 120)">(</text><text font-family="Yu Gothic,Yu Gothic_MSFontService,sans-serif" font-weight="700" font-size="19" transform="matrix(1 0 0 1.0002 634.24 120)">並行実行</text><text font-family="Calibri,Calibri_MSFontService,sans-serif" font-weight="700" font-size="19" transform="matrix(1 0 0 1.0002 708.952 120)">)</text></g></svg>