<svg width="832" height="208" xmlns="http://www.w3.org/2000/svg" xmlns:xlink="http://www.w3.org/1999/xlink" overflow="hidden"><defs><clipPath id="clip0"><rect x="0" y="0" width="832" height="208"/></clipPath></defs><g clip-path="url(#clip0)"><rect x="0" y="0" width="832" height="208.042" fill="#FFFFFF"/><path d="M21.9998 17.8977 151.277 17.8977 151.277 72.3413 21.9998 72.3413Z" fill="#2E75B6" fill-rule="evenodd"/><path d="M151.277 17.8977 479.304 17.8977 479.304 72.3413 151.277 72.3413Z" fill="#2E75B6" fill-rule="evenodd"/><path d="M479.304 17.8977 807.332 17.8977 807.332 72.3413 479.304 72.3413Z" fill="#2E75B6" fill-rule="evenodd"/><path d="M151.277 17.2305 151.277 189.902" stroke="#000000" stroke-width="1.33414" stroke-linejoin="round" stroke-miterlimit="10" fill="none" fill-rule="evenodd"/><path d="M479.304 17.2305 479.304 189.902" stroke="#000000" stroke-width="1.33414" stroke-linejoin="round" stroke-miterlimit="10" fill="none" fill-rule="evenodd"/><path d="M21.3327 72.3413 807.999 72.3413" stroke="#000000" stroke-width="1.33414" stroke-linejoin="round" stroke-miterlimit="10" fill="none" fill-rule="evenodd"/><path d="M21.3327 111.306 807.999 111.306" stroke="#000000" stroke-width="1.33414" stroke-linejoin="round" stroke-miterlimit="10" fill="none" fill-rule="evenodd"/><path d="M21.3327 150.27 807.999 150.27" stroke="#000000" stroke-width="1.33414" stroke-linejoin="round" stroke-miterlimit="10" fill="none" fill-rule="evenodd"/><path d="M21.9998 17.2305 21.9998 189.902" stroke="#000000" stroke-width="1.33414" stroke-linejoin="round" stroke-miterlimit="10" fill="none" fill-rule="evenodd"/><path d="M807.332 17.2305 807.332 189.902" stroke="#000000" stroke-width="1.33414" stroke-linejoin="round" stroke-miterlimit="10" fill="none" fill-rule="evenodd"/><path d="M21.3327 17.8977 807.999 17.8977" stroke="#000000" stroke-width="1.33414" stroke-linejoin="round" stroke-miterlimit="10" fill="none" fill-rule="evenodd"/><path d="M21.3327 189.235 807.999 189.235" stroke="#000000" stroke-width="1.33414" stroke-linejoin="round" stroke-miterlimit="10" fill="none" fill-rule="evenodd"/><g><text fill="#FFFFFF" font-family="Calibri,Calibri_MSFontService,sans-serif" font-weight="700" font-size="18.6816" transform="matrix(1 0 0 1.0002 488.91 40)">Introspective Consistency</text></g><g><text fill="#FFFFFF" font-family="Yu Gothic,Yu Gothic_MSFontService,sans-serif" font-weight="700" font-size="18.6816" transform="matrix(1 0 0 1.0002 488.91 63)">（内省的一貫性）</text></g><g><text fill="#FFFFFF" font-family="Calibri,Calibri_MSFontService,sans-serif" font-weight="700" font-size="18.6816" transform="matrix(1 0 0 1.0002 160.883 40)">Self</text></g><text fill="#FFFFFF" font-family="Calibri,Calibri_MSFontService,sans-serif" font-weight="700" font-size="18.6816" transform="matrix(1 0 0 1.0002 189.567 40)">-</text><text fill="#FFFFFF" font-family="Calibri,Calibri_MSFontService,sans-serif" font-weight="700" font-size="18.6816" transform="matrix(1 0 0 1.0002 195.237 40)">Consistency</text><g><text fill="#FFFFFF" font-family="Yu Gothic,Yu Gothic_MSFontService,sans-serif" font-weight="700" font-size="18.6816" transform="matrix(1 0 0 1.0002 160.883 63)">（自己整合性）</text></g><g><text fill="#FFFFFF" font-family="Yu Gothic,Yu Gothic_MSFontService,sans-serif" font-weight="700" font-size="18.6816" transform="matrix(1 0 0 1.0002 31.6056 40)">項目</text></g><g><text font-family="Yu Gothic,Yu Gothic_MSFontService,sans-serif" font-weight="700" font-size="18.6816" transform="matrix(1 0 0 1.0002 488.91 94)">能力・状態・性質</text></g><g><text font-family="Yu Gothic,Yu Gothic_MSFontService,sans-serif" font-weight="700" font-size="18.6816" transform="matrix(1 0 0 1.0002 160.883 94)">手法・テクニック</text></g><g><text font-family="Yu Gothic,Yu Gothic_MSFontService,sans-serif" font-weight="700" font-size="18.6816" transform="matrix(1 0 0 1.0002 31.6056 94)">何モノか？</text></g><g><text font-family="Yu Gothic,Yu Gothic_MSFontService,sans-serif" font-weight="700" font-size="18.6816" transform="matrix(1 0 0 1.0002 488.91 133)">自分の回答の自己検証・修正</text></g><g><text font-family="Yu Gothic,Yu Gothic_MSFontService,sans-serif" font-weight="700" font-size="18.6816" transform="matrix(1 0 0 1.0002 160.883 133)">複数の回答の多数決</text></g><g><text font-family="Yu Gothic,Yu Gothic_MSFontService,sans-serif" font-weight="700" font-size="18.6816" transform="matrix(1 0 0 1.0002 31.6056 133)">仕組み</text></g><g><text font-family="Yu Gothic,Yu Gothic_MSFontService,sans-serif" font-weight="700" font-size="18.6816" transform="matrix(1 0 0 1.0002 488.91 172)">論理的な矛盾の解消、信頼性の向上</text></g><g><text font-family="Yu Gothic,Yu Gothic_MSFontService,sans-serif" font-weight="700" font-size="18.6816" transform="matrix(1 0 0 1.0002 160.883 172)">統計的な正解率の向上</text></g><g><text font-family="Yu Gothic,Yu Gothic_MSFontService,sans-serif" font-weight="700" font-size="18.6816" transform="matrix(1 0 0 1.0002 31.6056 172)">目的</text></g></g></svg>