<svg width="813" height="227" xmlns="http://www.w3.org/2000/svg" xmlns:xlink="http://www.w3.org/1999/xlink" overflow="hidden"><defs><clipPath id="clip0"><rect x="0" y="0" width="813" height="227"/></clipPath></defs><g clip-path="url(#clip0)"><rect x="0" y="0" width="813" height="227.074" fill="#FFFFFF"/><path d="M19.6717 16.9354 159.89 16.9354 159.89 127.128 19.6717 127.128Z" fill="#2E75B6" fill-rule="evenodd"/><path d="M159.89 16.9354 793.328 16.9354 793.328 127.128 159.89 127.128Z" fill="#FFFFFF" fill-rule="evenodd"/><path d="M19.6717 127.128 159.89 127.128 159.89 211.489 19.6717 211.489Z" fill="#2E75B6" fill-rule="evenodd"/><path d="M159.89 127.128 793.328 127.128 793.328 211.489 159.89 211.489Z" fill="#FFFFFF" fill-rule="evenodd"/><path d="M159.89 16.2682 159.89 212.156" stroke="#000000" stroke-width="1.33388" stroke-linejoin="round" stroke-miterlimit="10" fill="none" fill-rule="evenodd"/><path d="M19.0047 127.128 159.89 127.128" stroke="#FFFFFF" stroke-width="1.33388" stroke-linejoin="round" stroke-miterlimit="10" fill="none" fill-rule="evenodd"/><path d="M159.89 127.128 793.995 127.128" stroke="#000000" stroke-width="1.33388" stroke-linejoin="round" stroke-miterlimit="10" fill="none" fill-rule="evenodd"/><path d="M19.6717 16.2682 19.6717 212.156" stroke="#000000" stroke-width="1.33388" stroke-linejoin="round" stroke-miterlimit="10" fill="none" fill-rule="evenodd"/><path d="M793.328 16.2682 793.328 212.156" stroke="#000000" stroke-width="1.33388" stroke-linejoin="round" stroke-miterlimit="10" fill="none" fill-rule="evenodd"/><path d="M19.0047 16.9354 793.995 16.9354" stroke="#000000" stroke-width="1.33388" stroke-linejoin="round" stroke-miterlimit="10" fill="none" fill-rule="evenodd"/><path d="M19.0047 211.489 793.995 211.489" stroke="#000000" stroke-width="1.33388" stroke-linejoin="round" stroke-miterlimit="10" fill="none" fill-rule="evenodd"/><text font-family="Calibri,Calibri_MSFontService,sans-serif" font-weight="700" font-size="18.6804" transform="matrix(1 0 0 1.00032 163.671 39)">(</text><text font-family="Yu Gothic,Yu Gothic_MSFontService,sans-serif" font-weight="700" font-size="18.6804" transform="matrix(1 0 0 1.00032 169.507 39)">直観的には</text><text font-family="Calibri,Calibri_MSFontService,sans-serif" font-weight="700" font-size="18.6804" transform="matrix(1 0 0 1.00032 262.878 39)">)</text><text font-family="Cambria Math,Cambria Math_MSFontService,sans-serif" font-weight="400" font-size="18.6804" transform="matrix(1 0 0 1.00032 272.882 39)">𝒇</text><path d="M137.729 2.02425C139.505 2.49247 140.868 3.50341 141.82 5.05707 142.772 6.61073 143.247 8.48515 143.247 10.6803 143.247 12.8816 142.773 14.756 141.825 16.3036 140.876 17.8512 139.511 18.8591 137.729 19.3273L137.51 18.625C138.915 18.1567 139.959 17.2325 140.643 15.8521 141.327 14.4718 141.67 12.7174 141.67 10.5891 141.67 8.5338 141.329 6.8266 140.648 5.46753 139.967 4.10846 138.912 3.19481 137.483 2.72659ZM126.876 2.02425 127.122 2.72659C125.699 3.19481 124.646 4.10846 123.962 5.46753 123.278 6.8266 122.936 8.5338 122.936 10.5891 122.936 12.7174 123.278 14.4718 123.962 15.8521 124.646 17.2325 125.69 18.1567 127.095 18.625L126.876 19.3273C125.094 18.8591 123.729 17.8512 122.781 16.3036 121.832 14.756 121.358 12.8816 121.358 10.6803 121.358 8.48515 121.833 6.61073 122.785 5.05707 123.737 3.50341 125.1 2.49247 126.876 2.02425Z" fill-rule="evenodd" transform="matrix(1 0 0 1.00032 163.671 22.6162)"/><text font-family="Cambria Math,Cambria Math_MSFontService,sans-serif" font-weight="400" font-size="18.6804" transform="matrix(1 0 0 1.00032 291.136 39)">𝒛</text><text font-family="Cambria Math,Cambria Math_MSFontService,sans-serif" font-weight="400" font-size="18.6804" transform="matrix(1 0 0 1.00032 308.557 39)"></text><text font-family="Yu Gothic,Yu Gothic_MSFontService,sans-serif" font-weight="700" font-size="18.6804" transform="matrix(1 0 0 1.00032 312.725 39)">のグラフが</text><text fill="#FF0000" font-family="Yu Gothic,Yu Gothic_MSFontService,sans-serif" font-weight="700" font-size="18.6804" transform="matrix(1 0 0 1.00032 406.097 39)">ある</text><text fill="#FF0000" font-family="Calibri,Calibri_MSFontService,sans-serif" font-weight="700" font-size="18.6804" transform="matrix(1 0 0 1.00032 447.614 39)">1</text><text fill="#FF0000" font-family="Yu Gothic,Yu Gothic_MSFontService,sans-serif" font-weight="700" font-size="18.6804" transform="matrix(1 0 0 1.00032 461.286 39)">点</text><text fill="#FF0000" font-family="Cambria Math,Cambria Math_MSFontService,sans-serif" font-weight="400" font-size="18.6804" transform="matrix(1 0 0 1.00032 484.129 39)">𝒛</text><text fill="#FF0000" font-family="Cambria Math,Cambria Math_MSFontService,sans-serif" font-weight="400" font-size="18.6804" transform="matrix(1 0 0 1.00032 498.988 39)">=</text><text fill="#FF0000" font-family="Cambria Math,Cambria Math_MSFontService,sans-serif" font-weight="400" font-size="18.6804" transform="matrix(1 0 0 1.00032 518.183 39)">𝒂</text><text fill="#FF0000" font-family="Yu Gothic,Yu Gothic_MSFontService,sans-serif" font-weight="700" font-size="18.6804" transform="matrix(1 0 0 1.00032 534.023 39)">で</text><text font-family="Yu Gothic,Yu Gothic_MSFontService,sans-serif" font-weight="700" font-size="18.6804" transform="matrix(1 0 0 1.00032 552.697 39)">途切れていないこと</text><text font-family="Yu Gothic,Yu Gothic_MSFontService,sans-serif" font-weight="700" font-size="18.6804" transform="matrix(1 0 0 1.00032 163.671 65)">・</text><text font-family="Cambria Math,Cambria Math_MSFontService,sans-serif" font-weight="400" font-size="18.6804" transform="matrix(1 0 0 1.00032 182.345 65)">𝒇</text><path d="M49.1928 7.02792C50.9684 7.49615 52.3321 8.50709 53.2837 10.0607 54.2354 11.6144 54.7112 13.4888 54.7112 15.684 54.7112 17.8853 54.2369 19.7597 53.2883 21.3073 52.3397 22.8549 50.9745 23.8628 49.1928 24.331L48.9739 23.6286C50.3786 23.1604 51.423 22.2361 52.1071 20.8558 52.7912 19.4754 53.1332 17.7211 53.1332 15.5928 53.1332 13.5375 52.7927 11.8303 52.1116 10.4712 51.4306 9.11213 50.3755 8.19848 48.9465 7.73026ZM36.3388 7.02792 36.5851 7.73026C35.1622 8.19848 34.1087 9.11213 33.4246 10.4712 32.7405 11.8303 32.3984 13.5375 32.3984 15.5928 32.3984 17.7211 32.7405 19.4754 33.4246 20.8558 34.1087 22.2361 35.1531 23.1604 36.5577 23.6286L36.3388 24.331C34.5571 23.8628 33.192 22.8549 32.2434 21.3073 31.2948 19.7597 30.8205 17.8853 30.8205 15.684 30.8205 13.4888 31.2963 11.6144 32.2479 10.0607 33.1996 8.50709 34.5632 7.49615 36.3388 7.02792Z" fill-rule="evenodd" transform="matrix(1 0 0 1.00032 163.671 43.623)"/><text font-family="Cambria Math,Cambria Math_MSFontService,sans-serif" font-weight="400" font-size="18.6804" transform="matrix(1 0 0 1.00032 200.599 65)">𝒂</text><text font-family="Yu Gothic,Yu Gothic_MSFontService,sans-serif" font-weight="700" font-size="18.6804" transform="matrix(1 0 0 1.00032 224.189 65)">が存在する</text><text font-family="Yu Gothic,Yu Gothic_MSFontService,sans-serif" font-weight="700" font-size="18.6804" transform="matrix(1 0 0 1.00032 163.671 91)">・</text><text font-family="Cambria Math,Cambria Math_MSFontService,sans-serif" font-weight="400" font-size="18.6804" transform="matrix(1 0 0 1.00032 182.345 91)">lim</text><text font-family="Cambria Math,Cambria Math_MSFontService,sans-serif" font-weight="400" font-size="13.6367" transform="matrix(1 0 0 1.00032 208.022 94)">𝒛</text><text font-family="Cambria Math,Cambria Math_MSFontService,sans-serif" font-weight="400" font-size="13.6367" transform="matrix(1 0 0 1.00032 215.025 94)">→</text><text font-family="Cambria Math,Cambria Math_MSFontService,sans-serif" font-weight="400" font-size="13.6367" transform="matrix(1 0 0 1.00032 226.53 94)">𝒂</text><text font-family="Cambria Math,Cambria Math_MSFontService,sans-serif" font-weight="400" font-size="18.6804" transform="matrix(1 0 0 1.00032 238.922 91)">𝒇</text><text font-family="Cambria Math,Cambria Math_MSFontService,sans-serif" font-weight="400" font-size="18.6804" transform="matrix(1 0 0 1.00032 249.426 91)">(</text><text font-family="Cambria Math,Cambria Math_MSFontService,sans-serif" font-weight="400" font-size="18.6804" transform="matrix(1 0 0 1.00032 257.096 91)">𝒛</text><text font-family="Cambria Math,Cambria Math_MSFontService,sans-serif" font-weight="400" font-size="18.6804" transform="matrix(1 0 0 1.00032 266.766 91)">)</text><text font-family="Yu Gothic,Yu Gothic_MSFontService,sans-serif" font-weight="700" font-size="18.6804" transform="matrix(1 0 0 1.00032 278.605 91)">が存在する</text><text font-family="Yu Gothic,Yu Gothic_MSFontService,sans-serif" font-weight="700" font-size="18.6804" transform="matrix(1 0 0 1.00032 376.145 91)">＝極限が収束する</text><text font-family="Yu Gothic,Yu Gothic_MSFontService,sans-serif" font-weight="700" font-size="18.6804" transform="matrix(1 0 0 1.00032 163.671 117)">・</text><text font-family="Cambria Math,Cambria Math_MSFontService,sans-serif" font-weight="400" font-size="18.6804" transform="matrix(1 0 0 1.00032 182.345 117)">lim</text><text font-family="Cambria Math,Cambria Math_MSFontService,sans-serif" font-weight="400" font-size="13.6367" transform="matrix(1 0 0 1.00032 208.022 120)">𝒛</text><text font-family="Cambria Math,Cambria Math_MSFontService,sans-serif" font-weight="400" font-size="13.6367" transform="matrix(1 0 0 1.00032 215.025 120)">→</text><text font-family="Cambria Math,Cambria Math_MSFontService,sans-serif" font-weight="400" font-size="13.6367" transform="matrix(1 0 0 1.00032 226.53 120)">𝒂</text><text font-family="Cambria Math,Cambria Math_MSFontService,sans-serif" font-weight="400" font-size="18.6804" transform="matrix(1 0 0 1.00032 238.922 117)">𝒇</text><path d="M103.769 7.02792C105.544 7.49615 106.908 8.50709 107.859 10.0607 108.811 11.6144 109.287 13.4888 109.287 15.684 109.287 17.8853 108.813 19.7597 107.864 21.3073 106.915 22.8549 105.55 23.8628 103.769 24.331L103.55 23.6286C104.954 23.1604 105.999 22.2361 106.683 20.8558 107.367 19.4754 107.709 17.7211 107.709 15.5928 107.709 13.5375 107.368 11.8303 106.687 10.4712 106.006 9.11213 104.951 8.19848 103.522 7.73026ZM92.9154 7.02792 93.1616 7.73026C91.7387 8.19848 90.6852 9.11213 90.0011 10.4712 89.317 11.8303 88.975 13.5375 88.975 15.5928 88.975 17.7211 89.317 19.4754 90.0011 20.8558 90.6852 22.2361 91.7296 23.1604 93.1343 23.6286L92.9154 24.331C91.1337 23.8628 89.7685 22.8549 88.8199 21.3073 87.8713 19.7597 87.397 17.8853 87.397 15.684 87.397 13.4888 87.8728 11.6144 88.8245 10.0607 89.7761 8.50709 91.1398 7.49615 92.9154 7.02792Z" fill-rule="evenodd" transform="matrix(1 0 0 1.00032 163.671 95.6399)"/><text font-family="Cambria Math,Cambria Math_MSFontService,sans-serif" font-weight="400" font-size="18.6804" transform="matrix(1 0 0 1.00032 257.176 117)">𝒛</text><text font-family="Cambria Math,Cambria Math_MSFontService,sans-serif" font-weight="400" font-size="18.6804" transform="matrix(1 0 0 1.00032 279.785 117)">=</text><text font-family="Cambria Math,Cambria Math_MSFontService,sans-serif" font-weight="400" font-size="18.6804" transform="matrix(1 0 0 1.00032 298.98 117)">𝒇</text><text font-family="Cambria Math,Cambria Math_MSFontService,sans-serif" font-weight="400" font-size="18.6804" transform="matrix(1 0 0 1.00032 309.484 117)">(</text><text font-family="Cambria Math,Cambria Math_MSFontService,sans-serif" font-weight="400" font-size="18.6804" transform="matrix(1 0 0 1.00032 317.154 117)">𝒂</text><text font-family="Cambria Math,Cambria Math_MSFontService,sans-serif" font-weight="400" font-size="18.6804" transform="matrix(1 0 0 1.00032 328.825 117)">)</text><text font-family="Yu Gothic,Yu Gothic_MSFontService,sans-serif" font-weight="700" font-size="18.6804" transform="matrix(1 0 0 1.00032 340.663 117)">＝収束した極限値がその点の関数値と一致する</text><text fill="#FFFFFF" font-family="Yu Gothic,Yu Gothic_MSFontService,sans-serif" font-weight="700" font-size="18.6804" transform="matrix(1 0 0 1.00032 23.4528 39)">連続</text><text fill="#FFFFFF" font-family="Yu Gothic,Yu Gothic_MSFontService,sans-serif" font-weight="700" font-size="18.6804" transform="matrix(1 0 0 1.00032 23.4528 65)">Continuity</text><text font-family="Yu Gothic,Yu Gothic_MSFontService,sans-serif" font-weight="700" font-size="18.6804" transform="matrix(1 0 0 1.00032 163.671 149)">(</text><text font-family="Yu Gothic,Yu Gothic_MSFontService,sans-serif" font-weight="700" font-size="18.6804" transform="matrix(1 0 0 1.00032 171.174 149)">直観的には</text><text font-family="Yu Gothic,Yu Gothic_MSFontService,sans-serif" font-weight="700" font-size="18.6804" transform="matrix(1 0 0 1.00032 264.545 149)">)</text><text font-family="Cambria Math,Cambria Math_MSFontService,sans-serif" font-weight="400" font-size="18.6804" transform="matrix(1 0 0 1.00032 277.384 149)">𝒇</text><path d="M142.231 2.02425C144.007 2.49247 145.37 3.50341 146.322 5.05707 147.273 6.61073 147.749 8.48515 147.749 10.6803 147.749 12.8816 147.275 14.756 146.326 16.3036 145.378 17.8512 144.013 18.8591 142.231 19.3273L142.012 18.625C143.417 18.1567 144.461 17.2325 145.145 15.8521 145.829 14.4718 146.171 12.7174 146.171 10.5891 146.171 8.5338 145.831 6.8266 145.15 5.46753 144.469 4.10846 143.414 3.19481 141.985 2.72659ZM131.378 2.02425 131.624 2.72659C130.201 3.19481 129.148 4.10846 128.464 5.46753 127.779 6.8266 127.437 8.5338 127.437 10.5891 127.437 12.7174 127.779 14.4718 128.464 15.8521 129.148 17.2325 130.192 18.1567 131.597 18.625L131.378 19.3273C129.596 18.8591 128.231 17.8512 127.282 16.3036 126.334 14.756 125.859 12.8816 125.859 10.6803 125.859 8.48515 126.335 6.61073 127.287 5.05707 128.239 3.50341 129.602 2.49247 131.378 2.02425Z" fill-rule="evenodd" transform="matrix(1 0 0 1.00032 163.671 132.845)"/><text font-family="Cambria Math,Cambria Math_MSFontService,sans-serif" font-weight="400" font-size="18.6804" transform="matrix(1 0 0 1.00032 295.638 149)">𝒛</text><text font-family="Cambria Math,Cambria Math_MSFontService,sans-serif" font-weight="400" font-size="18.6804" transform="matrix(1 0 0 1.00032 313.059 149)"></text><text font-family="Yu Gothic,Yu Gothic_MSFontService,sans-serif" font-weight="700" font-size="18.6804" transform="matrix(1 0 0 1.00032 317.227 149)">のグラフが</text><text fill="#FF0000" font-family="Yu Gothic,Yu Gothic_MSFontService,sans-serif" font-weight="700" font-size="18.6804" transform="matrix(1 0 0 1.00032 410.599 149)">ある領域内全体で</text><text font-family="Yu Gothic,Yu Gothic_MSFontService,sans-serif" font-weight="700" font-size="18.6804" transform="matrix(1 0 0 1.00032 559.993 149)">途切れていないこと</text><text font-family="Yu Gothic,Yu Gothic_MSFontService,sans-serif" font-weight="700" font-size="18.6804" transform="matrix(1 0 0 1.00032 163.671 175)">・任意の</text><text font-family="Cambria Math,Cambria Math_MSFontService,sans-serif" font-weight="400" font-size="18.6804" transform="matrix(1 0 0 1.00032 238.368 175)">𝛆</text><text font-family="Cambria Math,Cambria Math_MSFontService,sans-serif" font-weight="400" font-size="18.6804" transform="matrix(1 0 0 1.00032 252.894 175)">&gt;</text><text font-family="Cambria Math,Cambria Math_MSFontService,sans-serif" font-weight="400" font-size="18.6804" transform="matrix(1 0 0 1.00032 272.089 175)">0</text><text font-family="Cambria Math,Cambria Math_MSFontService,sans-serif" font-weight="400" font-size="18.6804" transform="matrix(1 0 0 1.00032 282.426 175)"></text><text font-family="Yu Gothic,Yu Gothic_MSFontService,sans-serif" font-weight="700" font-size="18.6804" transform="matrix(1 0 0 1.00032 286.595 175)">に対して</text><text font-family="Cambria Math,Cambria Math_MSFontService,sans-serif" font-weight="400" font-size="18.6804" transform="matrix(1 0 0 1.00032 359.124 175)"></text><path d="M254.43 7.18898 255.834 7.18898 255.834 24.1637 254.43 24.1637ZM201.875 7.18898 203.279 7.18898 203.279 24.1637 201.875 24.1637Z" fill-rule="evenodd" transform="matrix(1 0 0 1.00032 163.671 153.852)"/><text font-family="Cambria Math,Cambria Math_MSFontService,sans-serif" font-weight="400" font-size="18.6804" transform="matrix(1 0 0 1.00032 369.202 175)">𝒛</text><text font-family="Cambria Math,Cambria Math_MSFontService,sans-serif" font-weight="400" font-size="18.6804" transform="matrix(1 0 0 1.00032 383.021 175)">−</text><text font-family="Cambria Math,Cambria Math_MSFontService,sans-serif" font-weight="400" font-size="18.6804" transform="matrix(1 0 0 1.00032 401.175 175)">𝒘</text><text font-family="Cambria Math,Cambria Math_MSFontService,sans-serif" font-weight="400" font-size="18.6804" transform="matrix(1 0 0 1.00032 426.945 175)">&lt;</text><text font-family="Cambria Math,Cambria Math_MSFontService,sans-serif" font-weight="400" font-size="18.6804" transform="matrix(1 0 0 1.00032 446.14 175)">𝜹</text><text font-family="Yu Gothic,Yu Gothic_MSFontService,sans-serif" font-weight="700" font-size="18.6804" transform="matrix(1 0 0 1.00032 462.313 175)">となる</text><text font-family="Cambria Math,Cambria Math_MSFontService,sans-serif" font-weight="400" font-size="18.6804" transform="matrix(1 0 0 1.00032 518.336 175)"></text><text font-family="Cambria Math,Cambria Math_MSFontService,sans-serif" font-weight="400" font-size="18.6804" transform="matrix(1 0 0 1.00032 522.505 175)">𝜹</text><text font-family="Yu Gothic,Yu Gothic_MSFontService,sans-serif" font-weight="700" font-size="18.6804" transform="matrix(1 0 0 1.00032 538.678 175)">が存在し</text><path d="M125.49 7.18898 126.895 7.18898 126.895 24.1637 125.49 24.1637ZM20.9273 7.18898 22.332 7.18898 22.332 24.1637 20.9273 24.1637Z" fill-rule="evenodd" transform="matrix(1 0 0 1.00032 163.671 179.86)"/><text font-family="Cambria Math,Cambria Math_MSFontService,sans-serif" font-weight="400" font-size="18.6804" transform="matrix(1 0 0 1.00032 188.254 201)">𝒇</text><path d="M53.1011 7.02792C54.8767 7.49615 56.2403 8.50709 57.192 10.0607 58.1436 11.6144 58.6195 13.4888 58.6195 15.684 58.6195 17.8853 58.1451 19.7597 57.1965 21.3073 56.2479 22.8549 54.8828 23.8628 53.1011 24.331L52.8822 23.6286C54.2868 23.1604 55.3312 22.2361 56.0153 20.8558 56.6994 19.4754 57.0415 17.7211 57.0415 15.5928 57.0415 13.5375 56.7009 11.8303 56.0199 10.4712 55.3388 9.11213 54.2838 8.19848 52.8548 7.73026ZM42.2479 7.02792 42.4942 7.73026C41.0713 8.19848 40.0178 9.11213 39.3337 10.4712 38.6496 11.8303 38.3075 13.5375 38.3075 15.5928 38.3075 17.7211 38.6496 19.4754 39.3337 20.8558 40.0178 22.2361 41.0622 23.1604 42.4668 23.6286L42.2479 24.331C40.4662 23.8628 39.1011 22.8549 38.1525 21.3073 37.2039 19.7597 36.7295 17.8853 36.7295 15.684 36.7295 13.4888 37.2054 11.6144 38.157 10.0607 39.1087 8.50709 40.4723 7.49615 42.2479 7.02792Z" fill-rule="evenodd" transform="matrix(1 0 0 1.00032 163.671 179.86)"/><text font-family="Cambria Math,Cambria Math_MSFontService,sans-serif" font-weight="400" font-size="18.6804" transform="matrix(1 0 0 1.00032 206.508 201)">𝒛</text><text font-family="Cambria Math,Cambria Math_MSFontService,sans-serif" font-weight="400" font-size="18.6804" transform="matrix(1 0 0 1.00032 228.077 201)">−</text><text font-family="Cambria Math,Cambria Math_MSFontService,sans-serif" font-weight="400" font-size="18.6804" transform="matrix(1 0 0 1.00032 246.231 201)">𝒇</text><path d="M116.08 7.02792C117.856 7.49615 119.219 8.50709 120.171 10.0607 121.123 11.6144 121.599 13.4888 121.599 15.684 121.599 17.8853 121.124 19.7597 120.176 21.3073 119.227 22.8549 117.862 23.8628 116.08 24.331L115.861 23.6286C117.266 23.1604 118.31 22.2361 118.994 20.8558 119.679 19.4754 120.021 17.7211 120.021 15.5928 120.021 13.5375 119.68 11.8303 118.999 10.4712 118.318 9.11213 117.263 8.19848 115.834 7.73026ZM100.225 7.02792 100.471 7.73026C99.0484 8.19848 97.9949 9.11213 97.3108 10.4712 96.6267 11.8303 96.2846 13.5375 96.2846 15.5928 96.2846 17.7211 96.6267 19.4754 97.3108 20.8558 97.9949 22.2361 99.0393 23.1604 100.444 23.6286L100.225 24.331C98.4433 23.8628 97.0782 22.8549 96.1296 21.3073 95.181 19.7597 94.7067 17.8853 94.7067 15.684 94.7067 13.4888 95.1825 11.6144 96.1341 10.0607 97.0858 8.50709 98.4494 7.49615 100.225 7.02792Z" fill-rule="evenodd" transform="matrix(1 0 0 1.00032 163.671 179.86)"/><text font-family="Cambria Math,Cambria Math_MSFontService,sans-serif" font-weight="400" font-size="18.6804" transform="matrix(1 0 0 1.00032 264.485 201)">𝒘</text><text font-family="Cambria Math,Cambria Math_MSFontService,sans-serif" font-weight="400" font-size="18.6804" transform="matrix(1 0 0 1.00032 298.006 201)">&lt;</text><text font-family="Cambria Math,Cambria Math_MSFontService,sans-serif" font-weight="400" font-size="18.6804" transform="matrix(1 0 0 1.00032 317.2 201)">𝜺</text><text font-family="Yu Gothic,Yu Gothic_MSFontService,sans-serif" font-weight="700" font-size="18.6804" transform="matrix(1 0 0 1.00032 332.207 201)">となる</text><text fill="#FFFFFF" font-family="Yu Gothic,Yu Gothic_MSFontService,sans-serif" font-weight="700" font-size="18.6804" transform="matrix(1 0 0 1.00032 23.4528 149)">一様連続</text><text fill="#FFFFFF" font-family="Yu Gothic,Yu Gothic_MSFontService,sans-serif" font-weight="700" font-size="18.6804" transform="matrix(1 0 0 1.00032 23.4528 175)">Uniform</text><text fill="#FFFFFF" font-family="Yu Gothic,Yu Gothic_MSFontService,sans-serif" font-weight="700" font-size="18.6804" transform="matrix(1 0 0 1.00032 23.4528 201)">Continuity</text></g></svg>