<svg width="813" height="170" xmlns="http://www.w3.org/2000/svg" xmlns:xlink="http://www.w3.org/1999/xlink" overflow="hidden"><g><rect x="0" y="0" width="813" height="169.93" fill="#FFFFFF"/><path d="M19.6717 22.8647 159.89 22.8647 159.89 88.65 19.6717 88.65Z" fill="#2E75B6" fill-rule="evenodd"/><path d="M159.89 22.8647 793.328 22.8647 793.328 88.65 159.89 88.65Z" fill="#FFFFFF" fill-rule="evenodd"/><path d="M19.6717 88.65 159.89 88.65 159.89 147.135 19.6717 147.135Z" fill="#2E75B6" fill-rule="evenodd"/><path d="M159.89 88.65 793.328 88.65 793.328 147.135 159.89 147.135Z" fill="#FFFFFF" fill-rule="evenodd"/><path d="M159.89 22.198 159.89 147.802" stroke="#000000" stroke-width="1.33388" stroke-linejoin="round" stroke-miterlimit="10" fill="none" fill-rule="evenodd"/><path d="M19.0047 88.65 159.89 88.65" stroke="#FFFFFF" stroke-width="1.33388" stroke-linejoin="round" stroke-miterlimit="10" fill="none" fill-rule="evenodd"/><path d="M159.89 88.65 793.995 88.65" stroke="#000000" stroke-width="1.33388" stroke-linejoin="round" stroke-miterlimit="10" fill="none" fill-rule="evenodd"/><path d="M19.6717 22.198 19.6717 147.802" stroke="#000000" stroke-width="1.33388" stroke-linejoin="round" stroke-miterlimit="10" fill="none" fill-rule="evenodd"/><path d="M793.328 22.198 793.328 147.802" stroke="#000000" stroke-width="1.33388" stroke-linejoin="round" stroke-miterlimit="10" fill="none" fill-rule="evenodd"/><path d="M19.0047 22.8647 793.995 22.8647" stroke="#000000" stroke-width="1.33388" stroke-linejoin="round" stroke-miterlimit="10" fill="none" fill-rule="evenodd"/><path d="M19.0047 147.135 793.995 147.135" stroke="#000000" stroke-width="1.33388" stroke-linejoin="round" stroke-miterlimit="10" fill="none" fill-rule="evenodd"/><text font-family="Yu Gothic,Yu Gothic_MSFontService,sans-serif" font-weight="400" font-size="18.6667" transform="matrix(1 0 0 0.99959 163.671 69)">点</text><text font-family="Cambria Math,Cambria Math_MSFontService,sans-serif" font-weight="400" font-size="18.6667" transform="matrix(1 0 0 0.99959 182.345 69)">𝒛</text><text font-family="Cambria Math,Cambria Math_MSFontService,sans-serif" font-weight="400" font-size="13.6267" transform="matrix(1 0 0 0.99959 192.016 72)">𝟎</text><text font-family="Yu Gothic,Yu Gothic_MSFontService,sans-serif" font-weight="400" font-size="18.6667" transform="matrix(1 0 0 0.99959 200.959 69)">に</text><text font-family="Yu Gothic,Yu Gothic_MSFontService,sans-serif" font-weight="700" font-size="18.6667" transform="matrix(1 0 0 0.99959 219.634 69)">おいて</text><text font-family="Yu Gothic,Yu Gothic_MSFontService,sans-serif" font-weight="700" font-size="18.6667" transform="matrix(1 0 0 0.99959 279.825 69)">極限</text><text font-family="Cambria Math,Cambria Math_MSFontService,sans-serif" font-weight="400" font-size="18.6667" transform="matrix(1 0 0 0.99959 320.708 69)">lim</text><text font-family="Cambria Math,Cambria Math_MSFontService,sans-serif" font-weight="400" font-size="13.6267" transform="matrix(1 0 0 0.99959 317.174 80)">𝒛</text><text font-family="Cambria Math,Cambria Math_MSFontService,sans-serif" font-weight="400" font-size="13.6267" transform="matrix(1 0 0 0.99959 324.177 80)">→</text><text font-family="Cambria Math,Cambria Math_MSFontService,sans-serif" font-weight="400" font-size="13.6267" transform="matrix(1 0 0 0.99959 335.681 80)">𝒛</text><text font-family="Cambria Math,Cambria Math_MSFontService,sans-serif" font-weight="400" font-size="11.2" transform="matrix(1 0 0 0.99959 342.684 83)">𝟎</text><text font-family="Cambria Math,Cambria Math_MSFontService,sans-serif" font-weight="400" font-size="13.6267" transform="matrix(1 0 0 0.99959 353.035 58)">𝒇</text><path d="M210.039-2.13364C211.334-1.79223 212.328-1.05509 213.022 0.0777874 213.716 1.21066 214.063 2.57742 214.063 4.17808 214.063 5.78317 213.717 7.14993 213.025 8.27837 212.334 9.40681 211.338 10.1417 210.039 10.4831L209.879 9.97103C210.904 9.62961 211.665 8.95565 212.164 7.94915 212.663 6.94264 212.912 5.66345 212.912 4.11157 212.912 2.6129 212.664 1.36807 212.167 0.377079 211.671-0.613908 210.901-1.28011 209.859-1.62152ZM202.174-2.13364 202.354-1.62152C201.316-1.28011 200.548-0.613908 200.049 0.377079 199.551 1.36807 199.301 2.6129 199.301 4.11157 199.301 5.66345 199.551 6.94264 200.049 7.94915 200.548 8.95565 201.31 9.62961 202.334 9.97103L202.174 10.4831C200.875 10.1417 199.88 9.40681 199.188 8.27837 198.496 7.14993 198.15 5.78317 198.15 4.17808 198.15 2.57742 198.497 1.21066 199.191 0.0777874 199.885-1.05509 200.88-1.79223 202.174-2.13364Z" fill-rule="evenodd" transform="matrix(1.00041 0 0 1 163.671 49.5137)"/><text font-family="Cambria Math,Cambria Math_MSFontService,sans-serif" font-weight="400" font-size="13.6267" transform="matrix(1 0 0 0.99959 366.361 58)">𝒛</text><text font-family="Cambria Math,Cambria Math_MSFontService,sans-serif" font-weight="400" font-size="13.6267" transform="matrix(1 0 0 0.99959 379.019 58)">−</text><text font-family="Cambria Math,Cambria Math_MSFontService,sans-serif" font-weight="400" font-size="13.6267" transform="matrix(1 0 0 0.99959 389.19 58)">𝒇</text><path d="M253.412-2.13364C254.707-1.79223 255.701-1.05509 256.395 0.0777874 257.089 1.21066 257.436 2.57742 257.436 4.17808 257.436 5.78317 257.09 7.14993 256.399 8.27837 255.707 9.40681 254.711 10.1417 253.412 10.4831L253.253 9.97103C254.277 9.62961 255.038 8.95565 255.537 7.94915 256.036 6.94264 256.285 5.66345 256.285 4.11157 256.285 2.6129 256.037 1.36807 255.541 0.377079 255.044-0.613908 254.275-1.28011 253.233-1.62152ZM238.314-2.13364 238.494-1.62152C237.456-1.28011 236.688-0.613908 236.189 0.377079 235.691 1.36807 235.441 2.6129 235.441 4.11157 235.441 5.66345 235.691 6.94264 236.189 7.94915 236.688 8.95565 237.45 9.62961 238.474 9.97103L238.314 10.4831C237.015 10.1417 236.02 9.40681 235.328 8.27837 234.636 7.14993 234.29 5.78317 234.29 4.17808 234.29 2.57742 234.637 1.21066 235.331 0.0777874 236.025-1.05509 237.02-1.79223 238.314-2.13364Z" fill-rule="evenodd" transform="matrix(1.00041 0 0 1 163.671 49.5137)"/><text font-family="Cambria Math,Cambria Math_MSFontService,sans-serif" font-weight="400" font-size="13.6267" transform="matrix(1 0 0 0.99959 402.515 58)">𝒛</text><text font-family="Cambria Math,Cambria Math_MSFontService,sans-serif" font-weight="400" font-size="11.2" transform="matrix(1 0 0 0.99959 409.518 60)">𝟎</text><text font-family="Cambria Math,Cambria Math_MSFontService,sans-serif" font-weight="400" font-size="13.6267" transform="matrix(1 0 0 0.99959 372.016 78)">𝒛</text><text font-family="Cambria Math,Cambria Math_MSFontService,sans-serif" font-weight="400" font-size="13.6267" transform="matrix(1 0 0 0.99959 379.019 78)">−</text><text font-family="Cambria Math,Cambria Math_MSFontService,sans-serif" font-weight="400" font-size="13.6267" transform="matrix(1 0 0 0.99959 389.19 78)">𝒛</text><text font-family="Cambria Math,Cambria Math_MSFontService,sans-serif" font-weight="400" font-size="11.2" transform="matrix(1 0 0 0.99959 396.193 81)">𝟎</text><path d="M188.923 12.9947 257.894 12.9947 257.894 13.9943 188.923 13.9943Z" fill-rule="evenodd" transform="matrix(1.00041 0 0 1 163.671 49.5137)"/><text font-family="Cambria Math,Cambria Math_MSFontService,sans-serif" font-weight="400" font-size="18.6667" transform="matrix(1 0 0 0.99959 425.525 69)"></text><text font-family="Yu Gothic,Yu Gothic_MSFontService,sans-serif" font-weight="400" font-size="18.6667" transform="matrix(1 0 0 0.99959 429.693 69)">が存在する</text><text fill="#FFFFFF" font-family="Yu Gothic,Yu Gothic_MSFontService,sans-serif" font-weight="700" font-size="18.6667" transform="matrix(1 0 0 0.99959 23.4528 45)">微分可能</text><text fill="#FFFFFF" font-family="Yu Gothic,Yu Gothic_MSFontService,sans-serif" font-weight="700" font-size="18.6667" transform="matrix(1 0 0 0.99959 23.4528 71)">Differentiable</text><text font-family="Yu Gothic,Yu Gothic_MSFontService,sans-serif" font-weight="700" font-size="18.6667" transform="matrix(1 0 0 0.99959 163.671 110)">点</text><text font-family="Cambria Math,Cambria Math_MSFontService,sans-serif" font-weight="400" font-size="18.6667" transform="matrix(1 0 0 0.99959 182.345 110)">𝒛</text><text font-family="Cambria Math,Cambria Math_MSFontService,sans-serif" font-weight="400" font-size="13.6267" transform="matrix(1 0 0 0.99959 192.016 114)">𝟎</text><text font-family="Yu Gothic,Yu Gothic_MSFontService,sans-serif" font-weight="700" font-size="18.6667" transform="matrix(1 0 0 0.99959 200.959 110)">の近傍全体で微分可能であること。</text><text font-family="Yu Gothic,Yu Gothic_MSFontService,sans-serif" font-weight="700" font-size="18.6667" transform="matrix(1 0 0 0.99959 163.671 136)">微分可能性が点だけでなく、開集合上で連続的に成立している必要がある</text><text fill="#FFFFFF" font-family="Yu Gothic,Yu Gothic_MSFontService,sans-serif" font-weight="700" font-size="18.6667" transform="matrix(1 0 0 0.99959 23.4528 110)">正則</text><text fill="#FFFFFF" font-family="Yu Gothic,Yu Gothic_MSFontService,sans-serif" font-weight="700" font-size="18.6667" transform="matrix(1 0 0 0.99959 23.4528 131)">(holomorphic)</text></g></svg>