<svg width="832" height="284" xmlns="http://www.w3.org/2000/svg" xmlns:xlink="http://www.w3.org/1999/xlink" overflow="hidden"><defs><clipPath id="clip0"><rect x="0" y="0" width="832" height="284"/></clipPath></defs><g clip-path="url(#clip0)"><rect x="0" y="0" width="832" height="284.33" fill="#FFFFFF"/><path d="M25.6615 21.8271 236.955 21.8271 236.955 50.7704 25.6615 50.7704Z" fill="#2E75B6" fill-rule="evenodd"/><path d="M236.955 21.8271 521.647 21.8271 521.647 50.7704 236.955 50.7704Z" fill="#2E75B6" fill-rule="evenodd"/><path d="M521.647 21.8271 806.338 21.8271 806.338 50.7704 521.647 50.7704Z" fill="#2E75B6" fill-rule="evenodd"/><path d="M236.955 21.1592 236.955 50.7704" stroke="#FFFFFF" stroke-width="1.33414" stroke-linejoin="round" stroke-miterlimit="10" fill="none" fill-rule="evenodd"/><path d="M236.955 50.7704 236.955 258.587" stroke="#000000" stroke-width="1.33414" stroke-linejoin="round" stroke-miterlimit="10" fill="none" fill-rule="evenodd"/><path d="M521.647 21.1592 521.647 50.7704" stroke="#FFFFFF" stroke-width="1.33414" stroke-linejoin="round" stroke-miterlimit="10" fill="none" fill-rule="evenodd"/><path d="M521.647 50.7704 521.647 258.587" stroke="#000000" stroke-width="1.33414" stroke-linejoin="round" stroke-miterlimit="10" fill="none" fill-rule="evenodd"/><path d="M24.9944 50.7704 807.005 50.7704" stroke="#000000" stroke-width="1.33414" stroke-linejoin="round" stroke-miterlimit="10" fill="none" fill-rule="evenodd"/><path d="M24.9944 79.7138 807.005 79.7138" stroke="#000000" stroke-width="1.33414" stroke-linejoin="round" stroke-miterlimit="10" fill="none" fill-rule="evenodd"/><path d="M24.9944 186.234 807.005 186.234" stroke="#000000" stroke-width="1.33414" stroke-linejoin="round" stroke-miterlimit="10" fill="none" fill-rule="evenodd"/><path d="M25.6615 21.1592 25.6615 258.587" stroke="#000000" stroke-width="1.33414" stroke-linejoin="round" stroke-miterlimit="10" fill="none" fill-rule="evenodd"/><path d="M806.338 21.1592 806.338 258.587" stroke="#000000" stroke-width="1.33414" stroke-linejoin="round" stroke-miterlimit="10" fill="none" fill-rule="evenodd"/><path d="M24.9944 21.8271 807.005 21.8271" stroke="#000000" stroke-width="1.33414" stroke-linejoin="round" stroke-miterlimit="10" fill="none" fill-rule="evenodd"/><path d="M24.9944 257.919 807.005 257.919" stroke="#000000" stroke-width="1.33414" stroke-linejoin="round" stroke-miterlimit="10" fill="none" fill-rule="evenodd"/><text fill="#FFFFFF" font-family="Yu Gothic,Yu Gothic_MSFontService,sans-serif" font-weight="700" font-size="19" transform="matrix(1 0 0 1.00116 525.429 42)">disc</text><text fill="#FFFFFF" font-family="Yu Gothic,Yu Gothic_MSFontService,sans-serif" font-weight="700" font-size="19" transform="matrix(1 0 0 1.00116 240.737 42)">disk</text><text fill="#FFFFFF" font-family="Yu Gothic,Yu Gothic_MSFontService,sans-serif" font-weight="700" font-size="19" transform="matrix(1 0 0 1.00116 29.4433 42)">着目点</text><text font-family="Yu Gothic,Yu Gothic_MSFontService,sans-serif" font-weight="700" font-size="19" transform="matrix(1 0 0 1.00116 525.429 71)">光学式</text><text font-family="Yu Gothic,Yu Gothic_MSFontService,sans-serif" font-weight="700" font-size="19" transform="matrix(1 0 0 1.00116 240.737 71)">磁気式</text><text font-family="Yu Gothic,Yu Gothic_MSFontService,sans-serif" font-weight="700" font-size="19" transform="matrix(1 0 0 1.00116 29.4433 71)">アクセス方式</text><text font-family="Yu Gothic,Yu Gothic_MSFontService,sans-serif" font-weight="700" font-size="19" transform="matrix(1 0 0 1.00116 525.429 100)">・読み出し専用</text><text font-family="Yu Gothic,Yu Gothic_MSFontService,sans-serif" font-weight="700" font-size="19" transform="matrix(1 0 0 1.00116 525.429 126)">・一度だけ書き込めるもの</text><text font-family="Yu Gothic,Yu Gothic_MSFontService,sans-serif" font-weight="700" font-size="19" transform="matrix(1 0 0 1.00116 525.429 152)">・何度も書き換えできるもの</text><text font-family="Yu Gothic,Yu Gothic_MSFontService,sans-serif" font-weight="700" font-size="19" transform="matrix(1 0 0 1.00116 525.429 178)">などがある</text><text font-family="Yu Gothic,Yu Gothic_MSFontService,sans-serif" font-weight="700" font-size="19" transform="matrix(1 0 0 1.00116 240.737 100)">通常書き換え可能</text><text font-family="Yu Gothic,Yu Gothic_MSFontService,sans-serif" font-weight="700" font-size="19" transform="matrix(1 0 0 1.00116 29.4433 100)">ロック</text><text font-family="Yu Gothic,Yu Gothic_MSFontService,sans-serif" font-weight="700" font-size="19" transform="matrix(1 0 0 1.00116 525.429 206)">取り出し可能</text><text font-family="Yu Gothic,Yu Gothic_MSFontService,sans-serif" font-weight="700" font-size="19" transform="matrix(1 0 0 1.00116 240.737 206)">disk</text><text font-family="Yu Gothic,Yu Gothic_MSFontService,sans-serif" font-weight="700" font-size="19" transform="matrix(1 0 0 1.00116 278.26 206)">の着脱はできない。</text><text font-family="Yu Gothic,Yu Gothic_MSFontService,sans-serif" font-weight="700" font-size="19" transform="matrix(1 0 0 1.00116 446.361 206)">金属</text><text font-family="Yu Gothic,Yu Gothic_MSFontService,sans-serif" font-weight="700" font-size="19" transform="matrix(1 0 0 1.00116 483.717 206)">ま</text><text font-family="Yu Gothic,Yu Gothic_MSFontService,sans-serif" font-weight="700" font-size="19" transform="matrix(1 0 0 1.00116 240.737 227)">たはプラスチックの</text><text font-family="Yu Gothic,Yu Gothic_MSFontService,sans-serif" font-weight="700" font-size="19" transform="matrix(1 0 0 1.00116 408.838 227)">ケースに</text><text font-family="Yu Gothic,Yu Gothic_MSFontService,sans-serif" font-weight="700" font-size="19" transform="matrix(1 0 0 1.00116 240.737 249)">入っ</text><text font-family="Yu Gothic,Yu Gothic_MSFontService,sans-serif" font-weight="700" font-size="19" transform="matrix(1 0 0 1.00116 278.093 249)">たユニット単位で着脱する</text><text font-family="Yu Gothic,Yu Gothic_MSFontService,sans-serif" font-weight="700" font-size="19" transform="matrix(1 0 0 1.00116 29.4433 206)">着脱</text></g></svg>