<svg width="832" height="96" xmlns="http://www.w3.org/2000/svg" xmlns:xlink="http://www.w3.org/1999/xlink" overflow="hidden"><defs><clipPath id="clip0"><rect x="0" y="0" width="832" height="96"/></clipPath></defs><g clip-path="url(#clip0)"><rect x="0" y="0" width="832" height="95.9423" fill="#FFFFFF"/><path d="M22.6074 15.3281 120.072 15.3281 120.072 48 22.6074 48Z" fill="#2E75B6" fill-rule="evenodd"/><path d="M120.072 15.3281 796.412 15.3281 796.412 48 120.072 48Z" fill="#FFFFFF" fill-rule="evenodd"/><path d="M22.6074 48 120.072 48 120.072 80.6719 22.6074 80.6719Z" fill="#2E75B6" fill-rule="evenodd"/><path d="M120.072 48 796.412 48 796.412 80.6719 120.072 80.6719Z" fill="#FFFFFF" fill-rule="evenodd"/><path d="M120.072 14.6614 120.072 81.3386" stroke="#000000" stroke-width="1.33414" stroke-linejoin="round" stroke-miterlimit="10" fill="none" fill-rule="evenodd"/><path d="M21.9403 48 120.072 48" stroke="#FFFFFF" stroke-width="1.33414" stroke-linejoin="round" stroke-miterlimit="10" fill="none" fill-rule="evenodd"/><path d="M120.072 48 797.079 48" stroke="#000000" stroke-width="1.33414" stroke-linejoin="round" stroke-miterlimit="10" fill="none" fill-rule="evenodd"/><path d="M22.6074 14.6614 22.6074 81.3386" stroke="#000000" stroke-width="1.33414" stroke-linejoin="round" stroke-miterlimit="10" fill="none" fill-rule="evenodd"/><path d="M796.412 14.6614 796.412 81.3386" stroke="#000000" stroke-width="1.33414" stroke-linejoin="round" stroke-miterlimit="10" fill="none" fill-rule="evenodd"/><path d="M21.9403 15.3281 797.079 15.3281" stroke="#000000" stroke-width="1.33414" stroke-linejoin="round" stroke-miterlimit="10" fill="none" fill-rule="evenodd"/><path d="M21.9403 80.6719 797.079 80.6719" stroke="#000000" stroke-width="1.33414" stroke-linejoin="round" stroke-miterlimit="10" fill="none" fill-rule="evenodd"/><text font-family="Yu Gothic,Yu Gothic_MSFontService,sans-serif" font-weight="700" font-size="18.6667" transform="matrix(1 0 0 0.999399 123.854 37)">『</text><text font-family="Yu Gothic,Yu Gothic_MSFontService,sans-serif" font-weight="700" font-size="18.6667" transform="matrix(1 0 0 0.999399 142.532 37)">2</text><text font-family="Yu Gothic,Yu Gothic_MSFontService,sans-serif" font-weight="700" font-size="18.6667" transform="matrix(1 0 0 0.999399 153.205 37)">点間の距離</text><text font-family="Yu Gothic,Yu Gothic_MSFontService,sans-serif" font-weight="700" font-size="18.6667" transform="matrix(1 0 0 0.999399 246.594 37)">』</text><text font-family="Yu Gothic,Yu Gothic_MSFontService,sans-serif" font-weight="700" font-size="18.6667" transform="matrix(1 0 0 0.999399 265.272 37)">そのもの</text><text font-family="Yu Gothic,Yu Gothic_MSFontService,sans-serif" font-weight="700" font-size="18.6667" transform="matrix(1 0 0 0.999399 339.984 37)">(</text><text font-family="Yu Gothic,Yu Gothic_MSFontService,sans-serif" font-weight="700" font-size="18.6667" transform="matrix(1 0 0 0.999399 347.488 37)">数値</text><text font-family="Yu Gothic,Yu Gothic_MSFontService,sans-serif" font-weight="700" font-size="18.6667" transform="matrix(1 0 0 0.999399 384.844 37)">)</text><text fill="#FFFFFF" font-family="Yu Gothic,Yu Gothic_MSFontService,sans-serif" font-weight="700" font-size="18.6667" transform="matrix(1 0 0 0.999399 26.3892 37)">distance</text><text font-family="Yu Gothic,Yu Gothic_MSFontService,sans-serif" font-weight="700" font-size="18.6667" transform="matrix(1 0 0 0.999399 129.19 70)">距離をどう測るか？を決める</text><text font-family="Yu Gothic,Yu Gothic_MSFontService,sans-serif" font-weight="700" font-size="18.6667" transform="matrix(1 0 0 0.999399 372.003 70)">『</text><text font-family="Yu Gothic,Yu Gothic_MSFontService,sans-serif" font-weight="700" font-size="18.6667" transform="matrix(1 0 0 0.999399 390.681 70)">ルール</text><text font-family="Yu Gothic,Yu Gothic_MSFontService,sans-serif" font-weight="700" font-size="18.6667" transform="matrix(1 0 0 0.999399 446.715 70)">(</text><text font-family="Yu Gothic,Yu Gothic_MSFontService,sans-serif" font-weight="700" font-size="18.6667" transform="matrix(1 0 0 0.999399 454.219 70)">関数</text><text font-family="Yu Gothic,Yu Gothic_MSFontService,sans-serif" font-weight="700" font-size="18.6667" transform="matrix(1 0 0 0.999399 491.575 70)">)</text><text font-family="Yu Gothic,Yu Gothic_MSFontService,sans-serif" font-weight="700" font-size="18.6667" transform="matrix(1 0 0 0.999399 499.079 70)">』</text><text fill="#FFFFFF" font-family="Yu Gothic,Yu Gothic_MSFontService,sans-serif" font-weight="700" font-size="18.6667" transform="matrix(1 0 0 0.999399 26.3892 70)">metric</text></g></svg>