<svg width="813" height="151" xmlns="http://www.w3.org/2000/svg" xmlns:xlink="http://www.w3.org/1999/xlink" overflow="hidden"><g><rect x="0" y="0" width="813" height="150.772" fill="#FFFFFF"/><path d="M19.6717 17.0792 145.93 17.0792 145.93 75.5 19.6717 75.5Z" fill="#2E75B6" fill-rule="evenodd"/><path d="M145.93 17.0792 793.328 17.0792 793.328 75.5 145.93 75.5Z" fill="#FFFFFF" fill-rule="evenodd"/><path d="M19.6717 75.5 145.93 75.5 145.93 133.921 19.6717 133.921Z" fill="#2E75B6" fill-rule="evenodd"/><path d="M145.93 75.5 793.328 75.5 793.328 133.921 145.93 133.921Z" fill="#FFFFFF" fill-rule="evenodd"/><path d="M145.93 16.4133 145.93 134.587" stroke="#000000" stroke-width="1.33388" stroke-linejoin="round" stroke-miterlimit="10" fill="none" fill-rule="evenodd"/><path d="M19.0047 75.5 145.93 75.5" stroke="#FFFFFF" stroke-width="1.33388" stroke-linejoin="round" stroke-miterlimit="10" fill="none" fill-rule="evenodd"/><path d="M145.93 75.5 793.995 75.5" stroke="#000000" stroke-width="1.33388" stroke-linejoin="round" stroke-miterlimit="10" fill="none" fill-rule="evenodd"/><path d="M19.6717 16.4133 19.6717 134.587" stroke="#000000" stroke-width="1.33388" stroke-linejoin="round" stroke-miterlimit="10" fill="none" fill-rule="evenodd"/><path d="M793.328 16.4133 793.328 134.587" stroke="#000000" stroke-width="1.33388" stroke-linejoin="round" stroke-miterlimit="10" fill="none" fill-rule="evenodd"/><path d="M19.0047 17.0792 793.995 17.0792" stroke="#000000" stroke-width="1.33388" stroke-linejoin="round" stroke-miterlimit="10" fill="none" fill-rule="evenodd"/><path d="M19.0047 133.921 793.995 133.921" stroke="#000000" stroke-width="1.33388" stroke-linejoin="round" stroke-miterlimit="10" fill="none" fill-rule="evenodd"/><text font-family="Yu Gothic,Yu Gothic_MSFontService,sans-serif" font-weight="700" font-size="18.6461" transform="matrix(1 0 0 0.998488 149.711 39)">違って見えても中身は同じことに注目</text><text font-family="Yu Gothic,Yu Gothic_MSFontService,sans-serif" font-weight="700" font-size="18.6461" transform="matrix(1 0 0 0.998488 149.711 65)">(</text><text font-family="Yu Gothic,Yu Gothic_MSFontService,sans-serif" font-weight="700" font-size="18.6461" transform="matrix(1 0 0 0.998488 157.214 65)">例</text><text font-family="Yu Gothic,Yu Gothic_MSFontService,sans-serif" font-weight="700" font-size="18.6461" transform="matrix(1 0 0 0.998488 175.888 65)">)</text><text font-family="Yu Gothic,Yu Gothic_MSFontService,sans-serif" font-weight="700" font-size="18.6461" transform="matrix(1 0 0 0.998488 188.727 65)">a+b=b+a</text><text fill="#FFFFFF" font-family="Yu Gothic,Yu Gothic_MSFontService,sans-serif" font-weight="700" font-size="18.6461" transform="matrix(1 0 0 0.998488 23.4528 39)">等価性</text><text fill="#FFFFFF" font-family="Yu Gothic,Yu Gothic_MSFontService,sans-serif" font-weight="700" font-size="18.6461" transform="matrix(1 0 0 0.998488 23.4528 65)">Equivalence</text><text font-family="Yu Gothic,Yu Gothic_MSFontService,sans-serif" font-weight="700" font-size="18.6461" transform="matrix(1 0 0 0.998488 149.711 97)">変化しないことに注目</text><text font-family="Yu Gothic,Yu Gothic_MSFontService,sans-serif" font-weight="700" font-size="18.6461" transform="matrix(1 0 0 0.998488 149.711 123)">(</text><text font-family="Yu Gothic,Yu Gothic_MSFontService,sans-serif" font-weight="700" font-size="18.6461" transform="matrix(1 0 0 0.998488 157.214 123)">例</text><text font-family="Yu Gothic,Yu Gothic_MSFontService,sans-serif" font-weight="700" font-size="18.6461" transform="matrix(1 0 0 0.998488 175.888 123)">)</text><text font-family="Yu Gothic,Yu Gothic_MSFontService,sans-serif" font-weight="700" font-size="18.6461" transform="matrix(1 0 0 0.998488 188.727 123)">剛体の棒の長さは回転しても変わらない</text><text fill="#FFFFFF" font-family="Yu Gothic,Yu Gothic_MSFontService,sans-serif" font-weight="700" font-size="18.6461" transform="matrix(1 0 0 0.998488 23.4528 97)">不変性</text><text fill="#FFFFFF" font-family="Yu Gothic,Yu Gothic_MSFontService,sans-serif" font-weight="700" font-size="18.6461" transform="matrix(1 0 0 0.998488 23.4528 123)">Invariance</text></g></svg>