<svg width="832" height="246" xmlns="http://www.w3.org/2000/svg" xmlns:xlink="http://www.w3.org/1999/xlink" overflow="hidden"><defs><clipPath id="clip0"><rect x="0" y="0" width="832" height="246"/></clipPath></defs><g clip-path="url(#clip0)"><rect x="0" y="0" width="832" height="246.186" fill="#FFFFFF"/><path d="M49 102.244C49 99.3882 51.3133 97.0733 54.1668 97.0733L90.8332 97.0733C93.6867 97.0733 96 99.3882 96 102.244L96 122.926C96 125.782 93.6867 128.097 90.8332 128.097L54.1668 128.097C51.3133 128.097 49 125.782 49 122.926Z" stroke="#000000" stroke-width="2.0012" stroke-linejoin="round" stroke-miterlimit="10" fill="none" fill-rule="evenodd"/><text font-family="Yu Gothic,Yu Gothic_MSFontService,sans-serif" font-weight="700" font-size="17" transform="matrix(1 0 0 1.00076 55.2254 118)">要件</text><path d="M159 102.244C159 99.3883 161.313 97.0733 164.167 97.0733L201.833 97.0733C204.687 97.0733 207 99.3883 207 102.244L207 122.926C207 125.782 204.687 128.097 201.833 128.097L164.167 128.097C161.313 128.097 159 125.782 159 122.926Z" stroke="#000000" stroke-width="2.0012" stroke-linejoin="round" stroke-miterlimit="10" fill="none" fill-rule="evenodd"/><text font-family="Yu Gothic,Yu Gothic_MSFontService,sans-serif" font-weight="700" font-size="17" transform="matrix(1 0 0 1.00076 160.77 118)">工程</text><text font-family="Yu Gothic,Yu Gothic_MSFontService,sans-serif" font-weight="700" font-size="17" transform="matrix(1 0 0 1.00076 195.457 118)">1</text><path d="M265 102.244C265 99.3883 267.313 97.0733 270.167 97.0733L306.833 97.0733C309.687 97.0733 312 99.3883 312 102.244L312 122.926C312 125.782 309.687 128.097 306.833 128.097L270.167 128.097C267.313 128.097 265 125.782 265 122.926Z" stroke="#000000" stroke-width="2.0012" stroke-linejoin="round" stroke-miterlimit="10" fill="none" fill-rule="evenodd"/><text font-family="Yu Gothic,Yu Gothic_MSFontService,sans-serif" font-weight="700" font-size="17" transform="matrix(1 0 0 1.00076 266.053 118)">工程</text><text font-family="Yu Gothic,Yu Gothic_MSFontService,sans-serif" font-weight="700" font-size="17" transform="matrix(1 0 0 1.00076 300.74 118)">2</text><path d="M338 102.244C338 99.3883 340.313 97.0733 343.167 97.0733L380.833 97.0733C383.687 97.0733 386 99.3883 386 102.244L386 122.926C386 125.782 383.687 128.097 380.833 128.097L343.167 128.097C340.313 128.097 338 125.782 338 122.926Z" stroke="#000000" stroke-width="2.0012" stroke-linejoin="round" stroke-miterlimit="10" fill="none" fill-rule="evenodd"/><text font-family="HGSoeiKakugothicUB,HGSoeiKakugothicUB_MSFontService,sans-serif" font-weight="400" font-size="19" transform="matrix(1 0 0 1.00076 348.089 120)">･･･</text><path d="M459 102.244C459 99.3883 461.313 97.0733 464.167 97.0733L501.833 97.0733C504.687 97.0733 507 99.3883 507 102.244L507 122.926C507 125.782 504.687 128.097 501.833 128.097L464.167 128.097C461.313 128.097 459 125.782 459 122.926Z" stroke="#000000" stroke-width="2.0012" stroke-linejoin="round" stroke-miterlimit="10" fill="none" fill-rule="evenodd"/><text font-family="Yu Gothic,Yu Gothic_MSFontService,sans-serif" font-weight="700" font-size="17" transform="matrix(1 0 0 1.00076 465.83 118)">実装</text><rect x="458" y="186.14" width="48.0001" height="32.0242" stroke="#000000" stroke-width="2.0012" stroke-linejoin="round" stroke-miterlimit="10" fill="none"/><text font-family="Yu Gothic,Yu Gothic_MSFontService,sans-serif" font-weight="700" font-size="19" transform="matrix(1 0 0 1.00076 463.179 208)">動作</text><text font-family="Yu Gothic,Yu Gothic_MSFontService,sans-serif" font-weight="700" font-size="19" transform="matrix(1 0 0 1.00076 123.585 170)">verification</text><path d="M107 112.084 142.329 112.084 142.329 114.087 107 114.087ZM140.995 109.08 149 113.085 140.995 117.091Z"/><path d="M217 112.084 252.329 112.084 252.329 114.087 217 114.087ZM250.995 109.08 259 113.085 250.995 117.091Z"/><path d="M396 112.084 431.329 112.084 431.329 114.087 396 114.087ZM429.995 109.08 438 113.085 429.995 117.091Z"/><path d="M123.018 131.649 123.222 150.102 122.221 149.112 223 149.112 221.999 150.113 221.999 132.911 224.001 132.911 224.001 150.113C224.001 150.666 223.553 151.115 223 151.115L122.221 151.115C121.673 151.115 121.227 150.673 121.221 150.124L121.017 131.671ZM114.66 139.112 122 130.096 129.538 138.947C129.896 139.368 129.846 140 129.425 140.359 129.004 140.718 128.373 140.667 128.014 140.246L121.256 132.31 122.793 132.293 116.211 140.377C115.862 140.806 115.232 140.87 114.803 140.521 114.375 140.171 114.311 139.541 114.66 139.112ZM215.561 140.281 223 131.347 230.439 140.281C230.793 140.706 230.736 141.337 230.311 141.691 229.887 142.045 229.256 141.988 228.902 141.563L222.231 133.552 223.769 133.552 217.098 141.563C216.744 141.988 216.113 142.045 215.689 141.691 215.264 141.337 215.207 140.706 215.561 140.281Z"/><path d="M239.018 131.649 239.222 150.102 238.221 149.112 339 149.112 337.999 150.113 337.999 132.911 340.001 132.911 340.001 150.113C340.001 150.666 339.553 151.115 339 151.115L238.221 151.115C237.673 151.115 237.227 150.673 237.22 150.124L237.017 131.671ZM230.66 139.112 238 130.096 245.538 138.947C245.896 139.368 245.846 140 245.425 140.359 245.004 140.718 244.373 140.667 244.014 140.246L237.256 132.31 238.793 132.293 232.211 140.377C231.862 140.806 231.232 140.87 230.803 140.521 230.375 140.171 230.311 139.541 230.66 139.112ZM331.561 140.281 339 131.347 346.439 140.281C346.793 140.706 346.736 141.337 346.311 141.691 345.887 142.045 345.256 141.988 344.902 141.563L338.231 133.552 339.769 133.552 333.098 141.563C332.744 141.988 332.113 142.045 331.689 141.691 331.264 141.337 331.207 140.706 331.561 140.281Z"/><text font-family="Yu Gothic,Yu Gothic_MSFontService,sans-serif" font-weight="700" font-size="19" transform="matrix(1 0 0 1.00076 239.972 170)">verification</text><path d="M1.01847 1.54934 1.3222 27.9885 0.321663 26.9994 147 26.9994 145.999 28 145.999 3.31094 148.001 3.31094 148.001 28C148.001 28.5526 147.553 29.0006 147 29.0006L0.321663 29.0006C-0.226471 29.0006-0.672576 28.5596-0.678872 28.0115L-0.982604 1.57233ZM-7.33634 9.01005-2.35648e-05-0.00205104 7.54139 8.83913C7.90002 9.25957 7.84992 9.89113 7.42948 10.2498 7.00904 10.6084 6.37747 10.5583 6.01884 10.1378L-0.743343 2.21019 0.793922 2.19253-5.78436 10.2734C-6.13324 10.702-6.76348 10.7666-7.19205 10.4177-7.62062 10.0689-7.68522 9.43861-7.33634 9.01005ZM139.561 10.6752 147 1.74795 154.439 10.6752C154.793 11.0997 154.736 11.7307 154.311 12.0844 153.887 12.4382 153.256 12.3809 152.902 11.9563L146.231 3.95151 147.769 3.95151 141.098 11.9563C140.744 12.3809 140.113 12.4382 139.689 12.0844 139.264 11.7307 139.207 11.0997 139.561 10.6752Z" transform="matrix(1 0 0 -1.00076 86 89.0672)"/><path d="M1.02797 1.543 1.5825 32.9823 0.582057 31.9994 266 31.9994 264.999 33 264.999 3.62344 267.001 3.62344 267.001 33C267.001 33.5526 266.553 34.0006 266 34.0006L0.582057 34.0006C0.0363191 34.0006-0.408765 33.5633-0.418389 33.0176L-0.972919 1.57829ZM-7.2808 9.05499-3.61654e-05-0.00205094 7.5956 8.79259C7.95681 9.21082 7.91059 9.84268 7.49236 10.2039 7.07413 10.5651 6.44227 10.5189 6.08107 10.1006L-0.729739 2.21472 0.807388 2.18761-5.72108 10.3088C-6.06732 10.7395-6.69715 10.808-7.12786 10.4618-7.55856 10.1155-7.62704 9.48569-7.2808 9.05499ZM258.561 10.9877 266 2.06045 273.439 10.9877C273.793 11.4122 273.736 12.0432 273.311 12.3969 272.887 12.7507 272.256 12.6933 271.902 12.2688L265.231 4.26401 266.769 4.26401 260.098 12.2688C259.744 12.6933 259.113 12.7507 258.689 12.3969 258.264 12.0432 258.207 11.4122 258.561 10.9877Z" transform="matrix(1 0 0 -1.00076 72 88.0664)"/><path d="M1.03727 1.53688 1.92373 38.9762 0.923414 37.9993 422 37.9993 420.999 38.9999 420.999 3.99844 423.001 3.99844 423.001 38.9999C423.001 39.5525 422.553 40.0005 422 40.0005L0.923414 40.0005C0.380025 40.0005-0.064045 39.5668-0.0769074 39.0236L-0.963371 1.58425ZM-7.22601 9.09877-4.85561e-05-0.00205042 7.64854 8.74658C8.01227 9.16262 7.96986 9.79475 7.55382 10.1585 7.13778 10.5222 6.50566 10.4798 6.14193 10.0638L-0.716357 2.21909 0.820579 2.1827-5.65875 10.3432C-6.00238 10.776-6.63179 10.8482-7.06457 10.5046-7.49736 10.161-7.56964 9.53156-7.22601 9.09877ZM414.561 11.3627 422 2.43544 429.439 11.3627C429.793 11.7872 429.736 12.4181 429.311 12.7719 428.887 13.1257 428.256 13.0683 427.902 12.6438L421.231 4.639 422.769 4.639 416.098 12.6438C415.744 13.0683 415.113 13.1257 414.689 12.7719 414.264 12.4181 414.207 11.7872 414.561 11.3627Z" transform="matrix(1 0 0 -1.00076 59 88.0664)"/><text font-family="Yu Gothic,Yu Gothic_MSFontService,sans-serif" font-weight="700" font-size="19" transform="matrix(1 0 0 1.00076 219.701 44)">validation</text><path d="M484.001 134.101 484.001 169.457 481.999 169.457 481.999 134.101ZM487.002 168.122 483 176.133 478.998 168.122Z"/><path d="M71.0006 140.667 71.0006 202.153 70 201.151 442.445 201.151 442.445 203.154 70 203.154C69.4473 203.154 68.9994 202.706 68.9994 202.153L68.9994 140.667ZM62.5606 148.037 70 139.103 77.4393 148.037C77.7931 148.462 77.7357 149.093 77.3112 149.447 76.8867 149.801 76.2557 149.744 75.902 149.319L69.2313 141.308 70.7687 141.308 64.098 149.319C63.7442 149.744 63.1133 149.801 62.6887 149.447 62.2642 149.093 62.2068 148.462 62.5606 148.037ZM435.075 194.708 444.002 202.153 435.075 209.598C434.65 209.952 434.019 209.894 433.666 209.469 433.312 209.044 433.369 208.413 433.794 208.059L441.798 201.383 441.798 202.922 433.794 196.246C433.369 195.892 433.312 195.261 433.666 194.836 434.019 194.411 434.65 194.354 435.075 194.708Z"/><text font-family="Yu Gothic,Yu Gothic_MSFontService,sans-serif" font-weight="700" font-size="19" transform="matrix(1 0 0 1.00076 221.675 222)">test</text><text font-family="Yu Gothic,Yu Gothic_MSFontService,sans-serif" font-weight="700" font-size="19" transform="matrix(1 0 0 1.00076 526.009 44)">error</text><text font-family="Yu Gothic,Yu Gothic_MSFontService,sans-serif" font-weight="700" font-size="19" transform="matrix(1 0 0 1.00076 570.036 44)">の有無を確認</text><text font-family="Yu Gothic,Yu Gothic_MSFontService,sans-serif" font-weight="700" font-size="19" transform="matrix(1 0 0 1.00076 528.198 166)">fault</text><text font-family="Yu Gothic,Yu Gothic_MSFontService,sans-serif" font-weight="700" font-size="19" transform="matrix(1 0 0 1.00076 570.057 166)">の有無を確認</text><text font-family="Yu Gothic,Yu Gothic_MSFontService,sans-serif" font-weight="700" font-size="19" transform="matrix(1 0 0 1.00076 526.009 215)">defact,</text><text font-family="Yu Gothic,Yu Gothic_MSFontService,sans-serif" font-weight="700" font-size="19" transform="matrix(1 0 0 1.00076 594.384 215)">failure</text><text font-family="Yu Gothic,Yu Gothic_MSFontService,sans-serif" font-weight="700" font-size="19" transform="matrix(1 0 0 1.00076 652.752 215)">の有無を確認</text><path d="M382.015 131.651 382.2 151.105 381.199 150.113 472 150.113 470.999 151.114 470.999 132.974 473.001 132.974 473.001 151.114C473.001 151.667 472.553 152.115 472 152.115L381.199 152.115C380.65 152.115 380.204 151.673 380.199 151.124L380.014 131.67ZM373.646 139.1 381 130.096 388.524 138.959C388.881 139.381 388.83 140.013 388.409 140.371 387.988 140.729 387.356 140.677 386.999 140.256L380.252 132.309 381.79 132.294 375.195 140.368C374.845 140.796 374.215 140.859 373.787 140.509 373.359 140.159 373.296 139.528 373.646 139.1ZM464.561 140.344 472 131.41 479.439 140.344C479.793 140.768 479.736 141.4 479.311 141.754 478.887 142.108 478.256 142.051 477.902 141.626L471.231 133.615 472.769 133.615 466.098 141.626C465.744 142.051 465.113 142.108 464.689 141.754 464.264 141.4 464.207 140.768 464.561 140.344Z"/><text font-family="Yu Gothic,Yu Gothic_MSFontService,sans-serif" font-weight="700" font-size="19" transform="matrix(1 0 0 1.00076 373.669 170)">verification</text></g></svg>