<svg width="813" height="151" xmlns="http://www.w3.org/2000/svg" xmlns:xlink="http://www.w3.org/1999/xlink" overflow="hidden"><g><rect x="0" y="0" width="813" height="150.772" fill="#FFFFFF"/><path d="M11.0054 11.6612 391.017 11.6612 391.017 43.626 11.0054 43.626Z" fill="#2E75B6" fill-rule="evenodd"/><path d="M391.017 11.6612 801.169 11.6612 801.169 43.626 391.017 43.626Z" fill="#2E75B6" fill-rule="evenodd"/><path d="M391.017 10.9953 391.017 43.626" stroke="#FFFFFF" stroke-width="1.33388" stroke-linejoin="round" stroke-miterlimit="10" fill="none" fill-rule="evenodd"/><path d="M391.017 43.626 391.017 137.522" stroke="#000000" stroke-width="1.33388" stroke-linejoin="round" stroke-miterlimit="10" fill="none" fill-rule="evenodd"/><path d="M10.3384 43.626 801.836 43.626" stroke="#000000" stroke-width="1.33388" stroke-linejoin="round" stroke-miterlimit="10" fill="none" fill-rule="evenodd"/><path d="M10.3384 97.966 801.836 97.966" stroke="#000000" stroke-width="1.33388" stroke-linejoin="round" stroke-miterlimit="10" fill="none" fill-rule="evenodd"/><path d="M11.0054 10.9953 11.0054 137.522" stroke="#000000" stroke-width="1.33388" stroke-linejoin="round" stroke-miterlimit="10" fill="none" fill-rule="evenodd"/><path d="M801.169 10.9953 801.169 137.522" stroke="#000000" stroke-width="1.33388" stroke-linejoin="round" stroke-miterlimit="10" fill="none" fill-rule="evenodd"/><path d="M10.3384 11.6612 801.836 11.6612" stroke="#000000" stroke-width="1.33388" stroke-linejoin="round" stroke-miterlimit="10" fill="none" fill-rule="evenodd"/><path d="M10.3384 136.856 801.836 136.856" stroke="#000000" stroke-width="1.33388" stroke-linejoin="round" stroke-miterlimit="10" fill="none" fill-rule="evenodd"/><text fill="#FFFFFF" font-family="Calibri,Calibri_MSFontService,sans-serif" font-weight="700" font-size="18.6461" transform="matrix(1 0 0 0.998488 533.568 33)">Risk</text><text fill="#FFFFFF" font-family="Yu Gothic,Yu Gothic_MSFontService,sans-serif" font-weight="700" font-size="18.6461" transform="matrix(1 0 0 0.998488 565.247 33)">（危険度）</text><text fill="#FFFFFF" font-family="Calibri,Calibri_MSFontService,sans-serif" font-weight="700" font-size="18.6461" transform="matrix(1 0 0 0.998488 118.044 33)">Hazard</text><text fill="#FFFFFF" font-family="Yu Gothic,Yu Gothic_MSFontService,sans-serif" font-weight="700" font-size="18.6461" transform="matrix(1 0 0 0.998488 171.933 33)">（危害要因）</text><g><text font-family="Yu Gothic,Yu Gothic_MSFontService,sans-serif" font-weight="700" font-size="18.6461" transform="matrix(1 0 0 0.998488 400.621 65)">ハザードが実際に被害を及ぼす確率、可能性</text></g><g><text font-family="Yu Gothic,Yu Gothic_MSFontService,sans-serif" font-weight="700" font-size="18.6461" transform="matrix(1 0 0 0.998488 20.6093 65)">害を及ぼす性質をもっている「原因」や</text></g><g><text font-family="Yu Gothic,Yu Gothic_MSFontService,sans-serif" font-weight="700" font-size="18.6461" transform="matrix(1 0 0 0.998488 20.6093 88)">「対象物そのもの」</text></g><g><text font-family="Yu Gothic,Yu Gothic_MSFontService,sans-serif" font-weight="700" font-size="18.6461" transform="matrix(1 0 0 0.998488 400.621 120)">行動、環境、対策によって変わる</text></g><text font-family="Calibri,Calibri_MSFontService,sans-serif" font-weight="700" font-size="18.6461" transform="matrix(1 0 0 0.998488 680.736 120)">(</text><text font-family="Yu Gothic,Yu Gothic_MSFontService,sans-serif" font-weight="700" font-size="18.6461" transform="matrix(1 0 0 0.998488 686.572 120)">変えられる</text><text font-family="Calibri,Calibri_MSFontService,sans-serif" font-weight="700" font-size="18.6461" transform="matrix(1 0 0 0.998488 779.944 120)">)</text><g><text font-family="Yu Gothic,Yu Gothic_MSFontService,sans-serif" font-weight="700" font-size="18.6461" transform="matrix(1 0 0 0.998488 20.6093 120)">状況に関わらず、そのものがもつ性質</text></g></g></svg>