<svg width="643" height="227" xmlns="http://www.w3.org/2000/svg" xmlns:xlink="http://www.w3.org/1999/xlink" overflow="hidden"><defs><clipPath id="clip0"><rect x="0" y="0" width="643" height="227"/></clipPath></defs><g clip-path="url(#clip0)"><rect x="0" y="0" width="643" height="226.99" fill="#FFFFFF"/><path d="M16.6189 17.7926 128.903 17.7926 128.903 113.5 16.6189 113.5Z" fill="#2E75B6" fill-rule="evenodd"/><path d="M128.903 17.7926 626.381 17.7926 626.381 113.5 128.903 113.5Z" fill="#FFFFFF" fill-rule="evenodd"/><path d="M16.6189 113.5 128.903 113.5 128.903 209.207 16.6189 209.207Z" fill="#2E75B6" fill-rule="evenodd"/><path d="M128.903 113.5 626.381 113.5 626.381 209.207 128.903 209.207Z" fill="#FFFFFF" fill-rule="evenodd"/><path d="M128.903 17.1254 128.903 209.875" stroke="#000000" stroke-width="1.33437" stroke-linejoin="round" stroke-miterlimit="10" fill="none" fill-rule="evenodd"/><path d="M15.9517 113.5 128.903 113.5" stroke="#FFFFFF" stroke-width="1.33437" stroke-linejoin="round" stroke-miterlimit="10" fill="none" fill-rule="evenodd"/><path d="M128.903 113.5 627.048 113.5" stroke="#000000" stroke-width="1.33437" stroke-linejoin="round" stroke-miterlimit="10" fill="none" fill-rule="evenodd"/><path d="M16.6189 17.1254 16.6189 209.875" stroke="#000000" stroke-width="1.33437" stroke-linejoin="round" stroke-miterlimit="10" fill="none" fill-rule="evenodd"/><path d="M626.381 17.1254 626.381 209.875" stroke="#000000" stroke-width="1.33437" stroke-linejoin="round" stroke-miterlimit="10" fill="none" fill-rule="evenodd"/><path d="M15.9517 17.7926 627.048 17.7926" stroke="#000000" stroke-width="1.33437" stroke-linejoin="round" stroke-miterlimit="10" fill="none" fill-rule="evenodd"/><path d="M15.9517 209.207 627.048 209.207" stroke="#000000" stroke-width="1.33437" stroke-linejoin="round" stroke-miterlimit="10" fill="none" fill-rule="evenodd"/><text font-family="Yu Gothic,Yu Gothic_MSFontService,sans-serif" font-weight="700" font-size="19" transform="matrix(1 0 0 0.999957 136.468 45)">動的に確保可能なメモリの領域</text><text font-family="Yu Gothic,Yu Gothic_MSFontService,sans-serif" font-weight="700" font-size="19" transform="matrix(1 0 0 0.999957 136.468 71)">・</text><text font-family="Yu Gothic,Yu Gothic_MSFontService,sans-serif" font-weight="700" font-size="19" transform="matrix(1 0 0 0.999957 155.149 71)">C</text><text font-family="Yu Gothic,Yu Gothic_MSFontService,sans-serif" font-weight="700" font-size="19" transform="matrix(1 0 0 0.999957 168.493 71)">言語では</text><text font-family="Yu Gothic,Yu Gothic_MSFontService,sans-serif" font-weight="700" font-size="19" transform="matrix(1 0 0 0.999957 243.218 71)">malloc</text><text font-family="Yu Gothic,Yu Gothic_MSFontService,sans-serif" font-weight="700" font-size="19" transform="matrix(1 0 0 0.999957 303.098 71)">～</text><text font-family="Yu Gothic,Yu Gothic_MSFontService,sans-serif" font-weight="700" font-size="19" transform="matrix(1 0 0 0.999957 321.779 71)">free</text><text font-family="Yu Gothic,Yu Gothic_MSFontService,sans-serif" font-weight="700" font-size="19" transform="matrix(1 0 0 0.999957 358.14 71)">の寿命</text><text font-family="Yu Gothic,Yu Gothic_MSFontService,sans-serif" font-weight="700" font-size="19" transform="matrix(1 0 0 0.999957 136.468 97)">・</text><text font-family="Yu Gothic,Yu Gothic_MSFontService,sans-serif" font-weight="700" font-size="19" transform="matrix(1 0 0 0.999957 155.149 97)">C++</text><text font-family="Yu Gothic,Yu Gothic_MSFontService,sans-serif" font-weight="700" font-size="19" transform="matrix(1 0 0 0.999957 196.181 97)">では</text><text font-family="Yu Gothic,Yu Gothic_MSFontService,sans-serif" font-weight="700" font-size="19" transform="matrix(1 0 0 0.999957 233.544 97)">new</text><text font-family="Yu Gothic,Yu Gothic_MSFontService,sans-serif" font-weight="700" font-size="19" transform="matrix(1 0 0 0.999957 271.74 97)">～</text><text font-family="Yu Gothic,Yu Gothic_MSFontService,sans-serif" font-weight="700" font-size="19" transform="matrix(1 0 0 0.999957 290.421 97)">delete</text><text font-family="Yu Gothic,Yu Gothic_MSFontService,sans-serif" font-weight="700" font-size="19" transform="matrix(1 0 0 0.999957 347.466 97)">の寿命</text><text fill="#FFFFFF" font-family="Yu Gothic,Yu Gothic_MSFontService,sans-serif" font-weight="700" font-size="19" transform="matrix(1 0 0 0.999957 24.1838 45)">heap</text><text font-family="Yu Gothic,Yu Gothic_MSFontService,sans-serif" font-weight="700" font-size="19" transform="matrix(1 0 0 0.999957 136.468 141)">動的に確保可能なメモリの領域</text><text font-family="Yu Gothic,Yu Gothic_MSFontService,sans-serif" font-weight="700" font-size="19" transform="matrix(1 0 0 0.999957 136.468 167)">・</text><text font-family="Yu Gothic,Yu Gothic_MSFontService,sans-serif" font-weight="700" font-size="19" transform="matrix(1 0 0 0.999957 155.149 167)">push~pop</text><text font-family="Yu Gothic,Yu Gothic_MSFontService,sans-serif" font-weight="700" font-size="19" transform="matrix(1 0 0 0.999957 247.054 167)">までの寿命</text><text font-family="Yu Gothic,Yu Gothic_MSFontService,sans-serif" font-weight="700" font-size="19" transform="matrix(1 0 0 0.999957 136.468 193)">・関数の引数の受け渡しなどで使う</text><text fill="#FFFFFF" font-family="Yu Gothic,Yu Gothic_MSFontService,sans-serif" font-weight="700" font-size="19" transform="matrix(1 0 0 0.999957 24.1838 141)">stack</text></g></svg>