<svg width="832" height="302" xmlns="http://www.w3.org/2000/svg" xmlns:xlink="http://www.w3.org/1999/xlink" overflow="hidden"><defs><clipPath id="clip0"><rect x="0" y="0" width="832" height="302"/></clipPath></defs><g clip-path="url(#clip0)"><rect x="0" y="0" width="832" height="302.484" fill="#FFFFFF"/><path d="M15.7565 14.2093 111.534 14.2093 111.534 70.4725 15.7565 70.4725Z" fill="#2E75B6" fill-rule="evenodd"/><path d="M111.534 14.2093 789.561 14.2093 789.561 70.4725 111.534 70.4725Z" fill="#FFFFFF" fill-rule="evenodd"/><path d="M15.7565 70.4725 111.534 70.4725 111.534 126.736 15.7565 126.736Z" fill="#2E75B6" fill-rule="evenodd"/><path d="M111.534 70.4725 789.561 70.4725 789.561 126.736 111.534 126.736Z" fill="#FFFFFF" fill-rule="evenodd"/><path d="M15.7565 126.736 111.534 126.736 111.534 182.999 15.7565 182.999Z" fill="#2E75B6" fill-rule="evenodd"/><path d="M111.534 126.736 789.561 126.736 789.561 182.999 111.534 182.999Z" fill="#FFFFFF" fill-rule="evenodd"/><path d="M111.534 13.5434 111.534 183.665" stroke="#000000" stroke-width="1.33414" stroke-linejoin="round" stroke-miterlimit="10" fill="none" fill-rule="evenodd"/><path d="M15.0894 70.4725 111.534 70.4725" stroke="#FFFFFF" stroke-width="1.33414" stroke-linejoin="round" stroke-miterlimit="10" fill="none" fill-rule="evenodd"/><path d="M111.534 70.4725 790.228 70.4725" stroke="#000000" stroke-width="1.33414" stroke-linejoin="round" stroke-miterlimit="10" fill="none" fill-rule="evenodd"/><path d="M15.0894 126.736 111.534 126.736" stroke="#FFFFFF" stroke-width="1.33414" stroke-linejoin="round" stroke-miterlimit="10" fill="none" fill-rule="evenodd"/><path d="M111.534 126.736 790.228 126.736" stroke="#000000" stroke-width="1.33414" stroke-linejoin="round" stroke-miterlimit="10" fill="none" fill-rule="evenodd"/><path d="M15.7565 13.5434 15.7565 183.665" stroke="#000000" stroke-width="1.33414" stroke-linejoin="round" stroke-miterlimit="10" fill="none" fill-rule="evenodd"/><path d="M789.561 13.5434 789.561 183.665" stroke="#000000" stroke-width="1.33414" stroke-linejoin="round" stroke-miterlimit="10" fill="none" fill-rule="evenodd"/><path d="M15.0894 14.2093 790.228 14.2093" stroke="#000000" stroke-width="1.33414" stroke-linejoin="round" stroke-miterlimit="10" fill="none" fill-rule="evenodd"/><path d="M15.0894 182.999 790.228 182.999" stroke="#000000" stroke-width="1.33414" stroke-linejoin="round" stroke-miterlimit="10" fill="none" fill-rule="evenodd"/><text font-family="Yu Gothic,Yu Gothic_MSFontService,sans-serif" font-weight="400" font-size="14.6505" transform="matrix(1 0 0 0.998297 115.315 36)">既知の事実や証拠に基づいて、</text><text fill="#0000FF" font-family="Yu Gothic,Yu Gothic_MSFontService,sans-serif" font-weight="700" font-size="14.6505" transform="matrix(1 0 0 0.998297 320.772 36)">直接的に述べられていない事柄</text><text font-family="Yu Gothic,Yu Gothic_MSFontService,sans-serif" font-weight="400" font-size="14.6505" transform="matrix(1 0 0 0.998297 526.229 36)">について結論を導き出すこと。</text><text font-family="Yu Gothic,Yu Gothic_MSFontService,sans-serif" font-weight="400" font-size="14.6505" transform="matrix(1 0 0 0.998297 115.315 61)">現在の情報から隠された意味を読み解くこと。</text><text fill="#FFFFFF" font-family="Yu Gothic,Yu Gothic_MSFontService,sans-serif" font-weight="700" font-size="14.6505" transform="matrix(1 0 0 0.998297 19.5382 36)">inference</text><text fill="#FFFFFF" font-family="Yu Gothic,Yu Gothic_MSFontService,sans-serif" font-weight="700" font-size="14.6505" transform="matrix(1 0 0 0.998297 19.5382 61)">推測</text><text font-family="Yu Gothic,Yu Gothic_MSFontService,sans-serif" font-weight="400" font-size="14.6505" transform="matrix(1 0 0 0.998297 115.315 92)">既存の知識、経験、証拠に基づいて、</text><text fill="#0000FF" font-family="Yu Gothic,Yu Gothic_MSFontService,sans-serif" font-weight="700" font-size="14.6505" transform="matrix(1 0 0 0.998297 364.799 92)">未来に何が起こるか</text><text font-family="Yu Gothic,Yu Gothic_MSFontService,sans-serif" font-weight="400" font-size="14.6505" transform="matrix(1 0 0 0.998297 496.878 92)">を予想すること。</text><text font-family="Yu Gothic,Yu Gothic_MSFontService,sans-serif" font-weight="400" font-size="14.6505" transform="matrix(1 0 0 0.998297 115.315 117)">推論を未来の事象に応用すること。</text><text fill="#FFFFFF" font-family="Yu Gothic,Yu Gothic_MSFontService,sans-serif" font-weight="700" font-size="14.6505" transform="matrix(1 0 0 0.998297 19.5382 92)">predict</text><text fill="#FFFFFF" font-family="Yu Gothic,Yu Gothic_MSFontService,sans-serif" font-weight="700" font-size="14.6505" transform="matrix(1 0 0 0.998297 19.5382 117)">予測</text><text font-family="Yu Gothic,Yu Gothic_MSFontService,sans-serif" font-weight="400" font-size="14.6505" transform="matrix(1 0 0 0.998297 115.315 148)">論理的なルールや原理を用いて、既知の情報から</text><text fill="#0000FF" font-family="Yu Gothic,Yu Gothic_MSFontService,sans-serif" font-weight="700" font-size="14.6505" transform="matrix(1 0 0 0.998297 438.176 148)">新しい情報を導き出すプロセス</text><text font-family="Yu Gothic,Yu Gothic_MSFontService,sans-serif" font-weight="400" font-size="14.6505" transform="matrix(1 0 0 0.998297 643.633 148)">。</text><text font-family="Yu Gothic,Yu Gothic_MSFontService,sans-serif" font-weight="400" font-size="14.6505" transform="matrix(1 0 0 0.998297 115.315 173)">推論や予測を行う際の基本的な思考プロセス。</text><text fill="#FFFFFF" font-family="Yu Gothic,Yu Gothic_MSFontService,sans-serif" font-weight="700" font-size="14.6505" transform="matrix(1 0 0 0.998297 19.5382 148)">reasoning</text><text fill="#FFFFFF" font-family="Yu Gothic,Yu Gothic_MSFontService,sans-serif" font-weight="700" font-size="14.6505" transform="matrix(1 0 0 0.998297 19.5382 173)">推論</text><path d="M22.5 256.562C22.5 237.541 69.9578 222.121 128.5 222.121 187.042 222.121 234.5 237.541 234.5 256.562 234.5 275.584 187.042 291.004 128.5 291.004 69.9578 291.004 22.5 275.584 22.5 256.562Z" stroke="#172C51" stroke-width="1.33414" stroke-miterlimit="8" fill="none" fill-rule="evenodd"/><text fill="#0A0A0A" font-family="Yu Gothic,Yu Gothic_MSFontService,sans-serif" font-weight="400" font-size="14.6505" transform="matrix(1 0 0 0.998297 39.8314 252)">ガレージのドアが開く音が</text><text fill="#0A0A0A" font-family="Yu Gothic,Yu Gothic_MSFontService,sans-serif" font-weight="400" font-size="14.6505" transform="matrix(1 0 0 0.998297 54.5069 269)">して、犬が吠え始めた</text><path d="M337.5 256.562C337.5 239.195 367.273 225.116 404 225.116 440.727 225.116 470.5 239.195 470.5 256.562 470.5 273.93 440.727 288.009 404 288.009 367.273 288.009 337.5 273.93 337.5 256.562Z" stroke="#172C51" stroke-width="1.33414" stroke-miterlimit="8" fill="none" fill-rule="evenodd"/><text fill="#0A0A0A" font-family="Yu Gothic,Yu Gothic_MSFontService,sans-serif" font-weight="400" font-size="14.6505" transform="matrix(1 0 0 0.998297 351.996 261)">誰かが帰宅した</text><path d="M573.5 254.566C573.5 237.198 618.719 223.119 674.5 223.119 730.281 223.119 775.5 237.198 775.5 254.566 775.5 271.933 730.281 286.012 674.5 286.012 618.719 286.012 573.5 271.933 573.5 254.566Z" stroke="#172C51" stroke-width="1.33414" stroke-miterlimit="8" fill="none" fill-rule="evenodd"/><text fill="#0A0A0A" font-family="Yu Gothic,Yu Gothic_MSFontService,sans-serif" font-weight="400" font-size="14.6505" transform="matrix(1 0 0 0.998297 593.374 250)">その人がすぐにドアから</text><text fill="#0A0A0A" font-family="Yu Gothic,Yu Gothic_MSFontService,sans-serif" font-weight="400" font-size="14.6505" transform="matrix(1 0 0 0.998297 615.38 267)">入ってくるだろう</text><text font-family="Calibri,Calibri_MSFontService,sans-serif" font-weight="700" font-size="14.6505" transform="matrix(1 0 0 0.998297 251.75 238)">reasoning</text><text font-family="Calibri,Calibri_MSFontService,sans-serif" font-weight="700" font-size="14.6505" transform="matrix(1 0 0 0.998297 490.834 239)">reasoning</text><text font-family="Yu Gothic,Yu Gothic_MSFontService,sans-serif" font-weight="700" font-size="14.6505" transform="matrix(1 0 0 0.998297 112.509 213)">事実</text><text font-family="Yu Gothic,Yu Gothic_MSFontService,sans-serif" font-weight="700" font-size="14.6505" transform="matrix(1 0 0 0.998297 387.283 213)">推論</text><text font-family="Yu Gothic,Yu Gothic_MSFontService,sans-serif" font-weight="700" font-size="14.6505" transform="matrix(1 0 0 0.998297 654.644 212)">予測</text><path d="M244.5 248.826 320 248.826 320 243.085 331.5 254.566 320 266.046 320 260.306 244.5 260.306Z" stroke="#172C51" stroke-width="1.33414" stroke-miterlimit="8" fill="none" fill-rule="evenodd"/><path d="M479.5 248.826 556 248.826 556 243.085 567.5 254.566 556 266.046 556 260.306 479.5 260.306Z" stroke="#172C51" stroke-width="1.33414" stroke-miterlimit="8" fill="none" fill-rule="evenodd"/></g></svg>