<svg width="813" height="151" xmlns="http://www.w3.org/2000/svg" xmlns:xlink="http://www.w3.org/1999/xlink" overflow="hidden"><g><rect x="0" y="0" width="813" height="150.772" fill="#FFFFFF"/><path d="M19.6717 17.0792 159.89 17.0792 159.89 75.5 19.6717 75.5Z" fill="#2E75B6" fill-rule="evenodd"/><path d="M159.89 17.0792 793.328 17.0792 793.328 75.5 159.89 75.5Z" fill="#FFFFFF" fill-rule="evenodd"/><path d="M19.6717 75.5 159.89 75.5 159.89 133.921 19.6717 133.921Z" fill="#2E75B6" fill-rule="evenodd"/><path d="M159.89 75.5 793.328 75.5 793.328 133.921 159.89 133.921Z" fill="#FFFFFF" fill-rule="evenodd"/><path d="M159.89 16.4133 159.89 134.587" stroke="#000000" stroke-width="1.33388" stroke-linejoin="round" stroke-miterlimit="10" fill="none" fill-rule="evenodd"/><path d="M19.0047 75.5 159.89 75.5" stroke="#FFFFFF" stroke-width="1.33388" stroke-linejoin="round" stroke-miterlimit="10" fill="none" fill-rule="evenodd"/><path d="M159.89 75.5 793.995 75.5" stroke="#000000" stroke-width="1.33388" stroke-linejoin="round" stroke-miterlimit="10" fill="none" fill-rule="evenodd"/><path d="M19.6717 16.4133 19.6717 134.587" stroke="#000000" stroke-width="1.33388" stroke-linejoin="round" stroke-miterlimit="10" fill="none" fill-rule="evenodd"/><path d="M793.328 16.4133 793.328 134.587" stroke="#000000" stroke-width="1.33388" stroke-linejoin="round" stroke-miterlimit="10" fill="none" fill-rule="evenodd"/><path d="M19.0047 17.0792 793.995 17.0792" stroke="#000000" stroke-width="1.33388" stroke-linejoin="round" stroke-miterlimit="10" fill="none" fill-rule="evenodd"/><path d="M19.0047 133.921 793.995 133.921" stroke="#000000" stroke-width="1.33388" stroke-linejoin="round" stroke-miterlimit="10" fill="none" fill-rule="evenodd"/><text font-family="Yu Gothic,Yu Gothic_MSFontService,sans-serif" font-weight="700" font-size="18.6461" transform="matrix(1 0 0 0.998488 163.671 39)">現状とあるべき姿との間に存在するギャップや困難な状況そのもの</text><text fill="#FFFFFF" font-family="Yu Gothic,Yu Gothic_MSFontService,sans-serif" font-weight="700" font-size="18.6461" transform="matrix(1 0 0 0.998488 23.4528 39)">問題</text><text fill="#FFFFFF" font-family="Yu Gothic,Yu Gothic_MSFontService,sans-serif" font-weight="700" font-size="18.6461" transform="matrix(1 0 0 0.998488 23.4528 65)">issues</text><text font-family="Yu Gothic,Yu Gothic_MSFontService,sans-serif" font-weight="700" font-size="18.6461" transform="matrix(1 0 0 0.998488 163.671 97)">問題を解決するために具体的に取り組むべきアクションやタス</text><text font-family="Yu Gothic,Yu Gothic_MSFontService,sans-serif" font-weight="700" font-size="18.6461" transform="matrix(1 0 0 0.998488 686.552 97)">ク</text><text font-family="Yu Gothic,Yu Gothic_MSFontService,sans-serif" font-weight="700" font-size="18.6461" transform="matrix(1 0 0 0.998488 163.671 123)">・解決策</text><text font-family="Calibri,Calibri_MSFontService,sans-serif" font-weight="700" font-size="18.6461" transform="matrix(1 0 0 0.998488 238.368 123)">(</text><text font-family="Yu Gothic,Yu Gothic_MSFontService,sans-serif" font-weight="700" font-size="18.6461" transform="matrix(1 0 0 0.998488 244.204 123)">仮説・施策</text><text font-family="Calibri,Calibri_MSFontService,sans-serif" font-weight="700" font-size="18.6461" transform="matrix(1 0 0 0.998488 337.575 123)">)</text><text font-family="Yu Gothic,Yu Gothic_MSFontService,sans-serif" font-weight="700" font-size="18.6461" transform="matrix(1 0 0 0.998488 343.411 123)">立案</text><text font-family="Calibri,Calibri_MSFontService,sans-serif" font-weight="700" font-size="18.6461" transform="matrix(1 0 0 0.998488 384.928 123)">→</text><text font-family="Yu Gothic,Yu Gothic_MSFontService,sans-serif" font-weight="700" font-size="18.6461" transform="matrix(1 0 0 0.998488 405.937 123)">解決策の実施</text><text font-family="Calibri,Calibri_MSFontService,sans-serif" font-weight="700" font-size="18.6461" transform="matrix(1 0 0 0.998488 522.151 123)">→</text><text font-family="Yu Gothic,Yu Gothic_MSFontService,sans-serif" font-weight="700" font-size="18.6461" transform="matrix(1 0 0 0.998488 543.16 123)">効果の確認</text><text font-family="Calibri,Calibri_MSFontService,sans-serif" font-weight="700" font-size="18.6461" transform="matrix(1 0 0 0.998488 640.7 123)">→</text><text font-family="Yu Gothic,Yu Gothic_MSFontService,sans-serif" font-weight="700" font-size="18.6461" transform="matrix(1 0 0 0.998488 661.708 123)">･･･</text><text fill="#FFFFFF" font-family="Yu Gothic,Yu Gothic_MSFontService,sans-serif" font-weight="700" font-size="18.6461" transform="matrix(1 0 0 0.998488 23.4528 97)">課題</text><text fill="#FFFFFF" font-family="Yu Gothic,Yu Gothic_MSFontService,sans-serif" font-weight="700" font-size="18.6461" transform="matrix(1 0 0 0.998488 23.4528 123)">challenges</text></g></svg>