<svg width="643" height="454" xmlns="http://www.w3.org/2000/svg" xmlns:xlink="http://www.w3.org/1999/xlink" overflow="hidden"><defs><clipPath id="clip0"><rect x="0" y="0" width="643" height="454"/></clipPath><linearGradient x1="303" y1="225.573" x2="303" y2="257.583" gradientUnits="userSpaceOnUse" spreadMethod="reflect" id="fill1"><stop offset="0" stop-color="#A8B7DF"/><stop offset="0.5" stop-color="#9AABD9"/><stop offset="1" stop-color="#879ED7"/></linearGradient><linearGradient x1="303" y1="225.573" x2="303" y2="257.583" gradientUnits="userSpaceOnUse" spreadMethod="reflect" id="fill2"><stop offset="0" stop-color="#8793B3"/><stop offset="0.5" stop-color="#7C89AE"/><stop offset="1" stop-color="#6D7FAD"/></linearGradient><linearGradient x1="303" y1="225.573" x2="303" y2="257.583" gradientUnits="userSpaceOnUse" spreadMethod="reflect" id="fill3"><stop offset="0" stop-color="#B9C5E5"/><stop offset="0.5" stop-color="#AEBBE0"/><stop offset="1" stop-color="#9FB1DF"/></linearGradient><linearGradient x1="303" y1="269.587" x2="303" y2="302.598" gradientUnits="userSpaceOnUse" spreadMethod="reflect" id="fill4"><stop offset="0" stop-color="#A8B7DF"/><stop offset="0.5" stop-color="#9AABD9"/><stop offset="1" stop-color="#879ED7"/></linearGradient><linearGradient x1="303" y1="269.587" x2="303" y2="302.598" gradientUnits="userSpaceOnUse" spreadMethod="reflect" id="fill5"><stop offset="0" stop-color="#8793B3"/><stop offset="0.5" stop-color="#7C89AE"/><stop offset="1" stop-color="#6D7FAD"/></linearGradient><linearGradient x1="303" y1="269.587" x2="303" y2="302.598" gradientUnits="userSpaceOnUse" spreadMethod="reflect" id="fill6"><stop offset="0" stop-color="#B9C5E5"/><stop offset="0.5" stop-color="#AEBBE0"/><stop offset="1" stop-color="#9FB1DF"/></linearGradient><linearGradient x1="303" y1="313.602" x2="303" y2="346.612" gradientUnits="userSpaceOnUse" spreadMethod="reflect" id="fill7"><stop offset="0" stop-color="#A8B7DF"/><stop offset="0.5" stop-color="#9AABD9"/><stop offset="1" stop-color="#879ED7"/></linearGradient><linearGradient x1="303" y1="313.602" x2="303" y2="346.612" gradientUnits="userSpaceOnUse" spreadMethod="reflect" id="fill8"><stop offset="0" stop-color="#8793B3"/><stop offset="0.5" stop-color="#7C89AE"/><stop offset="1" stop-color="#6D7FAD"/></linearGradient><linearGradient x1="303" y1="313.602" x2="303" y2="346.612" gradientUnits="userSpaceOnUse" spreadMethod="reflect" id="fill9"><stop offset="0" stop-color="#B9C5E5"/><stop offset="0.5" stop-color="#AEBBE0"/><stop offset="1" stop-color="#9FB1DF"/></linearGradient><linearGradient x1="303" y1="358.616" x2="303" y2="391.627" gradientUnits="userSpaceOnUse" spreadMethod="reflect" id="fill10"><stop offset="0" stop-color="#A8B7DF"/><stop offset="0.5" stop-color="#9AABD9"/><stop offset="1" stop-color="#879ED7"/></linearGradient><linearGradient x1="303" y1="358.616" x2="303" y2="391.627" gradientUnits="userSpaceOnUse" spreadMethod="reflect" id="fill11"><stop offset="0" stop-color="#8793B3"/><stop offset="0.5" stop-color="#7C89AE"/><stop offset="1" stop-color="#6D7FAD"/></linearGradient><linearGradient x1="303" y1="358.616" x2="303" y2="391.627" gradientUnits="userSpaceOnUse" spreadMethod="reflect" id="fill12"><stop offset="0" stop-color="#B9C5E5"/><stop offset="0.5" stop-color="#AEBBE0"/><stop offset="1" stop-color="#9FB1DF"/></linearGradient><linearGradient x1="303" y1="405.631" x2="303" y2="438.642" gradientUnits="userSpaceOnUse" spreadMethod="reflect" id="fill13"><stop offset="0" stop-color="#A8B7DF"/><stop offset="0.5" stop-color="#9AABD9"/><stop offset="1" stop-color="#879ED7"/></linearGradient><linearGradient x1="303" y1="405.631" x2="303" y2="438.642" gradientUnits="userSpaceOnUse" spreadMethod="reflect" id="fill14"><stop offset="0" stop-color="#8793B3"/><stop offset="0.5" stop-color="#7C89AE"/><stop offset="1" stop-color="#6D7FAD"/></linearGradient><linearGradient x1="303" y1="405.631" x2="303" y2="438.642" gradientUnits="userSpaceOnUse" spreadMethod="reflect" id="fill15"><stop offset="0" stop-color="#B9C5E5"/><stop offset="0.5" stop-color="#AEBBE0"/><stop offset="1" stop-color="#9FB1DF"/></linearGradient></defs><g clip-path="url(#clip0)"><rect x="0" y="0" width="643" height="454.147" fill="#FFFFFF"/><path d="M20.2263 23.446 152.708 23.446 152.708 85.7794 20.2263 85.7794Z" fill="#2E75B6" fill-rule="evenodd"/><path d="M152.708 23.446 621.957 23.446 621.957 85.7794 152.708 85.7794Z" fill="#FFFFFF" fill-rule="evenodd"/><path d="M20.2263 85.7794 152.708 85.7794 152.708 148.113 20.2263 148.113Z" fill="#2E75B6" fill-rule="evenodd"/><path d="M152.708 85.7794 621.957 85.7794 621.957 148.113 152.708 148.113Z" fill="#FFFFFF" fill-rule="evenodd"/><path d="M20.2263 148.113 152.708 148.113 152.708 184.604 20.2263 184.604Z" fill="#2E75B6" fill-rule="evenodd"/><path d="M152.708 148.113 621.957 148.113 621.957 184.604 152.708 184.604Z" fill="#FFFFFF" fill-rule="evenodd"/><path d="M152.708 22.7786 152.708 185.272" stroke="#000000" stroke-width="1.33437" stroke-linejoin="round" stroke-miterlimit="10" fill="none" fill-rule="evenodd"/><path d="M19.5591 85.7794 152.708 85.7794" stroke="#FFFFFF" stroke-width="1.33437" stroke-linejoin="round" stroke-miterlimit="10" fill="none" fill-rule="evenodd"/><path d="M152.708 85.7794 622.625 85.7794" stroke="#000000" stroke-width="1.33437" stroke-linejoin="round" stroke-miterlimit="10" fill="none" fill-rule="evenodd"/><path d="M19.5591 148.113 152.708 148.113" stroke="#FFFFFF" stroke-width="1.33437" stroke-linejoin="round" stroke-miterlimit="10" fill="none" fill-rule="evenodd"/><path d="M152.708 148.113 622.625 148.113" stroke="#000000" stroke-width="1.33437" stroke-linejoin="round" stroke-miterlimit="10" fill="none" fill-rule="evenodd"/><path d="M20.2263 22.7786 20.2263 185.272" stroke="#000000" stroke-width="1.33437" stroke-linejoin="round" stroke-miterlimit="10" fill="none" fill-rule="evenodd"/><path d="M621.957 22.7786 621.957 185.272" stroke="#000000" stroke-width="1.33437" stroke-linejoin="round" stroke-miterlimit="10" fill="none" fill-rule="evenodd"/><path d="M19.5591 23.446 622.625 23.446" stroke="#000000" stroke-width="1.33437" stroke-linejoin="round" stroke-miterlimit="10" fill="none" fill-rule="evenodd"/><path d="M19.5591 184.604 622.625 184.604" stroke="#000000" stroke-width="1.33437" stroke-linejoin="round" stroke-miterlimit="10" fill="none" fill-rule="evenodd"/><text font-family="Yu Gothic,Yu Gothic_MSFontService,sans-serif" font-weight="700" font-size="19" transform="matrix(1 0 0 1.00032 160.273 47)">要求の発行から、その結果が返されるまでの潜伏期間。</text><text font-family="Yu Gothic,Yu Gothic_MSFontService,sans-serif" font-weight="700" font-size="19" transform="matrix(1 0 0 1.00032 160.273 73)">遅延時間。</text><text fill="#FFFFFF" font-family="Yu Gothic,Yu Gothic_MSFontService,sans-serif" font-weight="700" font-size="19" transform="matrix(1 0 0 1.00032 27.7913 47)">latency</text><text fill="#FFFFFF" font-family="Yu Gothic,Yu Gothic_MSFontService,sans-serif" font-weight="700" font-size="19" transform="matrix(1 0 0 1.00032 27.7913 73)">delay</text><text font-family="Yu Gothic,Yu Gothic_MSFontService,sans-serif" font-weight="700" font-size="19" transform="matrix(1 0 0 1.00032 160.273 109)">コンピュータやネットワークが一定時間内に処理でき</text><text font-family="Yu Gothic,Yu Gothic_MSFontService,sans-serif" font-weight="700" font-size="19" transform="matrix(1 0 0 1.00032 160.273 130)">るデータ量のこと。帯域幅。</text><text fill="#FFFFFF" font-family="Yu Gothic,Yu Gothic_MSFontService,sans-serif" font-weight="700" font-size="19" transform="matrix(1 0 0 1.00032 27.7913 109)">throughput</text><text fill="#FFFFFF" font-family="Yu Gothic,Yu Gothic_MSFontService,sans-serif" font-weight="700" font-size="19" transform="matrix(1 0 0 1.00032 27.7913 135)">bandwidth</text><text font-family="Yu Gothic,Yu Gothic_MSFontService,sans-serif" font-weight="700" font-size="19" transform="matrix(1 0 0 1.00032 160.273 172)">latency</text><text font-family="Yu Gothic,Yu Gothic_MSFontService,sans-serif" font-weight="700" font-size="19" transform="matrix(1 0 0 1.00032 226.491 172)">や</text><text font-family="Yu Gothic,Yu Gothic_MSFontService,sans-serif" font-weight="700" font-size="19" transform="matrix(1 0 0 1.00032 245.173 172)">throughput</text><text font-family="Yu Gothic,Yu Gothic_MSFontService,sans-serif" font-weight="700" font-size="19" transform="matrix(1 0 0 1.00032 346.251 172)">の時間的なゆらぎ</text><text fill="#FFFFFF" font-family="Yu Gothic,Yu Gothic_MSFontService,sans-serif" font-weight="700" font-size="19" transform="matrix(1 0 0 1.00032 27.7913 172)">jitter</text><rect x="238.5" y="233.576" width="121" height="24.0077" fill="url(#fill1)"/><path d="M359.5 233.576 367.5 225.573 367.5 249.581 359.5 257.583Z" fill="url(#fill2)" fill-rule="evenodd"/><path d="M238.5 233.576 246.5 225.573 367.5 225.573 359.5 233.576Z" fill="url(#fill3)" fill-rule="evenodd"/><path d="M238.5 233.576 246.5 225.573 367.5 225.573 367.5 249.581 359.5 257.583 238.5 257.583ZM238.5 233.576 359.5 233.576 367.5 225.573M359.5 233.576 359.5 257.583" stroke="#4472C4" stroke-width="0.667185" stroke-miterlimit="8" fill="none" fill-rule="evenodd"/><rect x="238.5" y="277.84" width="120.75" height="24.7581" fill="url(#fill4)"/><path d="M359.25 277.84 367.5 269.587 367.5 294.345 359.25 302.598Z" fill="url(#fill5)" fill-rule="evenodd"/><path d="M238.5 277.84 246.75 269.587 367.5 269.587 359.25 277.84Z" fill="url(#fill6)" fill-rule="evenodd"/><path d="M238.5 277.84 246.75 269.587 367.5 269.587 367.5 294.345 359.25 302.598 238.5 302.598ZM238.5 277.84 359.25 277.84 367.5 269.587M359.25 277.84 359.25 302.598" stroke="#4472C4" stroke-width="0.667185" stroke-miterlimit="8" fill="none" fill-rule="evenodd"/><rect x="238.5" y="321.854" width="120.75" height="24.7581" fill="url(#fill7)"/><path d="M359.25 321.854 367.5 313.602 367.5 338.36 359.25 346.612Z" fill="url(#fill8)" fill-rule="evenodd"/><path d="M238.5 321.854 246.75 313.602 367.5 313.602 359.25 321.854Z" fill="url(#fill9)" fill-rule="evenodd"/><path d="M238.5 321.854 246.75 313.602 367.5 313.602 367.5 338.36 359.25 346.612 238.5 346.612ZM238.5 321.854 359.25 321.854 367.5 313.602M359.25 321.854 359.25 346.612" stroke="#4472C4" stroke-width="0.667185" stroke-miterlimit="8" fill="none" fill-rule="evenodd"/><rect x="238.5" y="366.869" width="120.75" height="24.7581" fill="url(#fill10)"/><path d="M359.25 366.869 367.5 358.616 367.5 383.374 359.25 391.627Z" fill="url(#fill11)" fill-rule="evenodd"/><path d="M238.5 366.869 246.75 358.616 367.5 358.616 359.25 366.869Z" fill="url(#fill12)" fill-rule="evenodd"/><path d="M238.5 366.869 246.75 358.616 367.5 358.616 367.5 383.374 359.25 391.627 238.5 391.627ZM238.5 366.869 359.25 366.869 367.5 358.616M359.25 366.869 359.25 391.627" stroke="#4472C4" stroke-width="0.667185" stroke-miterlimit="8" fill="none" fill-rule="evenodd"/><rect x="238.5" y="413.884" width="120.75" height="24.7581" fill="url(#fill13)"/><path d="M359.25 413.884 367.5 405.631 367.5 430.389 359.25 438.642Z" fill="url(#fill14)" fill-rule="evenodd"/><path d="M238.5 413.884 246.75 405.631 367.5 405.631 359.25 413.884Z" fill="url(#fill15)" fill-rule="evenodd"/><path d="M238.5 413.884 246.75 405.631 367.5 405.631 367.5 430.389 359.25 438.642 238.5 438.642ZM238.5 413.884 359.25 413.884 367.5 405.631M359.25 413.884 359.25 438.642" stroke="#4472C4" stroke-width="0.667185" stroke-miterlimit="8" fill="none" fill-rule="evenodd"/><text font-family="Yu Gothic,Yu Gothic_MSFontService,sans-serif" font-weight="700" font-size="21" transform="matrix(1 0 0 1.00032 85.8766 253)">･･･</text><text font-family="Yu Gothic,Yu Gothic_MSFontService,sans-serif" font-weight="700" font-size="21" transform="matrix(1 0 0 1.00032 117.902 253)">③</text><text font-family="Yu Gothic,Yu Gothic_MSFontService,sans-serif" font-weight="700" font-size="21" transform="matrix(1 0 0 1.00032 160.601 253)">②</text><text font-family="Yu Gothic,Yu Gothic_MSFontService,sans-serif" font-weight="700" font-size="21" transform="matrix(1 0 0 1.00032 203.301 253)">①</text><text font-family="Yu Gothic,Yu Gothic_MSFontService,sans-serif" font-weight="700" font-size="21" transform="matrix(1 0 0 1.00032 85.8766 298)">･･･</text><text font-family="Yu Gothic,Yu Gothic_MSFontService,sans-serif" font-weight="700" font-size="21" transform="matrix(1 0 0 1.00032 117.902 298)">④</text><text font-family="Yu Gothic,Yu Gothic_MSFontService,sans-serif" font-weight="700" font-size="21" transform="matrix(1 0 0 1.00032 160.601 298)">③</text><text font-family="Yu Gothic,Yu Gothic_MSFontService,sans-serif" font-weight="700" font-size="21" transform="matrix(1 0 0 1.00032 203.301 298)">②</text><text font-family="Yu Gothic,Yu Gothic_MSFontService,sans-serif" font-weight="700" font-size="21" transform="matrix(1 0 0 1.00032 246.001 298)">①</text><text font-family="Yu Gothic,Yu Gothic_MSFontService,sans-serif" font-weight="700" font-size="21" transform="matrix(1 0 0 1.00032 85.8766 343)">･･･</text><text font-family="Yu Gothic,Yu Gothic_MSFontService,sans-serif" font-weight="700" font-size="21" transform="matrix(1 0 0 1.00032 117.902 343)">⑤</text><text font-family="Yu Gothic,Yu Gothic_MSFontService,sans-serif" font-weight="700" font-size="21" transform="matrix(1 0 0 1.00032 160.601 343)">④</text><text font-family="Yu Gothic,Yu Gothic_MSFontService,sans-serif" font-weight="700" font-size="21" transform="matrix(1 0 0 1.00032 203.301 343)">③</text><text font-family="Yu Gothic,Yu Gothic_MSFontService,sans-serif" font-weight="700" font-size="21" transform="matrix(1 0 0 1.00032 246.001 343)">②</text><text font-family="Yu Gothic,Yu Gothic_MSFontService,sans-serif" font-weight="700" font-size="21" transform="matrix(1 0 0 1.00032 288.701 343)">①</text><text font-family="Yu Gothic,Yu Gothic_MSFontService,sans-serif" font-weight="700" font-size="21" transform="matrix(1 0 0 1.00032 85.8766 387)">･･･</text><text font-family="Yu Gothic,Yu Gothic_MSFontService,sans-serif" font-weight="700" font-size="21" transform="matrix(1 0 0 1.00032 117.902 387)">⑥</text><text font-family="Yu Gothic,Yu Gothic_MSFontService,sans-serif" font-weight="700" font-size="21" transform="matrix(1 0 0 1.00032 160.601 387)">⑤</text><text font-family="Yu Gothic,Yu Gothic_MSFontService,sans-serif" font-weight="700" font-size="21" transform="matrix(1 0 0 1.00032 203.301 387)">④</text><text font-family="Yu Gothic,Yu Gothic_MSFontService,sans-serif" font-weight="700" font-size="21" transform="matrix(1 0 0 1.00032 246.001 387)">③</text><text font-family="Yu Gothic,Yu Gothic_MSFontService,sans-serif" font-weight="700" font-size="21" transform="matrix(1 0 0 1.00032 288.701 387)">②</text><text font-family="Yu Gothic,Yu Gothic_MSFontService,sans-serif" font-weight="700" font-size="21" transform="matrix(1 0 0 1.00032 331.401 387)">①</text><text font-family="Yu Gothic,Yu Gothic_MSFontService,sans-serif" font-weight="700" font-size="21" transform="matrix(1 0 0 1.00032 85.8766 433)">･･･</text><text font-family="Yu Gothic,Yu Gothic_MSFontService,sans-serif" font-weight="700" font-size="21" transform="matrix(1 0 0 1.00032 117.902 433)">⑦</text><text font-family="Yu Gothic,Yu Gothic_MSFontService,sans-serif" font-weight="700" font-size="21" transform="matrix(1 0 0 1.00032 160.601 433)">⑥</text><text font-family="Yu Gothic,Yu Gothic_MSFontService,sans-serif" font-weight="700" font-size="21" transform="matrix(1 0 0 1.00032 203.301 433)">⑤</text><text font-family="Yu Gothic,Yu Gothic_MSFontService,sans-serif" font-weight="700" font-size="21" transform="matrix(1 0 0 1.00032 246.001 433)">④</text><text font-family="Yu Gothic,Yu Gothic_MSFontService,sans-serif" font-weight="700" font-size="21" transform="matrix(1 0 0 1.00032 288.701 433)">③</text><text font-family="Yu Gothic,Yu Gothic_MSFontService,sans-serif" font-weight="700" font-size="21" transform="matrix(1 0 0 1.00032 331.401 433)">②</text><text font-family="Yu Gothic,Yu Gothic_MSFontService,sans-serif" font-weight="700" font-size="21" transform="matrix(1 0 0 1.00032 374.101 433)">①</text><text font-family="Yu Gothic,Yu Gothic_MSFontService,sans-serif" font-weight="700" font-size="16" transform="matrix(1 0 0 1.00032 271.886 214)">処理装置</text><path d="M66.0012 235.576 66.0012 433.669 62.9989 433.669 62.9989 235.576ZM71.0508 425.415 64.5 436.648 57.9493 425.415C57.5315 424.698 57.7734 423.779 58.4895 423.361 59.2057 422.943 60.1249 423.185 60.5426 423.902L65.7967 432.911 63.2033 432.911 68.4574 423.902C68.8752 423.185 69.7944 422.943 70.5105 423.361 71.2266 423.779 71.4685 424.698 71.0508 425.415Z" fill="#2F528F"/><text font-family="Yu Gothic,Yu Gothic_MSFontService,sans-serif" font-weight="700" font-size="19" transform="matrix(-1.83697e-16 -1.00065 0.999676 -1.83757e-16 49.6683 347)">時間</text><path d="M405.5 295.596C413.784 295.596 420.5 296.156 420.5 296.846L420.5 424.388C420.5 425.078 413.784 425.638 405.5 425.638" stroke="#4472C4" stroke-width="3.00233" stroke-miterlimit="8" fill="none" fill-rule="evenodd"/><text font-family="Yu Gothic,Yu Gothic_MSFontService,sans-serif" font-weight="700" font-size="16" transform="matrix(1 0 0 1.00032 427.288 348)">レイテンシー</text><text font-family="Calibri,Calibri_MSFontService,sans-serif" font-weight="700" font-size="16" transform="matrix(1 0 0 1.00032 527.032 348)">(</text><text font-family="Yu Gothic,Yu Gothic_MSFontService,sans-serif" font-weight="700" font-size="16" transform="matrix(1 0 0 1.00032 532.036 348)">潜伏期間</text><text font-family="Calibri,Calibri_MSFontService,sans-serif" font-weight="700" font-size="16" transform="matrix(1 0 0 1.00032 596.086 348)">)</text><text font-family="Yu Gothic,Yu Gothic_MSFontService,sans-serif" font-weight="700" font-size="16" transform="matrix(1 0 0 1.00032 427.288 367)">ディレイ</text><text font-family="Calibri,Calibri_MSFontService,sans-serif" font-weight="700" font-size="16" transform="matrix(1 0 0 1.00032 491.337 367)">(</text><text font-family="Yu Gothic,Yu Gothic_MSFontService,sans-serif" font-weight="700" font-size="16" transform="matrix(1 0 0 1.00032 496.341 367)">遅延時間</text><text font-family="Calibri,Calibri_MSFontService,sans-serif" font-weight="700" font-size="16" transform="matrix(1 0 0 1.00032 560.391 367)">)</text><path d="M406.5 234.576C415.337 234.576 422.5 235.173 422.5 235.91L422.5 282.258C422.5 282.995 415.337 283.592 406.5 283.592" stroke="#4472C4" stroke-width="3.00233" stroke-miterlimit="8" fill="none" fill-rule="evenodd"/><text font-family="Yu Gothic,Yu Gothic_MSFontService,sans-serif" font-weight="700" font-size="16" transform="matrix(1 0 0 1.00032 433.276 255)">スループット</text><text font-family="Yu Gothic,Yu Gothic_MSFontService,sans-serif" font-weight="700" font-size="16" transform="matrix(1 0 0 1.00032 433.276 271)">帯域幅</text><text font-family="Yu Gothic,Yu Gothic_MSFontService,sans-serif" font-weight="700" font-size="16" transform="matrix(1 0 0 1.00032 151.089 214)">データ</text></g></svg>