<svg width="612" height="378" xmlns="http://www.w3.org/2000/svg" xmlns:xlink="http://www.w3.org/1999/xlink" overflow="hidden"><defs><clipPath id="clip0"><rect x="0" y="0" width="612" height="378"/></clipPath></defs><g clip-path="url(#clip0)"><rect x="0" y="0" width="612" height="378.206" fill="#FFFFFF"/><rect x="245" y="195.106" width="83.0001" height="82.0446" fill="#FE8081"/><path d="M64.0005 269.147 64.0005 176.759 65.9994 176.759 65.9994 269.147ZM61.0022 178.093 65 170.093 68.9978 178.093Z" fill="#172C51"/><path d="M65 268.147 156.337 268.147 156.337 270.147 65 270.147ZM155.004 265.147 163 269.147 155.004 273.147Z" fill="#172C51"/><path d="M65.6786 268.88 30.57 301.373 29.2127 299.905 64.3213 267.412ZM33.5843 302.67 25 305.166 28.1549 296.797Z" fill="#172C51"/><path d="M244.001 279.152 244.001 185.764 245.999 185.764 245.999 279.152ZM241.002 187.098 245 179.098 248.998 187.098Z" fill="#172C51"/><path d="M244 277.151 336.337 277.151 336.337 279.151 244 279.151ZM335.004 274.151 343 278.151 335.004 282.151Z" fill="#172C51"/><path d="M456.001 269.147 456.001 175.759 457.999 175.759 457.999 269.147ZM453.002 177.092 457 169.092 460.998 177.092Z" fill="#172C51"/><path d="M455 267.146 547.337 267.146 547.337 269.146 455 269.146ZM546.004 264.146 554 268.146 546.004 272.146Z" fill="#172C51"/><path d="M457.679 268.88 422.57 301.373 421.213 299.905 456.321 267.412ZM425.584 302.67 417 305.166 420.155 296.797Z" fill="#172C51"/><path d="M390 251.705 430.925 211.317C444.376 213.658 477.158 195.245 500.004 195.107 522.85 194.969 549.098 215.379 568 210.489L523.85 253.102C505.513 254.047 480.843 235.858 458.534 235.625 436.226 235.392 414.644 250.101 390 251.705Z" fill="#FE8081" fill-rule="evenodd"/><text font-family="Cambria Math,Cambria Math_MSFontService,sans-serif" font-weight="400" font-size="14.6667" transform="matrix(1 0 0 1.00054 42.5655 177)">𝑥</text><text font-family="Cambria Math,Cambria Math_MSFontService,sans-serif" font-weight="400" font-size="10.7067" transform="matrix(1 0 0 1.00054 50.2547 180)">2</text><text font-family="Cambria Math,Cambria Math_MSFontService,sans-serif" font-weight="400" font-size="14.6667" transform="matrix(1 0 0 1.00054 15.5822 315)">𝑥</text><text font-family="Cambria Math,Cambria Math_MSFontService,sans-serif" font-weight="400" font-size="10.7067" transform="matrix(1 0 0 1.00054 23.2714 318)">3</text><text font-family="Cambria Math,Cambria Math_MSFontService,sans-serif" font-weight="400" font-size="14.6667" transform="matrix(1 0 0 1.00054 154.974 286)">𝑥</text><text font-family="Cambria Math,Cambria Math_MSFontService,sans-serif" font-weight="400" font-size="10.7067" transform="matrix(1 0 0 1.00054 162.323 289)">1</text><path d="M478 218.619C478 216.685 479.567 215.117 481.5 215.117 483.433 215.117 485 216.685 485 218.619 485 220.553 483.433 222.121 481.5 222.121 479.567 222.121 478 220.553 478 218.619Z" fill="#4472C4" fill-rule="evenodd"/><text font-family="Cambria Math,Cambria Math_MSFontService,sans-serif" font-weight="400" font-size="14.6667" transform="matrix(1 0 0 1.00054 436.015 176)">𝑦</text><text font-family="Cambria Math,Cambria Math_MSFontService,sans-serif" font-weight="400" font-size="10.7067" transform="matrix(1 0 0 1.00054 443.73 179)">2</text><text font-family="Cambria Math,Cambria Math_MSFontService,sans-serif" font-weight="400" font-size="14.6667" transform="matrix(1 0 0 1.00054 405.526 316)">𝑦</text><text font-family="Cambria Math,Cambria Math_MSFontService,sans-serif" font-weight="400" font-size="10.7067" transform="matrix(1 0 0 1.00054 413.241 319)">3</text><text font-family="Cambria Math,Cambria Math_MSFontService,sans-serif" font-weight="400" font-size="14.6667" transform="matrix(1 0 0 1.00054 542.634 286)">𝑦</text><text font-family="Cambria Math,Cambria Math_MSFontService,sans-serif" font-weight="400" font-size="10.7067" transform="matrix(1 0 0 1.00054 550.01 289)">1</text><text font-family="Cambria Math,Cambria Math_MSFontService,sans-serif" font-weight="400" font-size="14.6667" transform="matrix(1 0 0 1.00054 220.946 187)">𝑧</text><text font-family="Cambria Math,Cambria Math_MSFontService,sans-serif" font-weight="400" font-size="10.7067" transform="matrix(1 0 0 1.00054 227.749 190)">2</text><text font-family="Cambria Math,Cambria Math_MSFontService,sans-serif" font-weight="400" font-size="14.6667" transform="matrix(1 0 0 1.00054 336.139 298)">𝑧</text><text font-family="Cambria Math,Cambria Math_MSFontService,sans-serif" font-weight="400" font-size="10.7067" transform="matrix(1 0 0 1.00054 342.603 301)">1</text><text font-family="Cambria Math,Cambria Math_MSFontService,sans-serif" font-weight="400" font-size="14.6667" transform="matrix(1 0 0 1.00054 86.4865 244)">𝑥</text><text font-family="Cambria Math,Cambria Math_MSFontService,sans-serif" font-weight="400" font-size="14.6667" transform="matrix(1 0 0 1.00054 493.6 224)">𝑦</text><text font-family="Cambria Math,Cambria Math_MSFontService,sans-serif" font-weight="400" font-size="14.6667" transform="matrix(1 0 0 1.00054 269.544 242)">𝑧</text><path d="M101.599 238.214 109.713 234.655 118.333 231.216 127.408 227.954 136.904 224.918 146.788 222.158 157.026 219.723 167.583 217.662 178.425 216.027 189.519 214.865 200.829 214.227 212.322 214.163 223.963 214.723 235.718 215.956 247.552 217.912 259.43 220.642 264.902 222.277 264.33 224.194 258.889 222.568 258.951 222.584 247.135 219.869 247.196 219.881 235.421 217.934 235.48 217.942 223.783 216.715 223.839 216.719 212.253 216.162 212.306 216.163 200.866 216.227 200.916 216.225 189.655 216.86 189.703 216.857 178.656 218.013 178.701 218.008 167.902 219.637 167.945 219.629 157.429 221.682 157.469 221.673 147.27 224.099 147.307 224.089 137.46 226.839 137.495 226.829 128.033 229.854 128.067 229.842 119.025 233.092 119.057 233.08 110.469 236.506 110.5 236.493 102.401 240.046ZM264.483 219.021 271 225.143 262.195 226.687Z" fill="#172C51"/><path d="M277.297 227.413 280.982 223.768 285.793 219.373 291.733 214.478 298.815 209.323 307.053 204.151 316.46 199.2 327.05 194.712 338.835 190.927 351.826 188.086 366.023 186.43 373.601 186.121 381.474 186.197 389.657 186.689 398.151 187.626 406.957 189.038 416.077 190.955 425.512 193.406 435.263 196.421 445.333 200.029 455.722 204.261 466.433 209.144 471.5 211.701 470.6 213.487 465.551 210.939 465.586 210.956 454.912 206.089 454.95 206.105 444.599 201.89 444.639 201.905 434.61 198.312 434.652 198.326 424.943 195.324 424.987 195.336 415.597 192.897 415.643 192.908 406.569 191.001 406.617 191.009 397.858 189.605 397.907 189.611 389.462 188.68 389.512 188.684 381.379 188.195 381.429 188.197 373.606 188.121 373.657 188.12 366.142 188.427 366.217 188.421 352.107 190.066 352.205 190.05 339.308 192.87 339.4 192.845 327.704 196.602 327.788 196.571 317.278 201.025 317.354 200.989 308.017 205.903 308.083 205.865 299.907 210.999 299.963 210.961 292.933 216.077 292.981 216.041 287.084 220.9 287.122 220.867 282.345 225.232 282.374 225.204 278.703 228.835ZM471.66 208.422 477 215.595 468.061 215.565Z" fill="#172C51"/><text font-family="Cambria Math,Cambria Math_MSFontService,sans-serif" font-weight="400" font-size="14.6667" transform="matrix(1 0 0 1.00054 371.674 181)">𝑭</text><text font-family="Cambria Math,Cambria Math_MSFontService,sans-serif" font-weight="400" font-size="10.7067" transform="matrix(1 0 0 1.00054 381.002 184)">2</text><text font-family="Cambria Math,Cambria Math_MSFontService,sans-serif" font-weight="400" font-size="14.6667" transform="matrix(1 0 0 1.00054 172.818 210)">𝑭</text><text font-family="Cambria Math,Cambria Math_MSFontService,sans-serif" font-weight="400" font-size="10.7067" transform="matrix(1 0 0 1.00054 181.806 213)">1</text><text font-family="Yu Gothic,Yu Gothic_MSFontService,sans-serif" font-weight="400" font-size="14.6667" transform="matrix(1 0 0 1.00054 478.995 207)">多様体</text><text font-family="Cambria Math,Cambria Math_MSFontService,sans-serif" font-weight="400" font-size="14.6667" transform="matrix(1 0 0 1.00054 522.971 207)"></text><text font-family="Cambria Math,Cambria Math_MSFontService,sans-serif" font-weight="400" font-size="14.6667" transform="matrix(1 0 0 1.00054 526.136 207)">𝒮</text><path d="M274 227.624C274 225.69 275.567 224.122 277.5 224.122 279.433 224.122 281 225.69 281 227.624 281 229.558 279.433 231.126 277.5 231.126 275.567 231.126 274 229.558 274 227.624Z" fill="#4472C4" fill-rule="evenodd"/><path d="M98 239.63C98 237.696 99.567 236.129 101.5 236.129 103.433 236.129 105 237.696 105 239.63 105 241.565 103.433 243.132 101.5 243.132 99.567 243.132 98 241.565 98 239.63Z" fill="#4472C4" fill-rule="evenodd"/><text font-family="Yu Gothic,Yu Gothic_MSFontService,sans-serif" font-weight="700" font-size="14.6667" transform="matrix(1 0 0 1.00054 248.194 351)">潜在空間</text><text font-family="Yu Gothic,Yu Gothic_MSFontService,sans-serif" font-weight="700" font-size="14.6667" transform="matrix(1 0 0 1.00054 403.103 350)">多様体</text><text font-family="Calibri,Calibri_MSFontService,sans-serif" font-weight="700" font-size="14.6667" transform="matrix(1 0 0 1.00054 450.41 350)">S</text><text font-family="Yu Gothic,Yu Gothic_MSFontService,sans-serif" font-weight="700" font-size="14.6667" transform="matrix(1 0 0 1.00054 460.738 350)">が埋め込まれる</text><text font-family="Yu Gothic,Yu Gothic_MSFontService,sans-serif" font-weight="700" font-size="14.6667" transform="matrix(1 0 0 1.00054 403.103 367)">高次元空間</text><text font-family="Yu Gothic,Yu Gothic_MSFontService,sans-serif" font-weight="700" font-size="14.6667" transform="matrix(1 0 0 1.00054 28.2222 352)">入力データ空間</text><path d="M160.5 36.5198 213.5 65.85 213.5 110.246 160.5 139.576Z" stroke="#172C51" stroke-width="1.33333" stroke-miterlimit="8" fill="#00B050" fill-rule="evenodd" fill-opacity="0.101961"/><path d="M0 53 29.3143 0 72.6857 0 102 53Z" stroke="#172C51" stroke-width="1.33261" stroke-miterlimit="8" fill="#00B050" fill-rule="evenodd" fill-opacity="0.101961" transform="matrix(1.83697e-16 1.00054 1 -1.83797e-16 359.5 37.5204)"/><text font-family="Yu Gothic,Yu Gothic_MSFontService,sans-serif" font-weight="700" font-size="14.6667" transform="matrix(1 0 0 1.00054 144.266 23)">エンコーダー</text><text font-family="Yu Gothic,Yu Gothic_MSFontService,sans-serif" font-weight="700" font-size="14.6667" transform="matrix(1 0 0 1.00054 354.671 23)">デコーダー</text><text font-family="Cambria Math,Cambria Math_MSFontService,sans-serif" font-weight="400" font-size="14.6667" transform="matrix(1 0 0 1.00054 99.2537 86)">𝑥</text><text font-family="Cambria Math,Cambria Math_MSFontService,sans-serif" font-weight="400" font-size="14.6667" transform="matrix(1 0 0 1.00054 469.492 84)">𝑦</text><text font-family="Cambria Math,Cambria Math_MSFontService,sans-serif" font-weight="400" font-size="14.6667" transform="matrix(1 0 0 1.00054 285.536 86)">𝑧</text><text font-family="Yu Gothic,Yu Gothic_MSFontService,sans-serif" font-weight="700" font-size="14.6667" transform="matrix(1 0 0 1.00054 264.494 118)">潜在変数</text><text font-family="Cambria Math,Cambria Math_MSFontService,sans-serif" font-weight="400" font-size="14.6667" transform="matrix(1 0 0 1.00054 378.053 89)">𝑭</text><text font-family="Cambria Math,Cambria Math_MSFontService,sans-serif" font-weight="400" font-size="10.7067" transform="matrix(1 0 0 1.00054 387.381 92)">2</text><text font-family="Cambria Math,Cambria Math_MSFontService,sans-serif" font-weight="400" font-size="14.6667" transform="matrix(1 0 0 1.00054 179.197 87)">𝑭</text><text font-family="Cambria Math,Cambria Math_MSFontService,sans-serif" font-weight="400" font-size="10.7067" transform="matrix(1 0 0 1.00054 188.185 90)">1</text><path d="M119 87.048 154.337 87.048 154.337 89.048 119 89.048ZM153.004 84.048 161 88.048 153.004 92.048Z" fill="#172C51"/><path d="M213 87.048 248.337 87.048 248.337 89.048 213 89.048ZM247.004 84.048 255 88.048 247.004 92.048Z" fill="#172C51"/><path d="M316 87.048 351.337 87.048 351.337 89.048 316 89.048ZM350.004 84.048 358 88.048 350.004 92.048Z" fill="#172C51"/><path d="M414 88.0485 449.337 88.0485 449.337 90.0485 414 90.0485ZM448.004 85.0485 456 89.0485 448.004 93.0485Z" fill="#172C51"/></g></svg>