<svg width="832" height="180" xmlns="http://www.w3.org/2000/svg" xmlns:xlink="http://www.w3.org/1999/xlink" overflow="hidden"><defs><clipPath id="clip0"><rect x="0" y="0" width="832" height="180"/></clipPath></defs><g clip-path="url(#clip0)"><rect x="0" y="0" width="832" height="180.393" fill="#FFFFFF"/><path d="M29.0978 24.4742 171.59 24.4742 171.59 57.2371 29.0978 57.2371Z" fill="#2E75B6" fill-rule="evenodd"/><path d="M171.59 24.4742 802.902 24.4742 802.902 57.2371 171.59 57.2371Z" fill="#FFFFFF" fill-rule="evenodd"/><path d="M29.0978 57.2371 171.59 57.2371 171.59 90 29.0978 90Z" fill="#2E75B6" fill-rule="evenodd"/><path d="M171.59 57.2371 802.902 57.2371 802.902 90 171.59 90Z" fill="#FFFFFF" fill-rule="evenodd"/><path d="M29.0978 90 171.59 90 171.59 122.763 29.0978 122.763Z" fill="#2E75B6" fill-rule="evenodd"/><path d="M171.59 90 802.902 90 802.902 122.763 171.59 122.763Z" fill="#FFFFFF" fill-rule="evenodd"/><path d="M29.0978 122.763 171.59 122.763 171.59 155.526 29.0978 155.526Z" fill="#2E75B6" fill-rule="evenodd"/><path d="M171.59 122.763 802.902 122.763 802.902 155.526 171.59 155.526Z" fill="#FFFFFF" fill-rule="evenodd"/><path d="M171.59 23.8057 171.59 156.194" stroke="#000000" stroke-width="1.33414" stroke-linejoin="round" stroke-miterlimit="10" fill="none" fill-rule="evenodd"/><path d="M28.4307 57.2371 171.59 57.2371" stroke="#FFFFFF" stroke-width="1.33414" stroke-linejoin="round" stroke-miterlimit="10" fill="none" fill-rule="evenodd"/><path d="M171.59 57.2371 803.569 57.2371" stroke="#000000" stroke-width="1.33414" stroke-linejoin="round" stroke-miterlimit="10" fill="none" fill-rule="evenodd"/><path d="M28.4307 90 171.59 90" stroke="#FFFFFF" stroke-width="1.33414" stroke-linejoin="round" stroke-miterlimit="10" fill="none" fill-rule="evenodd"/><path d="M171.59 90 803.569 90" stroke="#000000" stroke-width="1.33414" stroke-linejoin="round" stroke-miterlimit="10" fill="none" fill-rule="evenodd"/><path d="M28.4307 122.763 171.59 122.763" stroke="#FFFFFF" stroke-width="1.33414" stroke-linejoin="round" stroke-miterlimit="10" fill="none" fill-rule="evenodd"/><path d="M171.59 122.763 803.569 122.763" stroke="#000000" stroke-width="1.33414" stroke-linejoin="round" stroke-miterlimit="10" fill="none" fill-rule="evenodd"/><path d="M29.0978 23.8057 29.0978 156.194" stroke="#000000" stroke-width="1.33414" stroke-linejoin="round" stroke-miterlimit="10" fill="none" fill-rule="evenodd"/><path d="M802.902 23.8057 802.902 156.194" stroke="#000000" stroke-width="1.33414" stroke-linejoin="round" stroke-miterlimit="10" fill="none" fill-rule="evenodd"/><path d="M28.4307 24.4742 803.569 24.4742" stroke="#000000" stroke-width="1.33414" stroke-linejoin="round" stroke-miterlimit="10" fill="none" fill-rule="evenodd"/><path d="M28.4307 155.526 803.569 155.526" stroke="#000000" stroke-width="1.33414" stroke-linejoin="round" stroke-miterlimit="10" fill="none" fill-rule="evenodd"/><text font-family="Yu Gothic,Yu Gothic_MSFontService,sans-serif" font-weight="700" font-size="19" transform="matrix(1 0 0 1.00218 175.371 46)">五感で感じて、「気づく、わかる」</text><text fill="#FFFFFF" font-family="Yu Gothic,Yu Gothic_MSFontService,sans-serif" font-weight="700" font-size="19" transform="matrix(1 0 0 1.00218 32.8796 46)">notice</text><text font-family="Yu Gothic,Yu Gothic_MSFontService,sans-serif" font-weight="700" font-size="19" transform="matrix(1 0 0 1.00218 175.371 79)">状況を頭の中で理解する。「気づく、悟る」</text><text fill="#FFFFFF" font-family="Yu Gothic,Yu Gothic_MSFontService,sans-serif" font-weight="700" font-size="19" transform="matrix(1 0 0 1.00218 32.8796 79)">realize</text><text font-family="Yu Gothic,Yu Gothic_MSFontService,sans-serif" font-weight="700" font-size="19" transform="matrix(1 0 0 1.00218 175.371 112)">見覚えがあると気づく。「気づく、見分けがつく」</text><text fill="#FFFFFF" font-family="Yu Gothic,Yu Gothic_MSFontService,sans-serif" font-weight="700" font-size="19" transform="matrix(1 0 0 1.00218 32.8796 112)">recognize</text><text font-family="Yu Gothic,Yu Gothic_MSFontService,sans-serif" font-weight="700" font-size="19" transform="matrix(1 0 0 1.00218 175.371 145)">気づいている状態。「気づいている、わかっている」</text><text fill="#FFFFFF" font-family="Yu Gothic,Yu Gothic_MSFontService,sans-serif" font-weight="700" font-size="19" transform="matrix(1 0 0 1.00218 32.8796 145)">aware</text></g></svg>