<svg width="567" height="113" xmlns="http://www.w3.org/2000/svg" xmlns:xlink="http://www.w3.org/1999/xlink" overflow="hidden"><g><rect x="0" y="0" width="567" height="112.668" fill="#FFFFFF"/><path d="M22.6075 20.1558 179.817 20.1558 179.817 56.5 22.6075 56.5Z" fill="#2E75B6" fill-rule="evenodd"/><path d="M179.817 20.1558 544.392 20.1558 544.392 56.5 179.817 56.5Z" fill="#FFFFFF" fill-rule="evenodd"/><path d="M22.6075 56.5 179.817 56.5 179.817 92.8442 22.6075 92.8442Z" fill="#2E75B6" fill-rule="evenodd"/><path d="M179.817 56.5 544.392 56.5 544.392 92.8442 179.817 92.8442Z" fill="#FFFFFF" fill-rule="evenodd"/><path d="M179.817 19.4911 179.817 93.5089" stroke="#000000" stroke-width="1.33333" stroke-linejoin="round" stroke-miterlimit="10" fill="none" fill-rule="evenodd"/><path d="M21.9408 56.5 179.817 56.5" stroke="#FFFFFF" stroke-width="1.33333" stroke-linejoin="round" stroke-miterlimit="10" fill="none" fill-rule="evenodd"/><path d="M179.817 56.5 545.059 56.5" stroke="#000000" stroke-width="1.33333" stroke-linejoin="round" stroke-miterlimit="10" fill="none" fill-rule="evenodd"/><path d="M22.6075 19.4911 22.6075 93.5089" stroke="#000000" stroke-width="1.33333" stroke-linejoin="round" stroke-miterlimit="10" fill="none" fill-rule="evenodd"/><path d="M544.392 19.4911 544.392 93.5089" stroke="#000000" stroke-width="1.33333" stroke-linejoin="round" stroke-miterlimit="10" fill="none" fill-rule="evenodd"/><path d="M21.9408 20.1558 545.059 20.1558" stroke="#000000" stroke-width="1.33333" stroke-linejoin="round" stroke-miterlimit="10" fill="none" fill-rule="evenodd"/><path d="M21.9408 92.8442 545.059 92.8442" stroke="#000000" stroke-width="1.33333" stroke-linejoin="round" stroke-miterlimit="10" fill="none" fill-rule="evenodd"/><text font-family="Yu Gothic,Yu Gothic_MSFontService,sans-serif" font-weight="700" font-size="19" transform="matrix(1 0 0 0.997059 187.376 44)">データを</text><text font-family="Yu Gothic,Yu Gothic_MSFontService,sans-serif" font-weight="700" font-size="19" transform="matrix(1 0 0 0.997059 262.042 44)">サンプリング</text><text font-family="Yu Gothic,Yu Gothic_MSFontService,sans-serif" font-weight="700" font-size="19" transform="matrix(1 0 0 0.997059 374.042 44)">(</text><text font-family="Yu Gothic,Yu Gothic_MSFontService,sans-serif" font-weight="700" font-size="19" transform="matrix(1 0 0 0.997059 381.542 44)">抽出</text><text font-family="Yu Gothic,Yu Gothic_MSFontService,sans-serif" font-weight="700" font-size="19" transform="matrix(1 0 0 0.997059 418.876 44)">)</text><text font-family="Yu Gothic,Yu Gothic_MSFontService,sans-serif" font-weight="700" font-size="19" transform="matrix(1 0 0 0.997059 426.376 44)">した</text><text font-family="Yu Gothic,Yu Gothic_MSFontService,sans-serif" font-weight="700" font-size="19" transform="matrix(1 0 0 0.997059 463.709 44)">回数</text><text fill="#FFFFFF" font-family="Yu Gothic,Yu Gothic_MSFontService,sans-serif" font-weight="700" font-size="19" transform="matrix(1 0 0 0.997059 30.1665 44)">サンプル数</text><text font-family="Yu Gothic,Yu Gothic_MSFontService,sans-serif" font-weight="700" font-size="19" transform="matrix(1 0 0 0.997059 187.376 80)">一回のサンプリングで取得するデータ数</text><text fill="#FFFFFF" font-family="Yu Gothic,Yu Gothic_MSFontService,sans-serif" font-weight="700" font-size="19" transform="matrix(1 0 0 0.997059 30.1665 80)">サンプルサイズ</text></g></svg>