<svg width="813" height="359" xmlns="http://www.w3.org/2000/svg" xmlns:xlink="http://www.w3.org/1999/xlink" overflow="hidden"><g><rect x="0" y="0" width="813" height="358.853" fill="#FFFFFF"/><path d="M19.1381 18.4729 159.356 18.4729 159.356 180.211 19.1381 180.211Z" fill="#2E75B6" fill-rule="evenodd"/><path d="M159.356 18.4729 792.795 18.4729 792.795 180.211 159.356 180.211Z" fill="#FFFFFF" fill-rule="evenodd"/><path d="M19.1381 180.211 159.356 180.211 159.356 341.95 19.1381 341.95Z" fill="#2E75B6" fill-rule="evenodd"/><path d="M159.356 180.211 792.795 180.211 792.795 341.95 159.356 341.95Z" fill="#FFFFFF" fill-rule="evenodd"/><path d="M159.356 17.8062 159.356 342.617" stroke="#000000" stroke-width="1.33388" stroke-linejoin="round" stroke-miterlimit="10" fill="none" fill-rule="evenodd"/><path d="M18.4712 180.211 159.356 180.211" stroke="#FFFFFF" stroke-width="1.33388" stroke-linejoin="round" stroke-miterlimit="10" fill="none" fill-rule="evenodd"/><path d="M159.356 180.211 793.462 180.211" stroke="#000000" stroke-width="1.33388" stroke-linejoin="round" stroke-miterlimit="10" fill="none" fill-rule="evenodd"/><path d="M19.1381 17.8062 19.1381 342.617" stroke="#000000" stroke-width="1.33388" stroke-linejoin="round" stroke-miterlimit="10" fill="none" fill-rule="evenodd"/><path d="M792.795 17.8062 792.795 342.617" stroke="#000000" stroke-width="1.33388" stroke-linejoin="round" stroke-miterlimit="10" fill="none" fill-rule="evenodd"/><path d="M18.4712 18.4729 793.462 18.4729" stroke="#000000" stroke-width="1.33388" stroke-linejoin="round" stroke-miterlimit="10" fill="none" fill-rule="evenodd"/><path d="M18.4712 341.95 793.462 341.95" stroke="#000000" stroke-width="1.33388" stroke-linejoin="round" stroke-miterlimit="10" fill="none" fill-rule="evenodd"/><text font-family="Calibri,Calibri_MSFontService,sans-serif" font-weight="700" font-size="18.6667" transform="matrix(1 0 0 0.99959 163.137 40)">(</text><text font-family="Yu Gothic,Yu Gothic_MSFontService,sans-serif" font-weight="700" font-size="18.6667" transform="matrix(1 0 0 0.99959 168.973 40)">直観的には</text><text font-family="Calibri,Calibri_MSFontService,sans-serif" font-weight="700" font-size="18.6667" transform="matrix(1 0 0 0.99959 262.345 40)">)</text><text font-family="Yu Gothic,Yu Gothic_MSFontService,sans-serif" font-weight="700" font-size="18.6667" transform="matrix(1 0 0 0.99959 272.349 40)">関数列を各点で観測した場合に見える収束先</text><text font-family="Yu Gothic,Yu Gothic_MSFontService,sans-serif" font-weight="700" font-size="18.6667" transform="matrix(1 0 0 0.99959 163.137 144)">・任意の</text><text font-family="Cambria Math,Cambria Math_MSFontService,sans-serif" font-weight="400" font-size="18.6667" transform="matrix(1 0 0 0.99959 237.835 144)">𝜺</text><text font-family="Cambria Math,Cambria Math_MSFontService,sans-serif" font-weight="400" font-size="18.6667" transform="matrix(1 0 0 0.99959 252.694 144)">&gt;</text><text font-family="Cambria Math,Cambria Math_MSFontService,sans-serif" font-weight="400" font-size="18.6667" transform="matrix(1 0 0 0.99959 271.888 144)">𝟎</text><text font-family="Yu Gothic,Yu Gothic_MSFontService,sans-serif" font-weight="700" font-size="18.6667" transform="matrix(1 0 0 0.99959 283.06 144)">と</text><text fill="#00B050" font-family="Yu Gothic,Yu Gothic_MSFontService,sans-serif" font-weight="700" font-size="18.6667" transform="matrix(1 0 0 0.99959 301.734 144)">任意の</text><text fill="#00B050" font-family="Cambria Math,Cambria Math_MSFontService,sans-serif" font-weight="400" font-size="18.6667" transform="matrix(1 0 0 0.99959 357.757 144)">𝒙</text><text fill="#00B050" font-family="Cambria Math,Cambria Math_MSFontService,sans-serif" font-weight="400" font-size="18.6667" transform="matrix(1 0 0 0.99959 373.784 144)">∈</text><text fill="#00B050" font-family="Cambria Math,Cambria Math_MSFontService,sans-serif" font-weight="400" font-size="18.6667" transform="matrix(1 0 0 0.99959 385.455 144)"></text><text fill="#00B050" font-family="Yu Gothic,Yu Gothic_MSFontService,sans-serif" font-weight="700" font-size="18.6667" transform="matrix(1 0 0 0.99959 389.623 144)">領域</text><text fill="#00B050" font-family="Yu Gothic,Yu Gothic_MSFontService,sans-serif" font-weight="700" font-size="18.6667" transform="matrix(1 0 0 0.99959 431.14 144)">に対して</text><text font-family="Calibri,Calibri_MSFontService,sans-serif" font-weight="700" font-size="18.6667" transform="matrix(1 0 0 0.99959 505.838 144)">,</text><text font-family="Yu Gothic,Yu Gothic_MSFontService,sans-serif" font-weight="700" font-size="18.6667" transform="matrix(1 0 0 0.99959 514.841 144)">ある</text><text font-family="Cambria Math,Cambria Math_MSFontService,sans-serif" font-weight="400" font-size="18.6667" transform="matrix(1 0 0 0.99959 552.19 144)">𝑵</text><text font-family="Cambria Math,Cambria Math_MSFontService,sans-serif" font-weight="400" font-size="18.6667" transform="matrix(1 0 0 0.99959 571.551 144)">≥</text><text font-family="Cambria Math,Cambria Math_MSFontService,sans-serif" font-weight="400" font-size="18.6667" transform="matrix(1 0 0 0.99959 590.746 144)">𝟏</text><text font-family="Yu Gothic,Yu Gothic_MSFontService,sans-serif" font-weight="700" font-size="18.6667" transform="matrix(1 0 0 0.99959 601.917 144)">が存在し</text><text font-family="Cambria Math,Cambria Math_MSFontService,sans-serif" font-weight="400" font-size="18.6667" transform="matrix(1 0 0 0.99959 181.812 169)">𝒏</text><text font-family="Cambria Math,Cambria Math_MSFontService,sans-serif" font-weight="400" font-size="18.6667" transform="matrix(1 0 0 0.99959 199.005 169)">≥</text><text font-family="Cambria Math,Cambria Math_MSFontService,sans-serif" font-weight="400" font-size="18.6667" transform="matrix(1 0 0 0.99959 218.2 169)">𝑵</text><text font-family="Cambria Math,Cambria Math_MSFontService,sans-serif" font-weight="400" font-size="18.6667" transform="matrix(1 0 0 0.99959 237.561 169)">⟹</text><path d="M215.29 6.18116 216.693 6.18116 216.693 23.1364 215.29 23.1364ZM103.83 6.18116 105.233 6.18116 105.233 23.1364 103.83 23.1364Z" fill-rule="evenodd" transform="matrix(1.00041 0 0 1 163.137 149.081)"/><text font-family="Cambria Math,Cambria Math_MSFontService,sans-serif" font-weight="400" font-size="18.6667" transform="matrix(1 0 0 0.99959 270.668 169)">𝒇</text><text font-family="Cambria Math,Cambria Math_MSFontService,sans-serif" font-weight="400" font-size="13.6267" transform="matrix(1 0 0 0.99959 281.172 173)">𝒏</text><path d="M146.766 6.02029C148.539 6.48798 149.901 7.49777 150.852 9.04965 151.802 10.6015 152.278 12.4738 152.278 14.6665 152.278 16.8652 151.804 18.7375 150.856 20.2833 149.909 21.8291 148.545 22.8359 146.766 23.3036L146.547 22.602C147.95 22.1343 148.993 21.2111 149.676 19.8323 150.36 18.4536 150.701 16.7012 150.701 14.5754 150.701 12.5224 150.361 10.8172 149.681 9.45964 149.001 8.10212 147.947 7.18952 146.52 6.72183ZM134.745 6.02029 134.991 6.72183C133.57 7.18952 132.518 8.10212 131.834 9.45964 131.151 10.8172 130.809 12.5224 130.809 14.5754 130.809 16.7012 131.151 18.4536 131.834 19.8323 132.518 21.2111 133.561 22.1343 134.964 22.602L134.745 23.3036C132.966 22.8359 131.602 21.8291 130.655 20.2833 129.707 18.7375 129.233 16.8652 129.233 14.6665 129.233 12.4738 129.709 10.6015 130.659 9.04965 131.61 7.49777 132.972 6.48798 134.745 6.02029Z" fill-rule="evenodd" transform="matrix(1.00041 0 0 1 163.137 149.081)"/><text font-family="Cambria Math,Cambria Math_MSFontService,sans-serif" font-weight="400" font-size="18.6667" transform="matrix(1 0 0 0.99959 298.533 169)">𝒙</text><text font-family="Cambria Math,Cambria Math_MSFontService,sans-serif" font-weight="400" font-size="18.6667" transform="matrix(1 0 0 0.99959 321.269 169)">−</text><text font-family="Cambria Math,Cambria Math_MSFontService,sans-serif" font-weight="400" font-size="18.6667" transform="matrix(1 0 0 0.99959 339.423 169)">𝒇</text><path d="M205.886 6.02029C207.659 6.48798 209.021 7.49777 209.972 9.04965 210.922 10.6015 211.398 12.4738 211.398 14.6665 211.398 16.8652 210.924 18.7375 209.976 20.2833 209.029 21.8291 207.665 22.8359 205.886 23.3036L205.667 22.602C207.07 22.1343 208.113 21.2111 208.796 19.8323 209.48 18.4536 209.821 16.7012 209.821 14.5754 209.821 12.5224 209.481 10.8172 208.801 9.45964 208.121 8.10212 207.067 7.18952 205.64 6.72183ZM193.865 6.02029 194.111 6.72183C192.69 7.18952 191.638 8.10212 190.954 9.45964 190.271 10.8172 189.929 12.5224 189.929 14.5754 189.929 16.7012 190.271 18.4536 190.954 19.8323 191.638 21.2111 192.681 22.1343 194.084 22.602L193.865 23.3036C192.086 22.8359 190.722 21.8291 189.775 20.2833 188.827 18.7375 188.353 16.8652 188.353 14.6665 188.353 12.4738 188.829 10.6015 189.779 9.04965 190.73 7.49777 192.092 6.48798 193.865 6.02029Z" fill-rule="evenodd" transform="matrix(1.00041 0 0 1 163.137 149.081)"/><text font-family="Cambria Math,Cambria Math_MSFontService,sans-serif" font-weight="400" font-size="18.6667" transform="matrix(1 0 0 0.99959 357.677 169)">𝒙</text><text font-family="Cambria Math,Cambria Math_MSFontService,sans-serif" font-weight="400" font-size="18.6667" transform="matrix(1 0 0 0.99959 387.362 169)">&lt;</text><text font-family="Cambria Math,Cambria Math_MSFontService,sans-serif" font-weight="400" font-size="18.6667" transform="matrix(1 0 0 0.99959 406.557 169)">𝜺</text><text fill="#FFFFFF" font-family="Yu Gothic,Yu Gothic_MSFontService,sans-serif" font-weight="700" font-size="18.6667" transform="matrix(1 0 0 0.99959 22.9192 40)">各点収束</text><text fill="#FFFFFF" font-family="Yu Gothic,Yu Gothic_MSFontService,sans-serif" font-weight="700" font-size="18.6667" transform="matrix(1 0 0 0.99959 22.9192 66)">Pointwise</text><text fill="#FFFFFF" font-family="Yu Gothic,Yu Gothic_MSFontService,sans-serif" font-weight="700" font-size="18.6667" transform="matrix(1 0 0 0.99959 22.9192 92)">Convergence</text><text font-family="Calibri,Calibri_MSFontService,sans-serif" font-weight="700" font-size="18.6667" transform="matrix(1 0 0 0.99959 163.137 202)">(</text><text font-family="Yu Gothic,Yu Gothic_MSFontService,sans-serif" font-weight="700" font-size="18.6667" transform="matrix(1 0 0 0.99959 168.973 202)">直観的には</text><text font-family="Calibri,Calibri_MSFontService,sans-serif" font-weight="700" font-size="18.6667" transform="matrix(1 0 0 0.99959 262.345 202)">)</text><text font-family="Yu Gothic,Yu Gothic_MSFontService,sans-serif" font-weight="700" font-size="18.6667" transform="matrix(1 0 0 0.99959 272.349 202)">関数列と収束先の関数との差分上限が</text><text font-family="Calibri,Calibri_MSFontService,sans-serif" font-weight="700" font-size="18.6667" transform="matrix(1 0 0 0.99959 593.981 202)">0</text><text font-family="Yu Gothic,Yu Gothic_MSFontService,sans-serif" font-weight="700" font-size="18.6667" transform="matrix(1 0 0 0.99959 607.653 202)">になる</text><text font-family="Yu Gothic,Yu Gothic_MSFontService,sans-serif" font-weight="700" font-size="18.6667" transform="matrix(1 0 0 0.99959 163.137 306)">・任意の</text><text font-family="Cambria Math,Cambria Math_MSFontService,sans-serif" font-weight="400" font-size="18.6667" transform="matrix(1 0 0 0.99959 237.835 306)">𝜺</text><text font-family="Cambria Math,Cambria Math_MSFontService,sans-serif" font-weight="400" font-size="18.6667" transform="matrix(1 0 0 0.99959 252.694 306)">&gt;</text><text font-family="Cambria Math,Cambria Math_MSFontService,sans-serif" font-weight="400" font-size="18.6667" transform="matrix(1 0 0 0.99959 271.888 306)">𝟎</text><text font-family="Yu Gothic,Yu Gothic_MSFontService,sans-serif" font-weight="700" font-size="18.6667" transform="matrix(1 0 0 0.99959 283.06 306)">に対して</text><text font-family="Calibri,Calibri_MSFontService,sans-serif" font-weight="700" font-size="18.6667" transform="matrix(1 0 0 0.99959 357.757 306)">,</text><text font-family="Yu Gothic,Yu Gothic_MSFontService,sans-serif" font-weight="700" font-size="18.6667" transform="matrix(1 0 0 0.99959 366.761 306)">ある</text><text font-family="Cambria Math,Cambria Math_MSFontService,sans-serif" font-weight="400" font-size="18.6667" transform="matrix(1 0 0 0.99959 404.109 306)">𝑵</text><text font-family="Cambria Math,Cambria Math_MSFontService,sans-serif" font-weight="400" font-size="18.6667" transform="matrix(1 0 0 0.99959 423.471 306)">≥</text><text font-family="Cambria Math,Cambria Math_MSFontService,sans-serif" font-weight="400" font-size="18.6667" transform="matrix(1 0 0 0.99959 442.665 306)">𝟏</text><text font-family="Yu Gothic,Yu Gothic_MSFontService,sans-serif" font-weight="700" font-size="18.6667" transform="matrix(1 0 0 0.99959 453.836 306)">が存</text><text font-family="Yu Gothic,Yu Gothic_MSFontService,sans-serif" font-weight="700" font-size="18.6667" transform="matrix(1 0 0 0.99959 491.185 306)">在し</text><text font-family="Calibri,Calibri_MSFontService,sans-serif" font-weight="700" font-size="18.6667" transform="matrix(1 0 0 0.99959 528.534 306)">,</text><text fill="#00B050" font-family="Yu Gothic,Yu Gothic_MSFontService,sans-serif" font-weight="700" font-size="18.6667" transform="matrix(1 0 0 0.99959 537.537 306)">任意の</text><text fill="#00B050" font-family="Cambria Math,Cambria Math_MSFontService,sans-serif" font-weight="400" font-size="18.6667" transform="matrix(1 0 0 0.99959 593.56 306)">𝒙</text><text fill="#00B050" font-family="Cambria Math,Cambria Math_MSFontService,sans-serif" font-weight="400" font-size="18.6667" transform="matrix(1 0 0 0.99959 609.587 306)">∈</text><text fill="#00B050" font-family="Cambria Math,Cambria Math_MSFontService,sans-serif" font-weight="400" font-size="18.6667" transform="matrix(1 0 0 0.99959 621.258 306)"></text><text fill="#00B050" font-family="Yu Gothic,Yu Gothic_MSFontService,sans-serif" font-weight="700" font-size="18.6667" transform="matrix(1 0 0 0.99959 625.427 306)">領域</text><text fill="#00B050" font-family="Yu Gothic,Yu Gothic_MSFontService,sans-serif" font-weight="700" font-size="18.6667" transform="matrix(1 0 0 0.99959 666.944 306)">に対して</text><text font-family="Cambria Math,Cambria Math_MSFontService,sans-serif" font-weight="400" font-size="18.6667" transform="matrix(1 0 0 0.99959 181.812 331)">𝒏</text><text font-family="Cambria Math,Cambria Math_MSFontService,sans-serif" font-weight="400" font-size="18.6667" transform="matrix(1 0 0 0.99959 199.005 331)">≥</text><text font-family="Cambria Math,Cambria Math_MSFontService,sans-serif" font-weight="400" font-size="18.6667" transform="matrix(1 0 0 0.99959 218.2 331)">𝑵</text><text font-family="Cambria Math,Cambria Math_MSFontService,sans-serif" font-weight="400" font-size="18.6667" transform="matrix(1 0 0 0.99959 237.561 331)">⟹</text><path d="M215.29 6.18116 216.693 6.18116 216.693 23.1364 215.29 23.1364ZM103.83 6.18116 105.233 6.18116 105.233 23.1364 103.83 23.1364Z" fill-rule="evenodd" transform="matrix(1.00041 0 0 1 163.137 310.753)"/><text font-family="Cambria Math,Cambria Math_MSFontService,sans-serif" font-weight="400" font-size="18.6667" transform="matrix(1 0 0 0.99959 270.668 331)">𝒇</text><text font-family="Cambria Math,Cambria Math_MSFontService,sans-serif" font-weight="400" font-size="13.6267" transform="matrix(1 0 0 0.99959 281.172 335)">𝒏</text><path d="M146.766 6.02029C148.539 6.48798 149.901 7.49777 150.852 9.04965 151.802 10.6015 152.278 12.4738 152.278 14.6665 152.278 16.8652 151.804 18.7375 150.856 20.2833 149.909 21.8291 148.545 22.8359 146.766 23.3036L146.547 22.602C147.95 22.1343 148.993 21.2111 149.676 19.8323 150.36 18.4536 150.701 16.7012 150.701 14.5754 150.701 12.5224 150.361 10.8172 149.681 9.45964 149.001 8.10212 147.947 7.18952 146.52 6.72183ZM134.745 6.02029 134.991 6.72183C133.57 7.18952 132.518 8.10212 131.834 9.45964 131.151 10.8172 130.809 12.5224 130.809 14.5754 130.809 16.7012 131.151 18.4536 131.834 19.8323 132.518 21.2111 133.561 22.1343 134.964 22.602L134.745 23.3036C132.966 22.8359 131.602 21.8291 130.655 20.2833 129.707 18.7375 129.233 16.8652 129.233 14.6665 129.233 12.4738 129.709 10.6015 130.659 9.04965 131.61 7.49777 132.972 6.48798 134.745 6.02029Z" fill-rule="evenodd" transform="matrix(1.00041 0 0 1 163.137 310.753)"/><text font-family="Cambria Math,Cambria Math_MSFontService,sans-serif" font-weight="400" font-size="18.6667" transform="matrix(1 0 0 0.99959 298.533 331)">𝒙</text><text font-family="Cambria Math,Cambria Math_MSFontService,sans-serif" font-weight="400" font-size="18.6667" transform="matrix(1 0 0 0.99959 321.269 331)">−</text><text font-family="Cambria Math,Cambria Math_MSFontService,sans-serif" font-weight="400" font-size="18.6667" transform="matrix(1 0 0 0.99959 339.423 331)">𝒇</text><path d="M205.886 6.02029C207.659 6.48798 209.021 7.49777 209.972 9.04965 210.922 10.6015 211.398 12.4738 211.398 14.6665 211.398 16.8652 210.924 18.7375 209.976 20.2833 209.029 21.8291 207.665 22.8359 205.886 23.3036L205.667 22.602C207.07 22.1343 208.113 21.2111 208.796 19.8323 209.48 18.4536 209.821 16.7012 209.821 14.5754 209.821 12.5224 209.481 10.8172 208.801 9.45964 208.121 8.10212 207.067 7.18952 205.64 6.72183ZM193.865 6.02029 194.111 6.72183C192.69 7.18952 191.638 8.10212 190.954 9.45964 190.271 10.8172 189.929 12.5224 189.929 14.5754 189.929 16.7012 190.271 18.4536 190.954 19.8323 191.638 21.2111 192.681 22.1343 194.084 22.602L193.865 23.3036C192.086 22.8359 190.722 21.8291 189.775 20.2833 188.827 18.7375 188.353 16.8652 188.353 14.6665 188.353 12.4738 188.829 10.6015 189.779 9.04965 190.73 7.49777 192.092 6.48798 193.865 6.02029Z" fill-rule="evenodd" transform="matrix(1.00041 0 0 1 163.137 310.753)"/><text font-family="Cambria Math,Cambria Math_MSFontService,sans-serif" font-weight="400" font-size="18.6667" transform="matrix(1 0 0 0.99959 357.677 331)">𝒙</text><text font-family="Cambria Math,Cambria Math_MSFontService,sans-serif" font-weight="400" font-size="18.6667" transform="matrix(1 0 0 0.99959 387.362 331)">&lt;</text><text font-family="Cambria Math,Cambria Math_MSFontService,sans-serif" font-weight="400" font-size="18.6667" transform="matrix(1 0 0 0.99959 406.557 331)">𝜺</text><text fill="#FFFFFF" font-family="Yu Gothic,Yu Gothic_MSFontService,sans-serif" font-weight="700" font-size="18.6667" transform="matrix(1 0 0 0.99959 22.9192 202)">一様</text><text fill="#FFFFFF" font-family="Yu Gothic,Yu Gothic_MSFontService,sans-serif" font-weight="700" font-size="18.6667" transform="matrix(1 0 0 0.99959 60.2679 202)">収束</text><text fill="#FFFFFF" font-family="Yu Gothic,Yu Gothic_MSFontService,sans-serif" font-weight="700" font-size="18.6667" transform="matrix(1 0 0 0.99959 22.9192 228)">Uniform</text><text fill="#FFFFFF" font-family="Yu Gothic,Yu Gothic_MSFontService,sans-serif" font-weight="700" font-size="18.6667" transform="matrix(1 0 0 0.99959 22.9192 254)">Con</text><text fill="#FFFFFF" font-family="Yu Gothic,Yu Gothic_MSFontService,sans-serif" font-weight="700" font-size="18.6667" transform="matrix(1 0 0 0.99959 58.7672 254)">vergence</text><path d="M341.5 273.388C348.178 254.938 353.978 225.312 365.226 224.425 376.473 223.538 382.009 257.865 390.005 271.259L583.5 271.259" stroke="#FF0000" stroke-width="1.33388" stroke-miterlimit="8" stroke-opacity="0.101961" fill="none" fill-rule="evenodd"/><path d="M329.5 273.388C336.206 254.938 342.029 225.312 353.324 224.425 364.618 223.538 370.177 257.865 378.206 271.259L572.5 271.259" stroke="#FF0000" stroke-width="1.33388" stroke-miterlimit="8" stroke-opacity="0.2" fill="none" fill-rule="evenodd"/><path d="M318.5 273.388C325.178 254.938 330.978 225.312 342.226 224.425 353.473 223.538 359.009 257.865 367.005 271.259L560.5 271.259" stroke="#FF0000" stroke-width="1.33388" stroke-miterlimit="8" stroke-opacity="0.301961" fill="none" fill-rule="evenodd"/><path d="M307.5 273.388C314.178 254.938 319.978 225.312 331.226 224.425 342.473 223.538 348.009 257.865 356.005 271.259L549.5 271.259" stroke="#FF0000" stroke-width="1.33388" stroke-miterlimit="8" fill="none" fill-rule="evenodd"/><path d="M368.167 226.728 368.167 268.07 366.833 268.07 366.833 226.728ZM362.255 234.392 367.5 225.404 372.745 234.392C372.93 234.71 372.823 235.118 372.505 235.303 372.186 235.489 371.778 235.382 371.592 235.063L366.924 227.063 368.076 227.063 363.407 235.063C363.222 235.382 362.814 235.489 362.495 235.303 362.177 235.118 362.07 234.71 362.255 234.392ZM372.745 260.405 367.5 269.393 362.255 260.405C362.07 260.087 362.177 259.679 362.495 259.494 362.814 259.308 363.222 259.416 363.407 259.734L368.076 267.734 366.924 267.734 371.592 259.734C371.778 259.416 372.186 259.308 372.505 259.494 372.823 259.679 372.93 260.087 372.745 260.405Z" fill="#0000FF" fill-opacity="0.101961"/><path d="M355.167 226.728 355.167 268.07 353.833 268.07 353.833 226.728ZM349.255 234.392 354.5 225.404 359.745 234.392C359.93 234.71 359.823 235.118 359.505 235.303 359.186 235.489 358.778 235.382 358.592 235.063L353.924 227.063 355.076 227.063 350.408 235.063C350.222 235.382 349.814 235.489 349.495 235.303 349.177 235.118 349.07 234.71 349.255 234.392ZM359.745 260.405 354.5 269.393 349.255 260.405C349.07 260.087 349.177 259.679 349.495 259.494 349.814 259.308 350.222 259.416 350.408 259.734L355.076 267.734 353.924 267.734 358.592 259.734C358.778 259.416 359.186 259.308 359.505 259.494 359.823 259.679 359.93 260.087 359.745 260.405Z" fill="#0000FF" fill-opacity="0.2"/><path d="M344.167 226.728 344.167 268.07 342.833 268.07 342.833 226.728ZM338.255 234.392 343.5 225.404 348.745 234.392C348.93 234.71 348.823 235.118 348.505 235.303 348.186 235.489 347.778 235.382 347.592 235.063L342.924 227.063 344.076 227.063 339.408 235.063C339.222 235.382 338.814 235.489 338.495 235.303 338.177 235.118 338.07 234.71 338.255 234.392ZM348.745 260.405 343.5 269.393 338.255 260.405C338.07 260.087 338.177 259.679 338.495 259.494 338.814 259.308 339.222 259.416 339.408 259.734L344.076 267.734 342.924 267.734 347.592 259.734C347.778 259.416 348.186 259.308 348.505 259.494 348.823 259.679 348.93 260.087 348.745 260.405Z" fill="#0000FF" fill-opacity="0.301961"/><path d="M332.167 226.728 332.167 268.07 330.833 268.07 330.833 226.728ZM326.255 234.392 331.5 225.404 336.745 234.392C336.93 234.71 336.823 235.118 336.505 235.303 336.186 235.489 335.778 235.382 335.592 235.063L330.924 227.063 332.076 227.063 327.408 235.063C327.222 235.382 326.814 235.489 326.495 235.303 326.177 235.118 326.07 234.71 326.255 234.392ZM336.745 260.405 331.5 269.393 326.255 260.405C326.07 260.087 326.177 259.679 326.495 259.494 326.814 259.308 327.222 259.416 327.408 259.734L332.076 267.734 330.924 267.734 335.592 259.734C335.778 259.416 336.186 259.308 336.505 259.494 336.823 259.679 336.93 260.087 336.745 260.405Z" fill="#0000FF"/><text fill="#0000FF" font-family="Yu Gothic,Yu Gothic_MSFontService,sans-serif" font-weight="400" font-size="14.6667" transform="matrix(1 0 0 0.99959 412.113 242)">差分上限は減らない</text><text fill="#0000FF" font-family="Calibri,Calibri_MSFontService,sans-serif" font-weight="400" font-size="14.6667" transform="matrix(1 0 0 0.99959 412.113 259)">→</text><text fill="#0000FF" font-family="Yu Gothic,Yu Gothic_MSFontService,sans-serif" font-weight="400" font-size="14.6667" transform="matrix(1 0 0 0.99959 425.452 259)">一様収束しない</text><path d="M361.5 227.407 369.5 219.41 369.5 223.408 386.5 223.408 386.5 231.405 369.5 231.405 369.5 235.403Z" stroke="#FF0000" stroke-width="1.33388" stroke-miterlimit="8" fill="none" fill-rule="evenodd"/><path d="M341.5 104.457C348.178 86.0072 353.978 56.3811 365.226 55.4941 376.473 54.6072 382.009 88.9344 390.005 102.328L583.5 102.328" stroke="#FF0000" stroke-width="1.33388" stroke-miterlimit="8" stroke-opacity="0.101961" fill="none" fill-rule="evenodd"/><path d="M329.5 104.457C336.206 86.0072 342.029 56.3811 353.324 55.4941 364.618 54.6072 370.177 88.9344 378.206 102.328L572.5 102.328" stroke="#FF0000" stroke-width="1.33388" stroke-miterlimit="8" stroke-opacity="0.2" fill="none" fill-rule="evenodd"/><path d="M318.5 104.457C325.178 86.0072 330.978 56.3811 342.226 55.4941 353.473 54.6072 359.009 88.9344 367.005 102.328L560.5 102.328" stroke="#FF0000" stroke-width="1.33388" stroke-miterlimit="8" stroke-opacity="0.301961" fill="none" fill-rule="evenodd"/><path d="M307.5 104.457C314.178 86.0072 319.978 56.3811 331.226 55.4941 342.473 54.6072 348.009 88.9344 356.005 102.328L549.5 102.328" stroke="#FF0000" stroke-width="1.33388" stroke-miterlimit="8" fill="none" fill-rule="evenodd"/><path d="M378.5 100.959C378.5 97.9223 380.739 95.4609 383.5 95.4609 386.261 95.4609 388.5 97.9223 388.5 100.959 388.5 103.995 386.261 106.456 383.5 106.456 380.739 106.456 378.5 103.995 378.5 100.959Z" stroke="#0000FF" stroke-width="1.33388" stroke-miterlimit="8" fill="none" fill-rule="evenodd"/><text fill="#0000FF" font-family="Calibri,Calibri_MSFontService,sans-serif" font-weight="400" font-size="14.6667" transform="matrix(1 0 0 0.99959 378.687 118)">→</text><text fill="#0000FF" font-family="Calibri,Calibri_MSFontService,sans-serif" font-weight="400" font-size="14.6667" transform="matrix(1 0 0 0.99959 392.026 118)">0</text><path d="M356.5 101.958C356.5 98.9219 358.739 96.4605 361.5 96.4605 364.261 96.4605 366.5 98.9219 366.5 101.958 366.5 104.995 364.261 107.456 361.5 107.456 358.739 107.456 356.5 104.995 356.5 101.958Z" stroke="#0000FF" stroke-width="1.33388" stroke-miterlimit="8" fill="none" fill-rule="evenodd"/><text fill="#0000FF" font-family="Calibri,Calibri_MSFontService,sans-serif" font-weight="400" font-size="14.6667" transform="matrix(1 0 0 0.99959 356.012 119)">→</text><text fill="#0000FF" font-family="Calibri,Calibri_MSFontService,sans-serif" font-weight="400" font-size="14.6667" transform="matrix(1 0 0 0.99959 369.35 119)">0</text><path d="M358.5 60.4752 366.5 52.4784 366.5 56.4768 384.5 56.4768 384.5 64.4736 366.5 64.4736 366.5 68.472Z" stroke="#FF0000" stroke-width="1.33388" stroke-miterlimit="8" fill="none" fill-rule="evenodd"/><text fill="#0000FF" font-family="Yu Gothic,Yu Gothic_MSFontService,sans-serif" font-weight="400" font-size="14.6667" transform="matrix(1 0 0 0.99959 410.469 73)">各点が</text><text fill="#0000FF" font-family="Calibri,Calibri_MSFontService,sans-serif" font-weight="400" font-size="14.6667" transform="matrix(1 0 0 0.99959 454.487 73)">0</text><text fill="#0000FF" font-family="Yu Gothic,Yu Gothic_MSFontService,sans-serif" font-weight="400" font-size="14.6667" transform="matrix(1 0 0 0.99959 461.99 73)">になっていく</text><text fill="#0000FF" font-family="Calibri,Calibri_MSFontService,sans-serif" font-weight="400" font-size="14.6667" transform="matrix(1 0 0 0.99959 410.469 90)">→</text><text fill="#0000FF" font-family="Calibri,Calibri_MSFontService,sans-serif" font-weight="400" font-size="14.6667" transform="matrix(1 0 0 0.99959 427.143 90)">f(x)=0</text><text fill="#0000FF" font-family="Yu Gothic,Yu Gothic_MSFontService,sans-serif" font-weight="400" font-size="14.6667" transform="matrix(1 0 0 0.99959 465.158 90)">に</text><text fill="#0000FF" font-family="Calibri,Calibri_MSFontService,sans-serif" font-weight="400" font-size="14.6667" transform="matrix(1 0 0 0.99959 479.831 90)">(</text><text fill="#0000FF" font-family="Yu Gothic,Yu Gothic_MSFontService,sans-serif" font-weight="400" font-size="14.6667" transform="matrix(1 0 0 0.99959 484.333 90)">各点</text><text fill="#0000FF" font-family="Calibri,Calibri_MSFontService,sans-serif" font-weight="400" font-size="14.6667" transform="matrix(1 0 0 0.99959 513.678 90)">)</text><text fill="#0000FF" font-family="Yu Gothic,Yu Gothic_MSFontService,sans-serif" font-weight="400" font-size="14.6667" transform="matrix(1 0 0 0.99959 518.18 90)">収束する</text></g></svg>