<svg width="832" height="142" xmlns="http://www.w3.org/2000/svg" xmlns:xlink="http://www.w3.org/1999/xlink" overflow="hidden"><defs><clipPath id="clip0"><rect x="0" y="0" width="832" height="142"/></clipPath></defs><g clip-path="url(#clip0)"><rect x="0" y="0" width="832" height="142.249" fill="#FFFFFF"/><path d="M29.0978 27.5594 171.59 27.5594 171.59 60.3082 29.0978 60.3082Z" fill="#2E75B6" fill-rule="evenodd"/><path d="M171.59 27.5594 802.902 27.5594 802.902 60.3082 171.59 60.3082Z" fill="#FFFFFF" fill-rule="evenodd"/><path d="M29.0978 60.3082 171.59 60.3082 171.59 114.441 29.0978 114.441Z" fill="#2E75B6" fill-rule="evenodd"/><path d="M171.59 60.3082 802.902 60.3082 802.902 114.441 171.59 114.441Z" fill="#FFFFFF" fill-rule="evenodd"/><path d="M171.59 26.8912 171.59 115.109" stroke="#000000" stroke-width="1.33414" stroke-linejoin="round" stroke-miterlimit="10" fill="none" fill-rule="evenodd"/><path d="M28.4307 60.3082 171.59 60.3082" stroke="#FFFFFF" stroke-width="1.33414" stroke-linejoin="round" stroke-miterlimit="10" fill="none" fill-rule="evenodd"/><path d="M171.59 60.3082 803.569 60.3082" stroke="#000000" stroke-width="1.33414" stroke-linejoin="round" stroke-miterlimit="10" fill="none" fill-rule="evenodd"/><path d="M29.0978 26.8912 29.0978 115.109" stroke="#000000" stroke-width="1.33414" stroke-linejoin="round" stroke-miterlimit="10" fill="none" fill-rule="evenodd"/><path d="M802.902 26.8912 802.902 115.109" stroke="#000000" stroke-width="1.33414" stroke-linejoin="round" stroke-miterlimit="10" fill="none" fill-rule="evenodd"/><path d="M28.4307 27.5594 803.569 27.5594" stroke="#000000" stroke-width="1.33414" stroke-linejoin="round" stroke-miterlimit="10" fill="none" fill-rule="evenodd"/><path d="M28.4307 114.441 803.569 114.441" stroke="#000000" stroke-width="1.33414" stroke-linejoin="round" stroke-miterlimit="10" fill="none" fill-rule="evenodd"/><text font-family="Yu Gothic,Yu Gothic_MSFontService,sans-serif" font-weight="700" font-size="19" transform="matrix(1 0 0 1.00175 175.371 49)">事象が確率に従って発生すること</text><text fill="#FFFFFF" font-family="Yu Gothic,Yu Gothic_MSFontService,sans-serif" font-weight="700" font-size="19" transform="matrix(1 0 0 1.00175 32.8796 49)">probabilistic</text><text font-family="Yu Gothic,Yu Gothic_MSFontService,sans-serif" font-weight="700" font-size="19" transform="matrix(1 0 0 1.00175 175.371 82)">一般的には</text><text font-family="Yu Gothic,Yu Gothic_MSFontService,sans-serif" font-weight="700" font-size="19" transform="matrix(1 0 0 1.00175 274.097 82)">probabilistic</text><text font-family="Yu Gothic,Yu Gothic_MSFontService,sans-serif" font-weight="700" font-size="19" transform="matrix(1 0 0 1.00175 392.001 82)">と同義。ランダムであること、時間的に変動す</text><text font-family="Yu Gothic,Yu Gothic_MSFontService,sans-serif" font-weight="700" font-size="19" transform="matrix(1 0 0 1.00175 175.371 103)">ることが強調されるニュアンスがある</text><text font-family="Yu Gothic,Yu Gothic_MSFontService,sans-serif" font-weight="700" font-size="19" transform="matrix(1 0 0 1.00175 492.895 103)">(</text><text font-family="Yu Gothic,Yu Gothic_MSFontService,sans-serif" font-weight="700" font-size="19" transform="matrix(1 0 0 1.00175 500.4 103)">らしい</text><text font-family="Yu Gothic,Yu Gothic_MSFontService,sans-serif" font-weight="700" font-size="19" transform="matrix(1 0 0 1.00175 556.434 103)">)</text><text fill="#FFFFFF" font-family="Yu Gothic,Yu Gothic_MSFontService,sans-serif" font-weight="700" font-size="19" transform="matrix(1 0 0 1.00175 32.8796 82)">stochastic</text></g></svg>