<svg width="813" height="161" xmlns="http://www.w3.org/2000/svg" xmlns:xlink="http://www.w3.org/1999/xlink" overflow="hidden"><defs><clipPath id="clip0"><rect x="0" y="0" width="813" height="161"/></clipPath></defs><g clip-path="url(#clip0)"><rect x="0" y="0" width="813" height="161.268" fill="#FFFFFF"/><path d="M14.2704 17.1969 106.936 17.1969 106.936 56.211 14.2704 56.211Z" fill="#2E75B6" fill-rule="evenodd"/><path d="M106.936 17.1969 453.194 17.1969 453.194 56.211 106.936 56.211Z" fill="#2E75B6" fill-rule="evenodd"/><path d="M453.194 17.1969 799.453 17.1969 799.453 56.211 453.194 56.211Z" fill="#2E75B6" fill-rule="evenodd"/><path d="M106.936 16.5288 106.936 150.406" stroke="#000000" stroke-width="1.33388" stroke-linejoin="round" stroke-miterlimit="10" fill="none" fill-rule="evenodd"/><path d="M453.194 16.5288 453.194 150.406" stroke="#000000" stroke-width="1.33388" stroke-linejoin="round" stroke-miterlimit="10" fill="none" fill-rule="evenodd"/><path d="M13.6035 56.211 800.119 56.211" stroke="#000000" stroke-width="1.33388" stroke-linejoin="round" stroke-miterlimit="10" fill="none" fill-rule="evenodd"/><path d="M13.6035 95.2251 800.119 95.2251" stroke="#000000" stroke-width="1.33388" stroke-linejoin="round" stroke-miterlimit="10" fill="none" fill-rule="evenodd"/><path d="M14.2704 16.5288 14.2704 150.406" stroke="#000000" stroke-width="1.33388" stroke-linejoin="round" stroke-miterlimit="10" fill="none" fill-rule="evenodd"/><path d="M799.453 16.5288 799.453 150.406" stroke="#000000" stroke-width="1.33388" stroke-linejoin="round" stroke-miterlimit="10" fill="none" fill-rule="evenodd"/><path d="M13.6035 17.1969 800.119 17.1969" stroke="#000000" stroke-width="1.33388" stroke-linejoin="round" stroke-miterlimit="10" fill="none" fill-rule="evenodd"/><path d="M13.6035 149.738 800.119 149.738" stroke="#000000" stroke-width="1.33388" stroke-linejoin="round" stroke-miterlimit="10" fill="none" fill-rule="evenodd"/><g><text fill="#FFFFFF" font-family="Yu Gothic,Yu Gothic_MSFontService,sans-serif" font-weight="700" font-size="18.7054" transform="matrix(1 0 0 1.00166 462.798 39)">複製可能性</text></g><text fill="#FFFFFF" font-family="Yu Gothic,Yu Gothic_MSFontService,sans-serif" font-weight="700" font-size="18.7054" transform="matrix(1 0 0 1.00166 561.505 39)">(Replicability)</text><g><text fill="#FFFFFF" font-family="Yu Gothic,Yu Gothic_MSFontService,sans-serif" font-weight="700" font-size="18.7054" transform="matrix(1 0 0 1.00166 116.54 39)">再現可能性</text></g><text fill="#FFFFFF" font-family="Yu Gothic,Yu Gothic_MSFontService,sans-serif" font-weight="700" font-size="18.7054" transform="matrix(1 0 0 1.00166 215.247 39)">(Reproducibility)</text><g><text fill="#FFFFFF" font-family="Yu Gothic,Yu Gothic_MSFontService,sans-serif" font-weight="700" font-size="18.7054" transform="matrix(1 0 0 1.00166 23.8744 39)">項目</text></g><g><text font-family="Yu Gothic,Yu Gothic_MSFontService,sans-serif" font-weight="700" font-size="18.7054" transform="matrix(1 0 0 1.00166 462.798 78)">新しいデータを使用</text></g><g><text font-family="Yu Gothic,Yu Gothic_MSFontService,sans-serif" font-weight="700" font-size="18.7054" transform="matrix(1 0 0 1.00166 116.54 78)">同じデータを使用</text></g><g><text font-family="Yu Gothic,Yu Gothic_MSFontService,sans-serif" font-weight="700" font-size="18.7054" transform="matrix(1 0 0 1.00166 23.8744 78)">データ</text></g><g><text font-family="Yu Gothic,Yu Gothic_MSFontService,sans-serif" font-weight="700" font-size="18.7054" transform="matrix(1 0 0 1.00166 462.798 117)">その現象が他の環境でも同様に起きる</text></g><g><text font-family="Yu Gothic,Yu Gothic_MSFontService,sans-serif" font-weight="700" font-size="18.7054" transform="matrix(1 0 0 1.00166 462.798 140)">かを確認</text></g><g><text font-family="Yu Gothic,Yu Gothic_MSFontService,sans-serif" font-weight="700" font-size="18.7054" transform="matrix(1 0 0 1.00166 116.54 117)">計算や分析プロセスが正しいかを確認</text></g><g><text font-family="Yu Gothic,Yu Gothic_MSFontService,sans-serif" font-weight="700" font-size="18.7054" transform="matrix(1 0 0 1.00166 23.8744 117)">目的</text></g></g></svg>