<svg width="832" height="151" xmlns="http://www.w3.org/2000/svg" xmlns:xlink="http://www.w3.org/1999/xlink" overflow="hidden"><defs><clipPath id="clip0"><rect x="0" y="0" width="832" height="151"/></clipPath></defs><g clip-path="url(#clip0)"><rect x="0" y="0" width="832" height="150.743" fill="#FFFFFF"/><path d="M15.7565 17.5556 107.32 17.5556 107.32 75.9764 15.7565 75.9764Z" fill="#2E75B6" fill-rule="evenodd"/><path d="M107.32 17.5556 789.561 17.5556 789.561 75.9764 107.32 75.9764Z" fill="#FFFFFF" fill-rule="evenodd"/><path d="M15.7565 75.9764 107.32 75.9764 107.32 134.397 15.7565 134.397Z" fill="#2E75B6" fill-rule="evenodd"/><path d="M107.32 75.9764 789.561 75.9764 789.561 134.397 107.32 134.397Z" fill="#FFFFFF" fill-rule="evenodd"/><path d="M107.32 16.8897 107.32 135.063" stroke="#000000" stroke-width="1.33414" stroke-linejoin="round" stroke-miterlimit="10" fill="none" fill-rule="evenodd"/><path d="M15.0894 75.9764 107.32 75.9764" stroke="#FFFFFF" stroke-width="1.33414" stroke-linejoin="round" stroke-miterlimit="10" fill="none" fill-rule="evenodd"/><path d="M107.32 75.9764 790.228 75.9764" stroke="#000000" stroke-width="1.33414" stroke-linejoin="round" stroke-miterlimit="10" fill="none" fill-rule="evenodd"/><path d="M15.7565 16.8897 15.7565 135.063" stroke="#000000" stroke-width="1.33414" stroke-linejoin="round" stroke-miterlimit="10" fill="none" fill-rule="evenodd"/><path d="M789.561 16.8897 789.561 135.063" stroke="#000000" stroke-width="1.33414" stroke-linejoin="round" stroke-miterlimit="10" fill="none" fill-rule="evenodd"/><path d="M15.0894 17.5556 790.228 17.5556" stroke="#000000" stroke-width="1.33414" stroke-linejoin="round" stroke-miterlimit="10" fill="none" fill-rule="evenodd"/><path d="M15.0894 134.397 790.228 134.397" stroke="#000000" stroke-width="1.33414" stroke-linejoin="round" stroke-miterlimit="10" fill="none" fill-rule="evenodd"/><text font-family="Yu Gothic,Yu Gothic_MSFontService,sans-serif" font-weight="700" font-size="18.6461" transform="matrix(1 0 0 0.998297 111.102 39)">検索する。</text><text font-family="Yu Gothic,Yu Gothic_MSFontService,sans-serif" font-weight="700" font-size="18.6461" transform="matrix(1 0 0 0.998297 111.102 65)">どこにあるか分からないものを探す</text><text font-family="Yu Gothic,Yu Gothic_MSFontService,sans-serif" font-weight="700" font-size="18.6461" transform="matrix(1 0 0 0.998297 409.948 65)">(</text><text font-family="Yu Gothic,Yu Gothic_MSFontService,sans-serif" font-weight="700" font-size="18.6461" transform="matrix(1 0 0 0.998297 417.452 65)">見つかる保証はない</text><text font-family="Yu Gothic,Yu Gothic_MSFontService,sans-serif" font-weight="700" font-size="18.6461" transform="matrix(1 0 0 0.998297 585.553 65)">)</text><text font-family="Yu Gothic,Yu Gothic_MSFontService,sans-serif" font-weight="700" font-size="18.6461" transform="matrix(1 0 0 0.998297 593.058 65)">。</text><text fill="#FFFFFF" font-family="Yu Gothic,Yu Gothic_MSFontService,sans-serif" font-weight="700" font-size="18.6461" transform="matrix(1 0 0 0.998297 19.5382 39)">search</text><text font-family="Yu Gothic,Yu Gothic_MSFontService,sans-serif" font-weight="700" font-size="18.6461" transform="matrix(1 0 0 0.998297 111.102 97)">検索する。</text><text font-family="Yu Gothic,Yu Gothic_MSFontService,sans-serif" font-weight="700" font-size="18.6461" transform="matrix(1 0 0 0.998297 111.102 123)">既にあるものを引っぱり出してくる</text><text font-family="Yu Gothic,Yu Gothic_MSFontService,sans-serif" font-weight="700" font-size="18.6461" transform="matrix(1 0 0 0.998297 409.948 123)">(</text><text font-family="Yu Gothic,Yu Gothic_MSFontService,sans-serif" font-weight="700" font-size="18.6461" transform="matrix(1 0 0 0.998297 417.452 123)">見つかるはずのものを探す</text><text font-family="Yu Gothic,Yu Gothic_MSFontService,sans-serif" font-weight="700" font-size="18.6461" transform="matrix(1 0 0 0.998297 641.587 123)">)</text><text font-family="Yu Gothic,Yu Gothic_MSFontService,sans-serif" font-weight="700" font-size="18.6461" transform="matrix(1 0 0 0.998297 649.091 123)">。</text><text fill="#FFFFFF" font-family="Yu Gothic,Yu Gothic_MSFontService,sans-serif" font-weight="700" font-size="18.6461" transform="matrix(1 0 0 0.998297 19.5382 97)">retrieve</text></g></svg>