<svg width="813" height="208" xmlns="http://www.w3.org/2000/svg" xmlns:xlink="http://www.w3.org/1999/xlink" overflow="hidden"><defs><clipPath id="clip0"><rect x="0" y="0" width="813" height="208"/></clipPath></defs><g clip-path="url(#clip0)"><rect x="0" y="0" width="813" height="208.081" fill="#FFFFFF"/><path d="M11.0054 9.94928 122.424 9.94928 122.424 64.3929 11.0054 64.3929Z" fill="#2E75B6" fill-rule="evenodd"/><path d="M122.424 9.94928 461.796 9.94928 461.796 64.3929 122.424 64.3929Z" fill="#2E75B6" fill-rule="evenodd"/><path d="M461.796 9.94928 801.169 9.94928 801.169 64.3929 461.796 64.3929Z" fill="#2E75B6" fill-rule="evenodd"/><path d="M122.424 9.28208 122.424 64.3929" stroke="#FFFFFF" stroke-width="1.33388" stroke-linejoin="round" stroke-miterlimit="10" fill="none" fill-rule="evenodd"/><path d="M122.424 64.3929 122.424 197.433" stroke="#000000" stroke-width="1.33388" stroke-linejoin="round" stroke-miterlimit="10" fill="none" fill-rule="evenodd"/><path d="M461.796 9.28208 461.796 64.3929" stroke="#FFFFFF" stroke-width="1.33388" stroke-linejoin="round" stroke-miterlimit="10" fill="none" fill-rule="evenodd"/><path d="M461.796 64.3929 461.796 197.433" stroke="#000000" stroke-width="1.33388" stroke-linejoin="round" stroke-miterlimit="10" fill="none" fill-rule="evenodd"/><path d="M10.3384 64.3929 801.836 64.3929" stroke="#000000" stroke-width="1.33388" stroke-linejoin="round" stroke-miterlimit="10" fill="none" fill-rule="evenodd"/><path d="M10.3384 103.357 801.836 103.357" stroke="#000000" stroke-width="1.33388" stroke-linejoin="round" stroke-miterlimit="10" fill="none" fill-rule="evenodd"/><path d="M10.3384 157.801 801.836 157.801" stroke="#000000" stroke-width="1.33388" stroke-linejoin="round" stroke-miterlimit="10" fill="none" fill-rule="evenodd"/><path d="M11.0054 9.28208 11.0054 197.433" stroke="#000000" stroke-width="1.33388" stroke-linejoin="round" stroke-miterlimit="10" fill="none" fill-rule="evenodd"/><path d="M801.169 9.28208 801.169 197.433" stroke="#000000" stroke-width="1.33388" stroke-linejoin="round" stroke-miterlimit="10" fill="none" fill-rule="evenodd"/><path d="M10.3384 9.94928 801.836 9.94928" stroke="#000000" stroke-width="1.33388" stroke-linejoin="round" stroke-miterlimit="10" fill="none" fill-rule="evenodd"/><path d="M10.3384 196.766 801.836 196.766" stroke="#000000" stroke-width="1.33388" stroke-linejoin="round" stroke-miterlimit="10" fill="none" fill-rule="evenodd"/><text fill="#FFFFFF" font-family="Calibri,Calibri_MSFontService,sans-serif" font-weight="700" font-size="18.6816" transform="matrix(1 0 0 1.00039 605.172 32)">Return</text><text fill="#FFFFFF" font-family="Yu Gothic,Yu Gothic_MSFontService,sans-serif" font-weight="700" font-size="18.6816" transform="matrix(1 0 0 1.00039 528.774 55)">（収益・利益・見返り）</text><text fill="#FFFFFF" font-family="Calibri,Calibri_MSFontService,sans-serif" font-weight="700" font-size="18.6816" transform="matrix(1 0 0 1.00039 262.745 32)">Reward</text><text fill="#FFFFFF" font-family="Yu Gothic,Yu Gothic_MSFontService,sans-serif" font-weight="700" font-size="18.6816" transform="matrix(1 0 0 1.00039 180.064 55)">（</text><text fill="#FFFFFF" font-family="Yu Gothic,Yu Gothic_MSFontService,sans-serif" font-weight="700" font-size="18.6816" transform="matrix(1 0 0 1.00039 198.738 55)">報酬・ご褒美・見返り）</text><text fill="#FFFFFF" font-family="Yu Gothic,Yu Gothic_MSFontService,sans-serif" font-weight="700" font-size="18.6816" transform="matrix(1 0 0 1.00039 48.0403 32)">文脈</text><g><text font-family="Yu Gothic,Yu Gothic_MSFontService,sans-serif" font-weight="700" font-size="18.6816" transform="matrix(1 0 0 1.00039 471.4 86)">「戻ってくる」という結果そのもの</text></g><g><text font-family="Yu Gothic,Yu Gothic_MSFontService,sans-serif" font-weight="700" font-size="18.6816" transform="matrix(1 0 0 1.00039 132.028 86)">心理的な満足感や具体的な「ほうび」</text></g><g><text font-family="Yu Gothic,Yu Gothic_MSFontService,sans-serif" font-weight="700" font-size="18.6816" transform="matrix(1 0 0 1.00039 20.6093 86)">一般</text></g><g><text font-family="Yu Gothic,Yu Gothic_MSFontService,sans-serif" font-weight="700" font-size="18.6816" transform="matrix(1 0 0 1.00039 471.4 125)">定量的な投資対効果</text></g><g><text font-family="Yu Gothic,Yu Gothic_MSFontService,sans-serif" font-weight="700" font-size="18.6816" transform="matrix(1 0 0 1.00039 132.028 125)">モチベーションの源泉</text></g><g><text font-family="Yu Gothic,Yu Gothic_MSFontService,sans-serif" font-weight="700" font-size="18.6816" transform="matrix(1 0 0 1.00039 132.028 148)">・成果給、ボーナスなど</text></g><g><text font-family="Yu Gothic,Yu Gothic_MSFontService,sans-serif" font-weight="700" font-size="18.6816" transform="matrix(1 0 0 1.00039 20.6093 125)">ビジネス、</text></g><g><text font-family="Yu Gothic,Yu Gothic_MSFontService,sans-serif" font-weight="700" font-size="18.6816" transform="matrix(1 0 0 1.00039 20.6093 148)">投資</text></g><g><text font-family="Yu Gothic,Yu Gothic_MSFontService,sans-serif" font-weight="700" font-size="18.6816" transform="matrix(1 0 0 1.00039 471.4 180)">将来まで見据えた累積の報酬（収益）</text></g><g><text font-family="Calibri,Calibri_MSFontService,sans-serif" font-weight="700" font-size="18.6816" transform="matrix(1 0 0 1.00039 132.028 180)">1</text></g><text font-family="Yu Gothic,Yu Gothic_MSFontService,sans-serif" font-weight="700" font-size="18.6816" transform="matrix(1 0 0 1.00039 141.532 180)">ステップごとの即時的な報酬</text><g><text font-family="Yu Gothic,Yu Gothic_MSFontService,sans-serif" font-weight="700" font-size="18.6816" transform="matrix(1 0 0 1.00039 20.6093 180)">強化学習</text></g></g></svg>