<svg width="643" height="151" xmlns="http://www.w3.org/2000/svg" xmlns:xlink="http://www.w3.org/1999/xlink" overflow="hidden"><defs><clipPath id="clip0"><rect x="0" y="0" width="643" height="151"/></clipPath></defs><g clip-path="url(#clip0)"><rect x="0" y="0" width="643" height="150.716" fill="#FFFFFF"/><path d="M24.0328 19.0709 187.204 19.0709 187.204 77.4917 24.0328 77.4917Z" fill="#2E75B6" fill-rule="evenodd"/><path d="M187.204 19.0709 621.729 19.0709 621.729 77.4917 187.204 77.4917Z" fill="#FFFFFF" fill-rule="evenodd"/><path d="M24.0328 77.4917 187.204 77.4917 187.204 135.912 24.0328 135.912Z" fill="#2E75B6" fill-rule="evenodd"/><path d="M187.204 77.4917 621.729 77.4917 621.729 135.912 187.204 135.912Z" fill="#FFFFFF" fill-rule="evenodd"/><path d="M187.204 18.405 187.204 136.578" stroke="#000000" stroke-width="1.33437" stroke-linejoin="round" stroke-miterlimit="10" fill="none" fill-rule="evenodd"/><path d="M23.3656 77.4917 187.204 77.4917" stroke="#FFFFFF" stroke-width="1.33437" stroke-linejoin="round" stroke-miterlimit="10" fill="none" fill-rule="evenodd"/><path d="M187.204 77.4917 622.396 77.4917" stroke="#000000" stroke-width="1.33437" stroke-linejoin="round" stroke-miterlimit="10" fill="none" fill-rule="evenodd"/><path d="M24.0328 18.405 24.0328 136.578" stroke="#000000" stroke-width="1.33437" stroke-linejoin="round" stroke-miterlimit="10" fill="none" fill-rule="evenodd"/><path d="M621.729 18.405 621.729 136.578" stroke="#000000" stroke-width="1.33437" stroke-linejoin="round" stroke-miterlimit="10" fill="none" fill-rule="evenodd"/><path d="M23.3656 19.0709 622.396 19.0709" stroke="#000000" stroke-width="1.33437" stroke-linejoin="round" stroke-miterlimit="10" fill="none" fill-rule="evenodd"/><path d="M23.3656 135.912 622.396 135.912" stroke="#000000" stroke-width="1.33437" stroke-linejoin="round" stroke-miterlimit="10" fill="none" fill-rule="evenodd"/><text font-family="Yu Gothic,Yu Gothic_MSFontService,sans-serif" font-weight="700" font-size="19" transform="matrix(1 0 0 0.998121 190.987 41)">根源からリスクを無くして達成される安全</text><text font-family="Yu Gothic,Yu Gothic_MSFontService,sans-serif" font-weight="700" font-size="19" transform="matrix(1 0 0 0.998121 190.987 67)">例：立体交差</text><text fill="#FFFFFF" font-family="Yu Gothic,Yu Gothic_MSFontService,sans-serif" font-weight="700" font-size="19" transform="matrix(1 0 0 0.998121 27.8152 41)">inherent safety</text><text fill="#FFFFFF" font-family="Yu Gothic,Yu Gothic_MSFontService,sans-serif" font-weight="700" font-size="19" transform="matrix(1 0 0 0.998121 27.8152 67)">(</text><text fill="#FFFFFF" font-family="Yu Gothic,Yu Gothic_MSFontService,sans-serif" font-weight="700" font-size="19" transform="matrix(1 0 0 0.998121 35.3211 67)">本質安全</text><text fill="#FFFFFF" font-family="Yu Gothic,Yu Gothic_MSFontService,sans-serif" font-weight="700" font-size="19" transform="matrix(1 0 0 0.998121 110.046 67)">)</text><text font-family="Yu Gothic,Yu Gothic_MSFontService,sans-serif" font-weight="700" font-size="19" transform="matrix(1 0 0 0.998121 190.987 99)">付加された機能によって確保される安全</text><text font-family="Yu Gothic,Yu Gothic_MSFontService,sans-serif" font-weight="700" font-size="19" transform="matrix(1 0 0 0.998121 190.987 125)">例：遮断機</text><text font-family="Yu Gothic,Yu Gothic_MSFontService,sans-serif" font-weight="700" font-size="19" transform="matrix(1 0 0 0.998121 284.393 125)">,</text><text font-family="Yu Gothic,Yu Gothic_MSFontService,sans-serif" font-weight="700" font-size="19" transform="matrix(1 0 0 0.998121 294.901 125)">列車停止装置によるリスク軽減</text><text fill="#FFFFFF" font-family="Yu Gothic,Yu Gothic_MSFontService,sans-serif" font-weight="700" font-size="19" transform="matrix(1 0 0 0.998121 27.8152 99)">functional</text><text fill="#FFFFFF" font-family="Yu Gothic,Yu Gothic_MSFontService,sans-serif" font-weight="700" font-size="19" transform="matrix(1 0 0 0.998121 124.724 99)">safety</text><text fill="#FFFFFF" font-family="Yu Gothic,Yu Gothic_MSFontService,sans-serif" font-weight="700" font-size="19" transform="matrix(1 0 0 0.998121 27.8152 125)">(</text><text fill="#FFFFFF" font-family="Yu Gothic,Yu Gothic_MSFontService,sans-serif" font-weight="700" font-size="19" transform="matrix(1 0 0 0.998121 35.3211 125)">機能</text><text fill="#FFFFFF" font-family="Yu Gothic,Yu Gothic_MSFontService,sans-serif" font-weight="700" font-size="19" transform="matrix(1 0 0 0.998121 72.6834 125)">安全</text><text fill="#FFFFFF" font-family="Yu Gothic,Yu Gothic_MSFontService,sans-serif" font-weight="700" font-size="19" transform="matrix(1 0 0 0.998121 110.046 125)">)</text></g></svg>