<svg width="576" height="113" xmlns="http://www.w3.org/2000/svg" xmlns:xlink="http://www.w3.org/1999/xlink" overflow="hidden"><g><rect x="0" y="0" width="576" height="112.733" fill="#FFFFFF"/><path d="M27.3344 23.9242 169.658 23.9242 169.658 56.5 27.3344 56.5Z" fill="#2E75B6" fill-rule="evenodd"/><path d="M169.658 23.9242 548.665 23.9242 548.665 56.5 169.658 56.5Z" fill="#FFFFFF" fill-rule="evenodd"/><path d="M27.3344 56.5 169.658 56.5 169.658 89.0758 27.3344 89.0758Z" fill="#2E75B6" fill-rule="evenodd"/><path d="M169.658 56.5 548.665 56.5 548.665 89.0758 169.658 89.0758Z" fill="#FFFFFF" fill-rule="evenodd"/><path d="M169.658 23.2595 169.658 89.7405" stroke="#000000" stroke-width="1.33256" stroke-linejoin="round" stroke-miterlimit="10" fill="none" fill-rule="evenodd"/><path d="M26.6681 56.5 169.658 56.5" stroke="#FFFFFF" stroke-width="1.33256" stroke-linejoin="round" stroke-miterlimit="10" fill="none" fill-rule="evenodd"/><path d="M169.658 56.5 549.332 56.5" stroke="#000000" stroke-width="1.33256" stroke-linejoin="round" stroke-miterlimit="10" fill="none" fill-rule="evenodd"/><path d="M27.3344 23.2595 27.3344 89.7405" stroke="#000000" stroke-width="1.33256" stroke-linejoin="round" stroke-miterlimit="10" fill="none" fill-rule="evenodd"/><path d="M548.665 23.2595 548.665 89.7405" stroke="#000000" stroke-width="1.33256" stroke-linejoin="round" stroke-miterlimit="10" fill="none" fill-rule="evenodd"/><path d="M26.6681 23.9242 549.332 23.9242" stroke="#000000" stroke-width="1.33256" stroke-linejoin="round" stroke-miterlimit="10" fill="none" fill-rule="evenodd"/><path d="M26.6681 89.0758 549.332 89.0758" stroke="#000000" stroke-width="1.33256" stroke-linejoin="round" stroke-miterlimit="10" fill="none" fill-rule="evenodd"/><text font-family="Calibri,Calibri_MSFontService,sans-serif" font-weight="400" font-size="19" transform="matrix(1 0 0 0.997636 173.435 46)">protection from danger</text><text font-family="MS PGothic,MS PGothic_MSFontService,sans-serif" font-weight="400" font-size="19" transform="matrix(1 0 0 0.997636 350.879 46)">：危険から保護すること</text><text fill="#FFFFFF" font-family="MS PGothic,MS PGothic_MSFontService,sans-serif" font-weight="700" font-size="19" transform="matrix(1 0 0 0.997636 31.1118 47)">security</text><text fill="#FFFFFF" font-family="MS PGothic,MS PGothic_MSFontService,sans-serif" font-weight="700" font-size="19" transform="matrix(1 0 0 0.997636 106.402 47)">（</text><text fill="#FFFFFF" font-family="MS PGothic,MS PGothic_MSFontService,sans-serif" font-weight="700" font-size="19" transform="matrix(1 0 0 0.997636 115.729 47)">安心</text><text fill="#FFFFFF" font-family="MS PGothic,MS PGothic_MSFontService,sans-serif" font-weight="700" font-size="19" transform="matrix(1 0 0 0.997636 153.041 47)">）</text><text font-family="Calibri,Calibri_MSFontService,sans-serif" font-weight="400" font-size="19" transform="matrix(1 0 0 0.997636 173.435 79)">not in danger</text><text font-family="MS PGothic,MS PGothic_MSFontService,sans-serif" font-weight="400" font-size="19" transform="matrix(1 0 0 0.997636 275.057 79)">：危険がない</text><text font-family="MS PGothic,MS PGothic_MSFontService,sans-serif" font-weight="400" font-size="19" transform="matrix(1 0 0 0.997636 374.832 79)">状態</text><text font-family="MS PGothic,MS PGothic_MSFontService,sans-serif" font-weight="400" font-size="19" transform="matrix(1 0 0 0.997636 412.144 79)">（</text><text font-family="MS PGothic,MS PGothic_MSFontService,sans-serif" font-weight="400" font-size="19" transform="matrix(1 0 0 0.997636 421.472 79)">に</text><text font-family="MS PGothic,MS PGothic_MSFontService,sans-serif" font-weight="400" font-size="19" transform="matrix(1 0 0 0.997636 438.962 79)">する</text><text font-family="MS PGothic,MS PGothic_MSFontService,sans-serif" font-weight="400" font-size="19" transform="matrix(1 0 0 0.997636 473.109 79)">こと</text><text font-family="MS PGothic,MS PGothic_MSFontService,sans-serif" font-weight="400" font-size="19" transform="matrix(1 0 0 0.997636 502.258 79)">）</text><text fill="#FFFFFF" font-family="MS PGothic,MS PGothic_MSFontService,sans-serif" font-weight="700" font-size="19" transform="matrix(1 0 0 0.997636 31.1118 80)">safety</text><text fill="#FFFFFF" font-family="MS PGothic,MS PGothic_MSFontService,sans-serif" font-weight="700" font-size="19" transform="matrix(1 0 0 0.997636 92.0765 80)">（</text><text fill="#FFFFFF" font-family="MS PGothic,MS PGothic_MSFontService,sans-serif" font-weight="700" font-size="19" transform="matrix(1 0 0 0.997636 101.404 80)">安全</text><text fill="#FFFFFF" font-family="MS PGothic,MS PGothic_MSFontService,sans-serif" font-weight="700" font-size="19" transform="matrix(1 0 0 0.997636 138.716 80)">）</text></g></svg>