<svg width="643" height="113" xmlns="http://www.w3.org/2000/svg" xmlns:xlink="http://www.w3.org/1999/xlink" overflow="hidden"><defs><clipPath id="clip0"><rect x="0" y="0" width="643" height="113"/></clipPath></defs><g clip-path="url(#clip0)"><rect x="0" y="0" width="643" height="112.58" fill="#FFFFFF"/><path d="M22.6517 23.9242 185.823 23.9242 185.823 56.5 22.6517 56.5Z" fill="#2E75B6" fill-rule="evenodd"/><path d="M185.823 23.9242 620.348 23.9242 620.348 56.5 185.823 56.5Z" fill="#FFFFFF" fill-rule="evenodd"/><path d="M22.6517 56.5 185.823 56.5 185.823 89.0758 22.6517 89.0758Z" fill="#2E75B6" fill-rule="evenodd"/><path d="M185.823 56.5 620.348 56.5 620.348 89.0758 185.823 89.0758Z" fill="#FFFFFF" fill-rule="evenodd"/><path d="M185.823 23.2595 185.823 89.7405" stroke="#000000" stroke-width="1.33437" stroke-linejoin="round" stroke-miterlimit="10" fill="none" fill-rule="evenodd"/><path d="M21.9846 56.5 185.823 56.5" stroke="#FFFFFF" stroke-width="1.33437" stroke-linejoin="round" stroke-miterlimit="10" fill="none" fill-rule="evenodd"/><path d="M185.823 56.5 621.015 56.5" stroke="#000000" stroke-width="1.33437" stroke-linejoin="round" stroke-miterlimit="10" fill="none" fill-rule="evenodd"/><path d="M22.6517 23.2595 22.6517 89.7405" stroke="#000000" stroke-width="1.33437" stroke-linejoin="round" stroke-miterlimit="10" fill="none" fill-rule="evenodd"/><path d="M620.348 23.2595 620.348 89.7405" stroke="#000000" stroke-width="1.33437" stroke-linejoin="round" stroke-miterlimit="10" fill="none" fill-rule="evenodd"/><path d="M21.9846 23.9242 621.015 23.9242" stroke="#000000" stroke-width="1.33437" stroke-linejoin="round" stroke-miterlimit="10" fill="none" fill-rule="evenodd"/><path d="M21.9846 89.0758 621.015 89.0758" stroke="#000000" stroke-width="1.33437" stroke-linejoin="round" stroke-miterlimit="10" fill="none" fill-rule="evenodd"/><text font-family="Yu Gothic,Yu Gothic_MSFontService,sans-serif" font-weight="400" font-size="19" transform="matrix(1 0 0 0.996283 189.606 45)">protection from danger</text><text font-family="Yu Gothic,Yu Gothic_MSFontService,sans-serif" font-weight="400" font-size="19" transform="matrix(1 0 0 0.996283 387.426 45)">：危険から保護すること</text><text fill="#FFFFFF" font-family="Yu Gothic,Yu Gothic_MSFontService,sans-serif" font-weight="700" font-size="19" transform="matrix(1 0 0 0.996283 26.4342 45)">security</text><text fill="#FFFFFF" font-family="Yu Gothic,Yu Gothic_MSFontService,sans-serif" font-weight="700" font-size="19" transform="matrix(1 0 0 0.996283 99.1574 45)">（</text><text fill="#FFFFFF" font-family="Yu Gothic,Yu Gothic_MSFontService,sans-serif" font-weight="700" font-size="19" transform="matrix(1 0 0 0.996283 117.839 45)">安心）</text><text font-family="Yu Gothic,Yu Gothic_MSFontService,sans-serif" font-weight="400" font-size="19" transform="matrix(1 0 0 0.996283 189.606 78)">not in danger</text><text font-family="Yu Gothic,Yu Gothic_MSFontService,sans-serif" font-weight="400" font-size="19" transform="matrix(1 0 0 0.996283 303.528 78)">：危険がない状態（にすること）</text><text fill="#FFFFFF" font-family="Yu Gothic,Yu Gothic_MSFontService,sans-serif" font-weight="700" font-size="19" transform="matrix(1 0 0 0.996283 26.4342 78)">safety</text><text fill="#FFFFFF" font-family="Yu Gothic,Yu Gothic_MSFontService,sans-serif" font-weight="700" font-size="19" transform="matrix(1 0 0 0.996283 82.4778 78)">（</text><text fill="#FFFFFF" font-family="Yu Gothic,Yu Gothic_MSFontService,sans-serif" font-weight="700" font-size="19" transform="matrix(1 0 0 0.996283 101.159 78)">安全）</text></g></svg>