<svg width="813" height="250" xmlns="http://www.w3.org/2000/svg" xmlns:xlink="http://www.w3.org/1999/xlink" overflow="hidden"><defs><clipPath id="clip0"><rect x="0" y="0" width="813" height="250"/></clipPath><clipPath id="clip1"><rect x="69" y="-214" width="371" height="788"/></clipPath></defs><g clip-path="url(#clip0)"><rect x="0" y="0" width="813" height="250.398" fill="#FFFFFF"/><path d="M11.4183 9.56916 69.1274 9.56916 69.1274 64.0782 11.4183 64.0782Z" fill="#2E75B6" fill-rule="evenodd"/><path d="M69.1274 9.56916 439.84 9.56916 439.84 64.0782 69.1274 64.0782Z" fill="#2E75B6" fill-rule="evenodd"/><path d="M439.84 9.56916 801.582 9.56916 801.582 64.0782 439.84 64.0782Z" fill="#2E75B6" fill-rule="evenodd"/><path d="M69.1274 8.90116 69.1274 64.0782" stroke="#FFFFFF" stroke-width="1.33388" stroke-linejoin="round" stroke-miterlimit="10" fill="none" fill-rule="evenodd"/><path d="M69.1274 64.0782 69.1274 241.099" stroke="#000000" stroke-width="1.33388" stroke-linejoin="round" stroke-miterlimit="10" fill="none" fill-rule="evenodd"/><path d="M439.84 8.90116 439.84 64.0782" stroke="#FFFFFF" stroke-width="1.33388" stroke-linejoin="round" stroke-miterlimit="10" fill="none" fill-rule="evenodd"/><path d="M439.84 64.0782 439.84 241.099" stroke="#000000" stroke-width="1.33388" stroke-linejoin="round" stroke-miterlimit="10" fill="none" fill-rule="evenodd"/><path d="M10.7514 64.0782 802.249 64.0782" stroke="#000000" stroke-width="1.33388" stroke-linejoin="round" stroke-miterlimit="10" fill="none" fill-rule="evenodd"/><path d="M10.7514 118.587 802.249 118.587" stroke="#000000" stroke-width="1.33388" stroke-linejoin="round" stroke-miterlimit="10" fill="none" fill-rule="evenodd"/><path d="M11.4183 8.90116 11.4183 241.099" stroke="#000000" stroke-width="1.33388" stroke-linejoin="round" stroke-miterlimit="10" fill="none" fill-rule="evenodd"/><path d="M801.582 8.90116 801.582 241.099" stroke="#000000" stroke-width="1.33388" stroke-linejoin="round" stroke-miterlimit="10" fill="none" fill-rule="evenodd"/><path d="M10.7514 9.56916 802.249 9.56916" stroke="#000000" stroke-width="1.33388" stroke-linejoin="round" stroke-miterlimit="10" fill="none" fill-rule="evenodd"/><path d="M10.7514 240.431 802.249 240.431" stroke="#000000" stroke-width="1.33388" stroke-linejoin="round" stroke-miterlimit="10" fill="none" fill-rule="evenodd"/><text fill="#FFFFFF" font-family="Calibri,Calibri_MSFontService,sans-serif" font-weight="700" font-size="18.7041" transform="matrix(1 0 0 1.00159 526.136 31)">Translation</text><text fill="#FFFFFF" font-family="Calibri,Calibri_MSFontService,sans-serif" font-weight="700" font-size="18.7041" transform="matrix(1 0 0 1.00159 616.293 31)">Equivariance</text><text fill="#FFFFFF" font-family="Calibri,Calibri_MSFontService,sans-serif" font-weight="700" font-size="18.7041" transform="matrix(1 0 0 1.00159 568.193 55)">(</text><text fill="#FFFFFF" font-family="Yu Gothic,Yu Gothic_MSFontService,sans-serif" font-weight="700" font-size="18.7041" transform="matrix(1 0 0 1.00159 574.029 55)">並進同変性</text><text fill="#FFFFFF" font-family="Calibri,Calibri_MSFontService,sans-serif" font-weight="700" font-size="18.7041" transform="matrix(1 0 0 1.00159 667.4 55)">)</text><text fill="#FFFFFF" font-family="Calibri,Calibri_MSFontService,sans-serif" font-weight="700" font-size="18.7041" transform="matrix(1 0 0 1.00159 194.392 31)">Shift</text><text fill="#FFFFFF" font-family="Calibri,Calibri_MSFontService,sans-serif" font-weight="700" font-size="18.7041" transform="matrix(1 0 0 1.00159 234.409 31)">Invariance</text><text fill="#FFFFFF" font-family="Calibri,Calibri_MSFontService,sans-serif" font-weight="700" font-size="18.7041" transform="matrix(1 0 0 1.00159 192.625 55)">(</text><text fill="#FFFFFF" font-family="Yu Gothic,Yu Gothic_MSFontService,sans-serif" font-weight="700" font-size="18.7041" transform="matrix(1 0 0 1.00159 198.461 55)">シフト不変性</text><text fill="#FFFFFF" font-family="Calibri,Calibri_MSFontService,sans-serif" font-weight="700" font-size="18.7041" transform="matrix(1 0 0 1.00159 310.507 55)">)</text><g><text fill="#FFFFFF" font-family="Yu Gothic,Yu Gothic_MSFontService,sans-serif" font-weight="700" font-size="18.7041" transform="matrix(1 0 0 1.00159 21.5985 31)">分野</text></g><text font-family="Yu Gothic,Yu Gothic_MSFontService,sans-serif" font-weight="700" font-size="18.7041" transform="matrix(1 0 0 1.00159 611.374 86)">ー</text><g><text font-family="Yu Gothic,Yu Gothic_MSFontService,sans-serif" font-weight="700" font-size="18.7041" transform="matrix(1 0 0 1.00159 78.7314 86)">入力が移動すると、出力も同じように移</text></g><g><text font-family="Yu Gothic,Yu Gothic_MSFontService,sans-serif" font-weight="700" font-size="18.7041" transform="matrix(1 0 0 1.00159 78.7314 109)">動する性質</text></g><g><text font-family="Yu Gothic,Yu Gothic_MSFontService,sans-serif" font-weight="700" font-size="18.7041" transform="matrix(1 0 0 1.00159 21.0223 86)">工学</text></g><g><text font-family="Yu Gothic,Yu Gothic_MSFontService,sans-serif" font-weight="700" font-size="18.7041" transform="matrix(1 0 0 1.00159 449.444 141)">入力が移動すると、出力も同じように移</text></g><g><text font-family="Yu Gothic,Yu Gothic_MSFontService,sans-serif" font-weight="700" font-size="18.7041" transform="matrix(1 0 0 1.00159 449.444 164)">動する</text></g><text font-family="Yu Gothic,Yu Gothic_MSFontService,sans-serif" font-weight="700" font-size="18.7041" transform="matrix(1 0 0 1.00159 505.467 164)">性質</text><g><text font-family="Calibri,Calibri_MSFontService,sans-serif" font-weight="700" font-size="18.7041" transform="matrix(1 0 0 1.00159 449.444 186)">[</text></g><text font-family="Yu Gothic,Yu Gothic_MSFontService,sans-serif" font-weight="700" font-size="18.7041" transform="matrix(1 0 0 1.00159 455.446 186)">物体検出</text><text font-family="Calibri,Calibri_MSFontService,sans-serif" font-weight="700" font-size="18.7041" transform="matrix(1 0 0 1.00159 530.144 186)">]</text><text font-family="Yu Gothic,Yu Gothic_MSFontService,sans-serif" font-weight="700" font-size="18.7041" transform="matrix(1 0 0 1.00159 453.612 208)">物体が移動すると検出枠も同じように</text><text font-family="Yu Gothic,Yu Gothic_MSFontService,sans-serif" font-weight="700" font-size="18.7041" transform="matrix(1 0 0 1.00159 453.612 231)">移動する</text><g><text font-family="Yu Gothic,Yu Gothic_MSFontService,sans-serif" font-weight="700" font-size="18.7041" transform="matrix(1 0 0 1.00159 76.6896 141)">入力が移動しても、出力は全く変わらない</text></g><g><text font-family="Yu Gothic,Yu Gothic_MSFontService,sans-serif" font-weight="700" font-size="18.7041" transform="matrix(1 0 0 1.00159 76.6896 164)">性質</text></g><text font-family="Yu Gothic,Yu Gothic_MSFontService,sans-serif" font-weight="700" font-size="18.7041" transform="matrix(1 0 0 1.00159 114.038 164)">。</text><g><text font-family="Calibri,Calibri_MSFontService,sans-serif" font-weight="700" font-size="18.7041" transform="matrix(1 0 0 1.00159 76.6896 186)">[</text></g><text font-family="Yu Gothic,Yu Gothic_MSFontService,sans-serif" font-weight="700" font-size="18.7041" transform="matrix(1 0 0 1.00159 82.6921 186)">画像認識</text><text font-family="Calibri,Calibri_MSFontService,sans-serif" font-weight="700" font-size="18.7041" transform="matrix(1 0 0 1.00159 157.389 186)">]</text><g clip-path="url(#clip1)"><text font-family="Yu Gothic,Yu Gothic_MSFontService,sans-serif" font-weight="700" font-size="18.7041" transform="matrix(1 0 0 1.00159 76.6896 208)">どこにあっても同じモノとして認識される。</text></g><g><text font-family="Calibri,Calibri_MSFontService,sans-serif" font-weight="700" font-size="18.7041" transform="matrix(1 0 0 1.00159 76.6896 231)">pooling</text></g><text font-family="Yu Gothic,Yu Gothic_MSFontService,sans-serif" font-weight="700" font-size="18.7041" transform="matrix(1 0 0 1.00159 139.049 231)">などによって実現される。</text><g><text font-family="Calibri,Calibri_MSFontService,sans-serif" font-weight="700" font-size="18.7041" transform="matrix(1 0 0 1.00159 21.0223 141)">AI</text></g></g></svg>